<svg width="1440" height="290" viewBox="0 0 1440 290" fill="none" xmlns="http://www.w3.org/2000/svg">
<path d="M24.759 286.897L36.3647 289M24.759 286.897L59.1515 286.897M24.759 286.897L12.7676 284.724M24.759 286.897L0.402036 286.897M36.3647 289L32.1417 288.999L27.9623 288.994L23.87 288.982L19.906 288.956L16.1139 288.916L12.5341 288.854L9.20943 288.768L6.12357 288.659L3.47546 288.508L1.06459 288.334L0.402036 288.272L0.402036 286.897M36.3647 289L70.2042 289M70.2042 289L104.044 289M70.2042 289L59.1515 286.897M104.044 289L137.884 289M104.044 289L93.544 286.897M137.884 289L171.724 289M137.884 289L127.936 286.897M171.724 289L205.563 289M171.724 289L162.328 286.897M205.563 289L239.404 289M205.563 289L196.721 286.897M239.404 289L273.243 289M239.404 289L231.113 286.897M273.243 289L307.083 289M273.243 289L265.506 286.897M307.083 289L340.923 289M307.083 289L299.898 286.897M340.923 289L374.762 289M340.923 289L334.291 286.897M374.762 289L408.602 289M374.762 289L368.683 286.897M408.602 289L442.442 289M408.602 289L403.076 286.897M442.442 289L476.282 289M442.442 289L441.214 288.48L439.352 287.694L437.468 286.897M476.282 289L510.121 289M476.282 289L475.19 288.48L471.861 286.897M510.121 289L543.961 289M510.121 289L506.253 286.897M543.961 289L577.801 289M543.961 289L542.731 288.219L541.484 287.429L541.066 287.163L540.645 286.897M577.801 289L611.641 289M577.801 289L576.776 288.219L576.43 287.957L576.084 287.694L575.037 286.897M611.641 289L645.48 289M611.641 289L609.43 286.897M645.48 289L645.276 288.741L645.071 288.48L644.033 287.163L643.823 286.897M645.48 289L679.32 289M679.32 289L713.16 289M679.32 289L678.215 286.897M713.16 289L747 289M713.16 289L712.955 288.219L712.607 286.897M747 289L780.84 289M747 289L747 286.897M780.84 289L814.68 289M780.84 289L781.045 288.219L781.392 286.897M814.68 289L848.519 289M814.68 289L815.785 286.897M848.519 289L848.724 288.741L848.928 288.48L849.967 287.163L850.177 286.897M848.519 289L882.359 289M882.359 289L916.199 289M882.359 289L884.289 287.163L884.57 286.897M916.199 289L950.039 289M916.199 289L917.224 288.219L917.57 287.957L918.263 287.429L918.612 287.163L918.962 286.897M950.039 289L983.878 289M950.039 289L951.269 288.219L952.516 287.429L952.934 287.163L953.355 286.897M983.878 289L1017.72 289M983.878 289L987.747 286.897M1017.72 289L1051.56 289M1017.72 289L1018.81 288.48L1022.14 286.897M1051.56 289L1085.4 289M1051.56 289L1056.53 286.897M1085.4 289L1119.24 289M1085.4 289L1090.92 286.897M1119.24 289L1153.08 289M1119.24 289L1125.32 286.897M1153.08 289L1186.92 289M1153.08 289L1159.71 286.897M1186.92 289L1220.76 289M1186.92 289L1194.1 286.897M1220.76 289L1254.6 289M1220.76 289L1228.49 286.897M1254.6 289L1288.44 289M1254.6 289L1262.89 286.897M1288.44 289L1322.28 289M1288.44 289L1297.28 286.897M1322.28 289L1356.12 289M1322.28 289L1331.67 286.897M1356.12 289L1389.96 289M1356.12 289L1366.06 286.897M1389.96 289L1423.8 289M1389.96 289L1400.46 286.897M1423.8 289L1457.64 289M1423.8 289L1434.85 286.897M1457.64 289L1461.86 288.999L1466.04 288.995L1470.13 288.982L1474.09 288.957L1477.89 288.916L1481.47 288.854L1484.79 288.769L1487.88 288.659L1490.52 288.508L1492.94 288.334L1493.6 288.272L1493.6 286.897M1457.64 289L1469.24 286.897M1400.46 286.897L1366.06 286.897M1400.46 286.897L1434.85 286.897M1400.46 286.897L1411.31 284.724M1366.06 286.897L1376.34 284.724M1366.06 286.897L1331.67 286.897M1262.89 286.897L1228.49 286.897M1262.89 286.897L1297.28 286.897M1262.89 286.897L1265 286.36L1271.45 284.724M1228.49 286.897L1236.49 284.724M1228.49 286.897L1194.1 286.897M1125.32 286.897L1090.92 286.897M1125.32 286.897L1159.71 286.897M1125.32 286.897L1126.87 286.36L1127.65 286.091L1131.6 284.724M1090.92 286.897L1091.63 286.629L1092.33 286.36L1096.63 284.724M1090.92 286.897L1056.53 286.897M987.747 286.897L988.24 286.629L991.744 284.724M987.747 286.897L953.355 286.897M987.747 286.897L1022.14 286.897M953.355 286.897L954.2 286.36L954.627 286.091L955.053 285.819L956.781 284.724M953.355 286.897L918.962 286.897M850.177 286.897L815.785 286.897M850.177 286.897L884.57 286.897M850.177 286.897L851.89 284.724M815.785 286.897L815.926 286.629L816.066 286.36L816.209 286.091L816.638 285.274L816.927 284.724M815.785 286.897L781.392 286.897M712.607 286.897L678.215 286.897M712.607 286.897L747 286.897M712.607 286.897L712.037 284.724M678.215 286.897L678.074 286.629L677.933 286.36L677.791 286.091L677.073 284.724M678.215 286.897L643.823 286.897M575.037 286.897L540.645 286.897M575.037 286.897L609.43 286.897M575.037 286.897L574.333 286.36L572.905 285.274L572.545 285L572.183 284.724M540.645 286.897L539.8 286.36L539.373 286.091L538.946 285.819L537.219 284.724M540.645 286.897L506.253 286.897M437.468 286.897L403.076 286.897M437.468 286.897L471.861 286.897M437.468 286.897L436.199 286.36L435.561 286.091L432.329 284.724M403.076 286.897L402.372 286.629L401.666 286.36L397.366 284.724M403.076 286.897L368.683 286.897M299.898 286.897L265.506 286.897M299.898 286.897L334.291 286.897M299.898 286.897L298.065 286.36L297.143 286.091L292.475 284.724M265.506 286.897L257.512 284.724M265.506 286.897L231.113 286.897M162.328 286.897L127.936 286.897M162.328 286.897L196.721 286.897M162.328 286.897L152.622 284.724M127.936 286.897L117.658 284.724M127.936 286.897L93.544 286.897M1493.72 267.228L1493.6 267.228M1459.1 267.228L1445.97 270.004M1459.1 267.228L1472.74 264.346M1459.1 267.228L1419.54 267.228M1459.1 267.228L1493.6 267.228M1445.97 270.004L1484.8 270.004M1445.97 270.004L1433.32 272.679M1445.97 270.004L1407.14 270.004M1484.8 270.004L1471.44 272.679M1484.8 270.004L1493.6 270.004M1484.8 270.004L1493.6 268.243M1446.13 277.75L1409.33 277.75M1446.13 277.75L1434.12 280.155M1446.13 277.75L1482.92 277.75M1446.13 277.75L1458.56 275.26M1409.33 277.75L1397.96 280.155M1409.33 277.75L1421.11 275.26M1409.33 277.75L1372.54 277.75M1434.12 280.155L1397.96 280.155M1434.12 280.155L1422.52 282.478M1434.12 280.155L1470.29 280.155M1397.96 280.155L1361.79 280.155M1397.96 280.155L1386.97 282.478M1493.98 223.414L1493.6 223.414M1462.05 223.414L1445.12 228.017M1462.05 223.414L1479.83 218.583M1462.05 223.414L1410.98 223.414M1462.05 223.414L1493.6 223.414M1445.12 228.017L1428.97 232.406M1445.12 228.017L1395.26 228.017M1445.12 228.017L1493.6 228.017M1477.69 232.406L1428.97 232.406M1477.69 232.406L1461.17 236.597M1477.69 232.406L1493.6 232.406M1477.69 232.406L1493.6 228.369M1445.38 240.602L1398.82 240.602M1445.38 240.602L1430.27 244.434M1445.38 240.602L1491.94 240.602M1445.38 240.602L1461.17 236.597M1398.82 240.602L1384.72 244.434M1398.82 240.602L1413.56 236.597M1398.82 240.602L1352.26 240.602M1430.27 244.434L1384.72 244.434M1430.27 244.434L1475.82 244.434M1430.27 244.434L1415.8 248.104M1384.72 244.434L1371.22 248.104M1384.72 244.434L1339.17 244.434M1388.63 254.997L1345.86 254.997M1388.63 254.997L1375.86 258.237M1388.63 254.997L1431.41 254.997M1388.63 254.997L1401.94 251.622M1345.86 254.997L1333.94 258.237M1345.86 254.997L1358.27 251.622M1345.86 254.997L1303.08 254.997M1375.86 258.237L1333.94 258.237M1375.86 258.237L1417.78 258.237M1375.86 258.237L1363.58 261.351M1333.94 258.237L1322.48 261.351M1333.94 258.237L1292.01 258.237M1340.42 267.228L1300.86 267.228M1340.42 267.228L1329.48 270.004M1340.42 267.228L1379.98 267.228M1340.42 267.228L1351.78 264.346M1300.86 267.228L1290.64 270.004M1300.86 267.228L1311.46 264.346M1300.86 267.228L1261.3 267.228M1329.48 270.004L1290.64 270.004M1329.48 270.004L1368.31 270.004M1329.48 270.004L1318.93 272.679M1290.64 270.004L1280.8 272.679M1290.64 270.004L1251.81 270.004M1298.94 277.75L1262.15 277.75M1298.94 277.75L1289.46 280.155M1298.94 277.75L1335.74 277.75M1298.94 277.75L1308.76 275.26M1262.15 277.75L1253.3 280.155M1262.15 277.75L1271.31 275.26M1262.15 277.75L1225.35 277.75M1289.46 280.155L1253.3 280.155M1289.46 280.155L1280.31 282.478M1289.46 280.155L1325.63 280.155M1253.3 280.155L1217.14 280.155M1253.3 280.155L1244.75 282.478M1467.43 143.627L1443.6 152.695M1467.43 143.627L1492.95 133.916M1467.43 143.627L1395.39 143.627M1467.43 143.627L1493.6 143.627M1443.6 152.695L1421.29 161.183M1443.6 152.695L1373.94 152.695M1443.6 152.695L1493.6 152.695M1444.08 176.626L1380.71 176.626M1444.08 176.626L1423.72 183.67M1444.08 176.626L1465.71 169.143M1444.08 176.626L1493.6 176.626M1380.71 176.626L1362.2 183.67M1380.71 176.626L1400.37 169.143M1380.71 176.626L1317.34 176.626M1423.72 183.67L1362.2 183.67M1423.72 183.67L1485.24 183.67M1423.72 183.67L1404.51 190.315M1362.2 183.67L1344.74 190.315M1362.2 183.67L1300.68 183.67M1369.19 202.534L1312.63 202.534M1369.19 202.534L1352.92 208.163M1369.19 202.534L1425.75 202.534M1369.19 202.534L1386.36 196.592M1312.63 202.534L1297.83 208.163M1312.63 202.534L1328.24 196.592M1312.63 202.534L1256.06 202.534M1352.92 208.163L1297.83 208.163M1352.92 208.163L1408 208.163M1352.92 208.163L1337.47 213.506M1297.83 208.163L1283.79 213.506M1297.83 208.163L1242.75 208.163M1308.83 223.414L1257.75 223.414M1308.83 223.414L1295.52 228.017M1308.83 223.414L1359.9 223.414M1308.83 223.414L1322.79 218.583M1257.75 223.414L1245.66 228.017M1257.75 223.414L1270.45 218.583M1257.75 223.414L1206.68 223.414M1295.52 228.017L1245.66 228.017M1295.52 228.017L1345.39 228.017M1295.52 228.017L1282.84 232.406M1245.66 228.017L1234.12 232.406M1245.66 228.017L1195.79 228.017M1259.14 240.602L1212.58 240.602M1259.14 240.602L1248.07 244.434M1259.14 240.602L1305.7 240.602M1259.14 240.602L1270.72 236.597M1212.58 240.602L1202.51 244.434M1212.58 240.602L1223.11 236.597M1212.58 240.602L1166.03 240.602M1248.07 244.434L1202.51 244.434M1248.07 244.434L1293.62 244.434M1248.07 244.434L1237.46 248.104M1202.51 244.434L1192.87 248.104M1202.51 244.434L1156.96 244.434M1217.53 254.997L1174.76 254.997M1217.53 254.997L1208.16 258.237M1217.53 254.997L1260.31 254.997M1217.53 254.997L1227.29 251.622M1174.76 254.997L1173.67 255.409L1166.24 258.237M1174.76 254.997L1183.62 251.622M1174.76 254.997L1131.98 254.997M1208.16 258.237L1166.24 258.237M1208.16 258.237L1250.09 258.237M1208.16 258.237L1199.16 261.351M1166.24 258.237L1158.06 261.351M1166.24 258.237L1124.32 258.237M1182.17 267.228L1142.61 267.228M1182.17 267.228L1174.15 270.004M1182.17 267.228L1221.74 267.228M1182.17 267.228L1190.51 264.346M1142.61 267.228L1135.32 270.004M1142.61 267.228L1145.42 266.16L1150.19 264.346M1142.61 267.228L1103.05 267.228M1174.15 270.004L1135.32 270.004M1174.15 270.004L1212.98 270.004M1174.15 270.004L1166.42 272.679M1135.32 270.004L1128.29 272.679M1135.32 270.004L1096.49 270.004M1151.76 277.75L1114.96 277.75M1151.76 277.75L1144.81 280.155M1151.76 277.75L1188.55 277.75M1151.76 277.75L1158.96 275.26M1114.96 277.75L1110.2 279.561L1109.42 279.859L1108.64 280.155M1114.96 277.75L1121.51 275.26M1114.96 277.75L1078.17 277.75M1144.81 280.155L1108.64 280.155M1144.81 280.155L1138.09 282.478M1144.81 280.155L1180.97 280.155M1108.64 280.155L1072.48 280.155M1108.64 280.155L1102.54 282.478M1441.33 40.3273L1342.14 40.3273M1441.33 40.3273L1410.1 57.3055M1441.33 40.3273L1475.65 21.6703M1441.33 40.3273L1493.6 40.3269M1342.14 40.3273L1315.37 57.3055M1342.14 40.3273L1371.56 21.6703M1342.14 40.3273L1242.95 40.3273M1410.1 57.3055L1315.37 57.3055M1410.1 57.3055L1381.55 72.822M1410.1 57.3055L1493.6 57.3055M1315.37 57.3055L1290.9 72.822M1315.37 57.3055L1220.64 57.3055M1331.25 100.165L1247.79 100.165M1331.25 100.165L1308.98 112.273M1331.25 100.165L1414.72 100.165M1331.25 100.165L1355.36 87.0579M1247.79 100.165L1228.7 112.273M1247.79 100.165L1268.45 87.0579M1247.79 100.165L1164.32 100.165M1308.98 112.273L1228.7 112.273M1308.98 112.273L1389.26 112.273M1308.98 112.273L1288.34 123.492M1228.7 112.273L1211.01 123.492M1228.7 112.273L1148.41 112.273M1251.3 143.627L1179.26 143.627M1251.3 143.627L1234.62 152.695M1251.3 143.627L1323.34 143.627M1251.3 143.627L1269.17 133.916M1179.26 143.627L1164.96 152.695M1179.26 143.627L1194.57 133.916M1179.26 143.627L1107.22 143.627M1234.62 152.695L1164.96 152.695M1234.62 152.695L1304.28 152.695M1234.62 152.695L1219.01 161.183M1164.96 152.695L1151.58 161.183M1164.96 152.695L1095.3 152.695M1190.6 176.626L1127.23 176.626M1190.6 176.626L1177.64 183.67M1190.6 176.626L1253.97 176.626M1190.6 176.626L1204.36 169.143M1127.23 176.626L1116.12 183.67M1127.23 176.626L1139.02 169.143M1127.23 176.626L1063.86 176.625M1177.64 183.67L1116.12 183.67M1177.64 183.67L1239.16 183.67M1177.64 183.67L1165.42 190.315M1116.12 183.67L1105.64 190.315M1116.12 183.67L1054.6 183.67M1142.94 202.534L1086.38 202.533M1142.94 202.534L1132.58 208.163M1142.94 202.534L1199.5 202.534M1142.94 202.534L1153.87 196.592M1086.38 202.533L1077.5 208.163M1086.38 202.533L1095.74 196.592M1086.38 202.533L1029.81 202.533M1132.58 208.163L1077.5 208.163M1132.58 208.163L1187.67 208.163M1132.58 208.163L1122.75 213.506M1077.5 208.163L1069.08 213.506M1077.5 208.163L1022.42 208.163M1104.53 223.414L1053.45 223.414M1104.53 223.414L1096.06 228.017M1104.53 223.414L1155.6 223.414M1104.53 223.414L1113.41 218.583M1053.45 223.414L1046.2 228.017M1053.45 223.414L1061.07 218.583M1053.45 223.414L1002.38 223.414M1096.06 228.017L1046.2 228.017M1096.06 228.017L1145.93 228.017M1096.06 228.017L1087.99 232.406M1046.2 228.017L1039.27 232.406M1046.2 228.017L996.329 228.017M1072.91 240.602L1026.35 240.602M1072.91 240.602L1065.86 244.434M1072.91 240.602L1119.47 240.602M1072.91 240.602L1080.28 236.597M1026.35 240.602L1020.31 244.434M1026.35 240.602L1032.67 236.597M1026.35 240.602L979.792 240.602M1065.86 244.434L1020.31 244.434M1065.86 244.434L1111.41 244.434M1065.86 244.434L1059.11 248.104M1020.31 244.434L1014.52 248.104M1020.31 244.434L974.757 244.434M1046.43 254.997L1003.65 254.997M1046.43 254.997L1040.47 258.237M1046.43 254.997L1089.2 254.997M1046.43 254.997L1052.64 251.622M1003.65 254.997L1004.31 254.583L1008.97 251.622M1003.65 254.997L998.544 258.237M1003.65 254.997L960.878 254.997M1040.47 258.237L998.544 258.237M1040.47 258.237L1082.39 258.237M1040.47 258.237L1034.74 261.351M998.544 258.237L993.634 261.351M998.544 258.237L956.62 258.237M1023.93 267.228L984.368 267.228M1023.93 267.228L1018.82 270.004M1023.93 267.228L1063.49 267.228M1023.93 267.228L1029.23 264.346M984.368 267.228L979.991 270.004M984.368 267.228L986.051 266.16L987.188 265.44L988.912 264.346M984.368 267.228L944.806 267.228M1018.82 270.004L979.991 270.004M1018.82 270.004L1057.65 270.004M1018.82 270.004L1013.9 272.679M979.991 270.004L978.39 271.019L977.336 271.688L975.772 272.679M979.991 270.004L941.159 270.004M1004.57 277.75L967.778 277.75M1004.57 277.75L1001.24 279.561L1000.15 280.155M1004.57 277.75L1041.37 277.75M1004.57 277.75L1008.57 275.576L1009.15 275.26M967.778 277.75L964.921 279.561L964.453 279.859L963.985 280.155M967.778 277.75L969.723 276.516L971.703 275.26M967.778 277.75L930.981 277.75M1000.15 280.155L963.985 280.155M1000.15 280.155L995.876 282.478M1000.15 280.155L1036.31 280.155M963.985 280.155L927.821 280.155M963.985 280.155L960.322 282.478M1044.57 40.3272L945.38 40.3272M1044.57 40.3272L1031.18 57.3054M1044.57 40.3272L1143.76 40.3273M1044.57 40.3272L1059.28 21.6703M945.38 40.3272L936.455 57.3054M945.38 40.3272L955.185 21.6703M945.38 40.3272L846.189 40.3272M1031.18 57.3054L936.455 57.3054M1031.18 57.3054L1125.91 57.3055M1031.18 57.3054L1018.95 72.822M936.455 57.3054L928.3 72.822M936.455 57.3054L841.728 57.3054M997.393 100.165L913.929 100.165M997.393 100.165L987.848 112.273M997.393 100.165L1080.86 100.165M997.393 100.165L1007.73 87.0578M913.929 100.165L907.565 112.273M913.929 100.165L920.818 87.0578M913.929 100.165L830.464 100.165M987.848 112.273L907.565 112.273M987.848 112.273L1068.13 112.273M987.848 112.273L979.003 123.492M907.565 112.273L901.669 123.492M907.565 112.273L827.283 112.273M963.129 143.627L891.086 143.627M963.129 143.627L955.98 152.695M963.129 143.627L1035.17 143.627M963.129 143.627L970.785 133.916M891.086 143.627L886.32 152.695M891.086 143.627L896.19 133.916M891.086 143.627L819.043 143.627M955.98 152.695L886.32 152.695M955.98 152.695L1025.64 152.695M955.98 152.695L949.288 161.183M886.32 152.695L881.859 161.183M886.32 152.695L816.66 152.695M937.113 176.625L873.743 176.625M937.113 176.625L931.56 183.67M937.113 176.625L1000.48 176.625M937.113 176.625L943.012 169.143M873.743 176.625L870.04 183.67M873.743 176.625L877.675 169.143M873.743 176.625L810.371 176.625M931.56 183.67L870.04 183.67M931.56 183.67L993.079 183.67M931.56 183.67L926.321 190.315M870.04 183.67L866.547 190.315M870.04 183.67L808.52 183.67M916.688 202.533L860.125 202.533M916.688 202.533L912.25 208.163M916.688 202.533L973.251 202.533M916.688 202.533L921.372 196.592M860.125 202.533L857.167 208.163M860.125 202.533L863.248 196.592M860.125 202.533L803.563 202.533M912.25 208.163L857.167 208.163M912.25 208.163L967.333 208.163M912.25 208.163L908.037 213.506M857.167 208.163L854.358 213.506M857.167 208.163L802.083 208.163M900.226 223.414L849.151 223.414M900.226 223.414L896.598 228.017M900.226 223.414L951.301 223.414M900.226 223.414L904.034 218.583M849.151 223.414L846.731 228.017M849.151 223.414L851.69 218.583M849.151 223.414L798.075 223.414M896.598 228.017L846.731 228.017M896.598 228.017L946.464 228.017M896.598 228.017L895.281 229.687L893.137 232.406M846.731 228.017L844.425 232.406M846.731 228.017L796.866 228.017M886.675 240.602L840.117 240.602M886.675 240.602L883.654 244.434M886.675 240.602L933.234 240.602M886.675 240.602L889.03 237.615L889.833 236.597M840.117 240.602L839.351 242.059L838.103 244.434M840.117 240.602L842.222 236.597M840.117 240.602L793.558 240.602M883.654 244.434L883.286 244.902L880.761 248.104M883.654 244.434L838.103 244.434M883.654 244.434L929.206 244.434M838.103 244.434L837.369 245.829L837.128 246.289L836.887 246.746L836.174 248.104M838.103 244.434L792.551 244.434M875.327 254.997L832.552 254.997M875.327 254.997L874.037 256.633L873.718 257.037L873.401 257.439L873.086 257.839L872.772 258.237M875.327 254.997L918.102 254.997M875.327 254.997L877.987 251.622M832.552 254.997L831.268 257.439L831.057 257.839L830.848 258.237M832.552 254.997L834.325 251.622M832.552 254.997L789.775 254.997M872.772 258.237L830.848 258.237M872.772 258.237L914.696 258.237M872.772 258.237L871.226 260.198L870.922 260.584L870.317 261.351M830.848 258.237L829.818 260.198L829.614 260.584L829.413 260.969L829.211 261.351M830.848 258.237L788.924 258.237M865.683 267.228L826.122 267.228M865.683 267.228L863.495 270.004M865.683 267.228L905.245 267.228M865.683 267.228L866.244 266.518L867.094 265.44L867.956 264.346M826.122 267.228L826.309 266.874L827.445 264.712L827.637 264.346M826.122 267.228L824.663 270.004M826.122 267.228L786.561 267.228M863.495 270.004L824.663 270.004M863.495 270.004L902.327 270.004M863.495 270.004L861.386 272.679M824.663 270.004L824.13 271.019L823.954 271.354L823.778 271.688L823.257 272.679M824.663 270.004L785.832 270.004M857.388 277.75L820.593 277.75M857.388 277.75L855.96 279.561L855.493 280.155M857.388 277.75L894.185 277.75M857.388 277.75L858.117 276.826L858.361 276.516L858.608 276.204L859.352 275.26M820.593 277.75L820.432 278.055L820.114 278.661L819.797 279.262L819.329 280.155M820.593 277.75L821.241 276.516L821.405 276.204L821.735 275.576L821.901 275.26M820.593 277.75L783.796 277.75M855.493 280.155L819.329 280.155M855.493 280.155L853.887 282.192L853.661 282.478M855.493 280.155L891.657 280.155M819.329 280.155L819.173 280.449L819.019 280.743L818.865 281.035L818.713 281.326L818.258 282.192L818.107 282.478M819.329 280.155L783.164 280.155M647.811 40.3272L548.62 40.3272M647.811 40.3272L652.272 57.3054M647.811 40.3272L747 40.3272M647.811 40.3272L642.907 21.6703M548.62 40.3272L557.544 57.3054M548.62 40.3272L538.815 21.6703M548.62 40.3272L449.431 40.3272M652.272 57.3054L557.544 57.3054M652.272 57.3054L747 57.3054M652.272 57.3054L656.35 72.8219M557.544 57.3054L565.7 72.8219M557.544 57.3054L462.816 57.3054M663.536 100.165L580.071 100.165M663.536 100.165L666.717 112.273M663.536 100.165L747 100.165M663.536 100.165L660.091 87.0578M580.071 100.165L586.435 112.273M580.071 100.165L573.182 87.0578M580.071 100.165L496.607 100.165M666.717 112.273L586.435 112.273M666.717 112.273L747 112.273M666.717 112.273L669.666 123.492M586.435 112.273L592.331 123.492M586.435 112.273L506.152 112.273M674.957 143.627L602.914 143.627M674.957 143.627L677.34 152.695M674.957 143.627L747 143.627M674.957 143.627L672.405 133.916M602.914 143.627L607.68 152.695M602.914 143.627L597.81 133.916M602.914 143.627L530.871 143.627M677.34 152.695L607.68 152.695M677.34 152.695L747 152.695M677.34 152.695L679.571 161.183M607.68 152.695L612.141 161.183M607.68 152.695L538.02 152.695M683.629 176.625L620.257 176.625M683.629 176.625L685.48 183.67M683.629 176.625L747 176.625M683.629 176.625L681.663 169.143M620.257 176.625L623.96 183.67M620.257 176.625L616.325 169.143M620.257 176.625L556.887 176.625M685.48 183.67L623.96 183.67M685.48 183.67L747 183.67M685.48 183.67L687.226 190.315M623.96 183.67L627.453 190.315M623.96 183.67L562.44 183.67M690.437 202.533L633.875 202.533M690.437 202.533L691.917 208.163M690.437 202.533L747 202.533M690.437 202.533L688.876 196.592M633.875 202.533L636.833 208.163M633.875 202.533L630.752 196.592M633.875 202.533L577.311 202.533M691.917 208.163L636.833 208.163M691.917 208.163L747 208.163M691.917 208.163L693.321 213.506M636.833 208.163L639.642 213.506M636.833 208.163L581.75 208.163M695.925 223.414L644.849 223.414M695.925 223.414L697.134 228.017M695.925 223.414L747 223.414M695.925 223.414L694.655 218.583M644.849 223.414L647.268 228.016M644.849 223.414L642.31 218.583M644.849 223.414L593.774 223.414M697.134 228.017L647.268 228.016M697.134 228.017L747 228.017M697.134 228.017L698.288 232.406M647.268 228.016L649.575 232.406M647.268 228.016L597.402 228.016M700.442 240.602L653.883 240.602M700.442 240.602L701.449 244.434M700.442 240.602L747 240.602M700.442 240.602L699.389 236.597M653.883 240.602L655.651 243.964L655.897 244.434M653.883 240.602L651.778 236.597M653.883 240.602L607.325 240.602M701.449 244.434L701.571 244.902L702.413 248.104M701.449 244.434L655.897 244.434M701.449 244.434L747 244.434M655.897 244.434L656.631 245.829L656.872 246.289L657.113 246.746L657.826 248.104M655.897 244.434L610.346 244.434M704.224 254.997L661.448 254.997M704.224 254.997L705.076 258.237M704.224 254.997L747 254.997M704.224 254.997L703.896 253.748L703.785 253.327L703.675 252.904L703.451 252.051L703.337 251.622M661.448 254.997L662.732 257.439L663.152 258.237M661.448 254.997L659.675 251.622M661.448 254.997L618.673 254.997M705.076 258.237L663.152 258.237M705.076 258.237L747 258.237M705.076 258.237L705.894 261.351M663.152 258.237L664.182 260.198L664.386 260.584L664.587 260.969L664.789 261.351M663.152 258.237L621.228 258.237M707.439 267.228L667.878 267.228M707.439 267.228L708.168 270.004M707.439 267.228L747 267.228M707.439 267.228L706.681 264.346M667.878 267.228L667.691 266.874L666.555 264.712L666.363 264.346M667.878 267.228L669.337 270.004M667.878 267.228L628.317 267.228M708.168 270.004L669.337 270.004M708.168 270.004L747 270.004M708.168 270.004L708.871 272.679M669.337 270.004L669.87 271.019L670.046 271.354L670.222 271.688L670.743 272.679M669.337 270.004L630.505 270.004M710.203 277.75L673.407 277.75M710.203 277.75L710.836 280.154M710.203 277.75L747 277.75M710.203 277.75L709.549 275.26M673.407 277.75L673.568 278.055L673.887 278.661L674.045 278.963L674.36 279.561L674.515 279.859L674.672 280.154M673.407 277.75L672.759 276.516L672.595 276.204L672.265 275.576L672.099 275.26M673.407 277.75L636.612 277.75M710.836 280.154L710.913 280.449L710.991 280.743L711.067 281.035L711.446 282.478M710.836 280.154L674.672 280.154M710.836 280.154L747 280.155M674.672 280.154L638.507 280.154M674.672 280.154L674.981 280.743L675.135 281.035L675.287 281.326L675.742 282.192L675.893 282.478M251.051 40.3272L151.862 40.3272M251.051 40.3272L273.361 57.3054M251.051 40.3272L350.241 40.3272M251.051 40.3272L226.536 21.6702M151.862 40.3272L178.633 57.3054M151.862 40.3272L122.444 21.6702M151.862 40.3272L52.6717 40.3272M273.361 57.3054L178.633 57.3054M273.361 57.3054L368.088 57.3054M273.361 57.3054L293.749 72.8219M178.633 57.3054L203.099 72.8219M178.633 57.3054L83.9044 57.3054M329.677 100.165L246.212 100.165M329.677 100.165L345.587 112.273M329.677 100.165L413.142 100.165M329.677 100.165L312.454 87.0578M246.212 100.165L265.304 112.273M246.212 100.165L225.546 87.0578M246.212 100.165L162.748 100.165M345.587 112.273L265.304 112.273M345.587 112.273L425.87 112.273M345.587 112.273L360.328 123.492M265.304 112.273L282.994 123.492M265.304 112.273L185.022 112.273M386.784 143.627L314.742 143.627M386.784 143.627L398.7 152.695M386.784 143.627L458.828 143.627M386.784 143.627L374.025 133.916M314.742 143.627L329.04 152.695M314.742 143.627L299.43 133.916M314.742 143.627L242.699 143.627M398.7 152.695L329.04 152.695M398.7 152.695L468.36 152.695M398.7 152.695L409.853 161.182M329.04 152.695L342.423 161.182M329.04 152.695L259.381 152.695M430.144 176.625L366.772 176.625M430.144 176.625L439.4 183.67M430.144 176.625L493.515 176.625M430.144 176.625L420.313 169.143M366.772 176.625L377.88 183.67M366.772 176.625L354.975 169.143M366.772 176.625L303.401 176.625M439.4 183.67L377.88 183.67M439.4 183.67L500.921 183.67M439.4 183.67L448.131 190.315M377.88 183.67L388.358 190.315M377.88 183.67L316.361 183.67M464.186 202.533L407.624 202.533M464.186 202.533L471.584 208.163M464.186 202.533L520.749 202.533M464.186 202.533L456.381 196.592M407.624 202.533L416.5 208.163M407.624 202.533L398.256 196.592M407.624 202.533L351.06 202.533M471.584 208.163L416.5 208.163M471.584 208.163L526.667 208.163M471.584 208.163L478.604 213.506M416.5 208.163L424.925 213.506M416.5 208.163L361.417 208.163M491.623 223.414L440.548 223.414M491.623 223.414L497.671 228.016M491.623 223.414L542.699 223.414M491.623 223.414L485.275 218.583M440.548 223.414L447.805 228.016M440.548 223.414L432.93 218.583M440.548 223.414L389.473 223.414M497.671 228.016L447.805 228.016M497.671 228.016L547.536 228.016M497.671 228.016L503.438 232.406M447.805 228.016L454.726 232.406M447.805 228.016L397.939 228.016M514.208 240.602L513.563 240.111L512.914 239.617L508.945 236.597M514.208 240.602L467.649 240.602M514.208 240.602L519.243 244.434M514.208 240.602L560.766 240.602M467.649 240.602L473.692 244.434M467.649 240.602L461.334 236.597M467.649 240.602L421.091 240.602M519.243 244.434L473.692 244.434M519.243 244.434L564.794 244.434M519.243 244.434L524.065 248.104M473.692 244.434L479.478 248.104M473.692 244.434L428.14 244.434M533.122 254.997L490.346 254.997M533.122 254.997L537.38 258.237M533.122 254.997L575.898 254.997M533.122 254.997L528.688 251.622M490.346 254.997L493.564 257.037L495.456 258.237M490.346 254.997L485.025 251.622M490.346 254.997L447.571 254.997M537.38 258.237L495.456 258.237M537.38 258.237L579.304 258.237M537.38 258.237L540.969 260.969L541.472 261.351M495.456 258.237L500.366 261.351M495.456 258.237L453.532 258.237M549.194 267.228L509.632 267.228M549.194 267.228L550.118 267.932L552.841 270.004M549.194 267.228L588.755 267.228M549.194 267.228L548.26 266.518L546.367 265.077L545.407 264.346M509.632 267.228L514.009 270.004M509.632 267.228L507.949 266.16L506.812 265.439L505.088 264.346M509.632 267.228L470.071 267.228M552.841 270.004L514.009 270.004M552.841 270.004L591.673 270.004M552.841 270.004L555.49 272.02L556.357 272.679M514.009 270.004L515.61 271.019L516.664 271.688L518.228 272.679M514.009 270.004L475.178 270.004M563.019 277.75L526.222 277.75M563.019 277.75L565.007 279.262L566.179 280.154M563.019 277.75L599.815 277.75M563.019 277.75L559.747 275.26M526.222 277.75L529.079 279.561L529.547 279.859L530.015 280.154M526.222 277.75L524.277 276.516L522.297 275.26M526.222 277.75L489.427 277.75M566.179 280.154L530.015 280.154M566.179 280.154L567.718 281.326L568.477 281.904L568.856 282.192L569.231 282.478M566.179 280.154L602.343 280.154M530.015 280.154L493.85 280.154M530.015 280.154L533.678 282.478M24.4565 112.273L104.739 112.273M24.4565 112.273L50.9903 123.492M24.4565 112.273L0.402051 112.273M24.4565 112.273L0.402052 102.103M98.6123 143.627L26.5695 143.627M98.6123 143.627L120.06 152.695M98.6123 143.627L170.655 143.627M98.6123 143.627L75.6451 133.916M26.5695 143.627L50.4 152.695M26.5695 143.627L1.04988 133.916M26.5695 143.627L0.402048 143.627M120.06 152.695L50.4 152.695M120.06 152.695L189.72 152.695M120.06 152.695L140.135 161.182M50.4 152.695L72.7054 161.182M50.4 152.695L0.402048 152.695M176.659 176.625L113.288 176.625M176.659 176.625L193.321 183.67M176.659 176.625L240.03 176.625M176.659 176.625L158.963 169.143M113.288 176.625L131.8 183.67M113.288 176.625L93.6257 169.143M113.288 176.625L49.9163 176.625M193.321 183.67L131.8 183.67M193.321 183.67L254.84 183.67M193.321 183.67L209.037 190.315M131.8 183.67L149.263 190.315M131.8 183.67L70.2805 183.67M237.935 202.533L181.373 202.533M237.935 202.533L251.25 208.163M237.935 202.533L294.498 202.533M237.935 202.533L223.884 196.592M181.373 202.533L196.168 208.163M181.373 202.533L165.76 196.592M181.373 202.533L124.809 202.533M251.25 208.163L196.168 208.163M251.25 208.163L306.334 208.163M251.25 208.163L263.887 213.506M196.168 208.163L210.209 213.506M196.168 208.163L141.084 208.163M287.322 223.414L236.247 223.414M287.322 223.414L298.207 228.016M287.322 223.414L338.397 223.414M287.322 223.414L275.896 218.583M236.247 223.414L248.341 228.016M236.247 223.414L223.551 218.583M236.247 223.414L185.172 223.414M298.207 228.016L248.341 228.016M298.207 228.016L348.073 228.016M298.207 228.016L308.588 232.406M248.341 228.016L259.876 232.406M248.341 228.016L198.475 228.016M327.973 240.602L281.415 240.602M327.973 240.602L337.038 244.434M327.973 240.602L374.532 240.602M327.973 240.602L318.5 236.597M281.415 240.602L291.487 244.434M281.415 240.602L270.889 236.597M281.415 240.602L234.857 240.602M337.038 244.434L291.487 244.434M337.038 244.434L382.589 244.434M337.038 244.434L345.718 248.104M291.487 244.434L301.131 248.104M291.487 244.434L245.935 244.434M362.02 254.997L319.244 254.997M362.02 254.997L369.684 258.237M362.02 254.997L404.795 254.997M362.02 254.997L354.037 251.622M319.244 254.997L327.76 258.237M319.244 254.997L310.375 251.622M319.244 254.997L276.468 254.997M369.684 258.237L327.76 258.237M369.684 258.237L411.608 258.237M369.684 258.237L377.049 261.351M327.76 258.237L335.943 261.351M327.76 258.237L285.836 258.237M390.949 267.228L351.388 267.228M390.949 267.228L397.514 270.004M390.949 267.228L430.51 267.228M390.949 267.228L389.268 266.518L388.423 266.16L384.132 264.346M351.388 267.228L358.683 270.004M351.388 267.228L343.813 264.346M351.388 267.228L311.827 267.228M397.514 270.004L358.683 270.004M397.514 270.004L436.346 270.004M397.514 270.004L403.842 272.679M358.683 270.004L365.713 272.679M358.683 270.004L319.851 270.004M415.834 277.75L379.038 277.75M415.834 277.75L421.521 280.154M415.834 277.75L452.63 277.75M415.834 277.75L409.944 275.26M379.038 277.75L383.798 279.561L384.579 279.858L385.357 280.154M379.038 277.75L372.494 275.26M379.038 277.75L342.242 277.75M421.521 280.154L385.357 280.154M421.521 280.154L426.339 282.192L427.017 282.478M421.521 280.154L457.686 280.154M385.357 280.154L349.192 280.154M385.357 280.154L391.462 282.478M11.6842 202.533L30.9177 208.163M11.6842 202.533L68.2468 202.533M11.6842 202.533L0.402044 199.231M11.6842 202.533L0.402043 202.533M30.9177 208.163L86.0011 208.163M30.9177 208.163L49.1704 213.506M30.9177 208.163L0.402043 208.163M83.0209 223.414L31.945 223.414M83.0209 223.414L98.7438 228.016M83.0209 223.414L134.096 223.414M83.0209 223.414L66.5164 218.583M31.945 223.414L48.8773 228.016M31.945 223.414L14.1713 218.583M31.945 223.414L0.402041 223.414M98.7438 228.016L48.8773 228.016M98.7438 228.016L148.609 228.016M98.7438 228.016L113.739 232.406M48.8773 228.016L65.0263 232.406M48.8773 228.016L0.402041 228.016M141.74 240.602L95.1811 240.602M141.74 240.602L154.832 244.434M141.74 240.602L188.298 240.602M141.74 240.602L128.056 236.596M95.1811 240.602L109.281 244.434M95.1811 240.602L80.4451 236.596M95.1811 240.602L48.623 240.602M154.832 244.434L109.281 244.434M154.832 244.434L200.384 244.434M154.832 244.434L167.37 248.104M109.281 244.434L122.783 248.104M109.281 244.434L63.7291 244.434M190.917 254.997L148.142 254.997M190.917 254.997L201.988 258.237M190.917 254.997L233.693 254.997M190.917 254.997L179.388 251.622M148.142 254.997L160.064 258.237M148.142 254.997L135.725 251.622M148.142 254.997L105.366 254.997M201.988 258.237L160.064 258.237M201.988 258.237L243.912 258.237M201.988 258.237L212.626 261.351M160.064 258.237L171.521 261.351M160.064 258.237L118.14 258.237M232.704 267.228L193.143 267.228M232.704 267.228L242.187 270.004M232.704 267.228L272.265 267.228M232.704 267.228L222.857 264.346M193.143 267.228L203.355 270.004M193.143 267.228L182.539 264.346M193.143 267.228L153.581 267.228M242.187 270.004L203.355 270.004M242.187 270.004L281.019 270.004M242.187 270.004L251.327 272.679M203.355 270.004L213.199 272.679M203.355 270.004L164.524 270.004M268.649 277.75L231.853 277.75M268.649 277.75L276.864 280.154M268.649 277.75L305.446 277.75M268.649 277.75L260.143 275.26M231.853 277.75L240.7 280.154M231.853 277.75L222.691 275.26M231.853 277.75L195.056 277.75M276.864 280.154L240.7 280.154M276.864 280.154L284.801 282.478M276.864 280.154L313.028 280.154M240.7 280.154L204.535 280.154M240.7 280.154L249.248 282.478M19.8152 254.997L34.2922 258.237M19.8152 254.997L62.5905 254.997M19.8152 254.997L4.73771 251.622M19.8152 254.997L0.402039 254.997M34.2922 258.237L76.216 258.237M34.2922 258.237L48.2037 261.351M34.2922 258.237L0.402038 258.237M74.4591 267.228L34.8979 267.228M74.4591 267.228L86.8604 270.004M74.4591 267.228L114.02 267.228M74.4591 267.228L61.5826 264.346M34.8979 267.228L48.0288 270.004M34.8979 267.228L21.264 264.346M34.8979 267.228L0.402038 267.228M86.8604 270.004L48.0288 270.004M86.8604 270.004L125.692 270.004M86.8604 270.004L98.813 272.679M48.0288 270.004L60.6843 272.679M48.0288 270.004L9.19709 270.004M121.464 277.75L84.6681 277.75M121.464 277.75L132.207 280.154M121.464 277.75L158.261 277.75M121.464 277.75L110.34 275.26M84.6681 277.75L96.0428 280.154M84.6681 277.75L72.8897 275.26M84.6681 277.75L47.8716 277.75M132.207 280.154L96.0428 280.154M132.207 280.154L142.586 282.478M132.207 280.154L168.371 280.154M96.0428 280.154L59.8779 280.154M96.0428 280.154L107.033 282.478M72.8897 275.26L60.6843 272.679M72.8897 275.26L35.4385 275.26M72.8897 275.26L110.34 275.26M47.8716 277.75L59.8779 280.154M47.8716 277.75L35.4385 275.26M47.8716 277.75L11.076 277.75M59.8779 280.154L23.7138 280.154M59.8779 280.154L71.4789 282.478M107.033 282.478L142.586 282.478M107.033 282.478L71.4789 282.478M107.033 282.478L117.658 284.724M35.4385 275.26L22.555 272.679M35.4385 275.26L0.402037 275.26M11.076 277.75L23.7138 280.154M11.076 277.75L0.402037 275.719M11.076 277.75L0.402037 277.75M23.7138 280.154L35.9253 282.478M23.7138 280.154L0.402037 280.154M71.4789 282.478L35.9253 282.478M71.4789 282.478L82.6942 284.724M35.9253 282.478L47.7309 284.724M35.9253 282.478L0.402036 282.478M60.6843 272.679L22.555 272.679M60.6843 272.679L98.813 272.679M9.19709 270.004L22.555 272.679M9.19709 270.004L0.402038 268.243M9.19709 270.004L0.402037 270.004M22.555 272.679L0.402037 272.679M98.813 272.679L136.942 272.679M98.813 272.679L110.34 275.26M110.34 275.26L147.791 275.26M21.264 264.346L7.09808 261.351M21.264 264.346L61.5826 264.346M21.264 264.346L0.402038 264.346M0.28147 267.228L0.402038 267.228M7.09808 261.351L48.2037 261.351M7.09808 261.351L0.402038 259.936M7.09808 261.351L0.402038 261.351M48.2037 261.351L89.3094 261.351M48.2037 261.351L61.5826 264.346M61.5826 264.346L101.901 264.346M222.691 275.26L213.199 272.679M222.691 275.26L185.241 275.26M222.691 275.26L260.143 275.26M195.056 277.75L204.535 280.154M195.056 277.75L185.241 275.26M195.056 277.75L158.261 277.75M204.535 280.154L168.371 280.154M204.535 280.154L213.694 282.478M249.248 282.478L213.694 282.478M249.248 282.478L257.512 284.724M249.248 282.478L284.801 282.478M185.241 275.26L175.07 272.679M185.241 275.26L147.791 275.26M158.261 277.75L168.371 280.154M158.261 277.75L147.791 275.26M168.371 280.154L178.14 282.478M213.694 282.478L178.14 282.478M213.694 282.478L222.548 284.724M147.791 275.26L136.942 272.679M142.586 282.478L178.14 282.478M142.586 282.478L152.622 284.724M178.14 282.478L187.585 284.724M213.199 272.679L175.07 272.679M213.199 272.679L251.327 272.679M164.524 270.004L175.07 272.679M164.524 270.004L153.581 267.228M164.524 270.004L125.692 270.004M175.07 272.679L136.942 272.679M251.327 272.679L289.456 272.679M251.327 272.679L260.143 275.26M136.942 272.679L125.692 270.004M260.143 275.26L297.593 275.26M153.581 267.228L142.22 264.346M153.581 267.228L114.02 267.228M125.692 270.004L114.02 267.228M114.02 267.228L101.901 264.346M182.539 264.346L171.521 261.351M182.539 264.346L142.22 264.346M182.539 264.346L222.857 264.346M142.22 264.346L130.415 261.351M142.22 264.346L101.901 264.346M101.901 264.346L89.3094 261.351M171.521 261.351L130.415 261.351M171.521 261.351L212.626 261.351M118.14 258.237L130.415 261.351M118.14 258.237L105.366 254.997M118.14 258.237L76.216 258.237M130.415 261.351L89.3094 261.351M212.626 261.351L253.732 261.351M212.626 261.351L222.857 264.346M89.3094 261.351L76.216 258.237M222.857 264.346L263.176 264.346M105.366 254.997L92.0625 251.622M105.366 254.997L62.5905 254.997M76.216 258.237L62.5905 254.997M62.5905 254.997L48.4005 251.622M135.725 251.622L122.783 248.104M135.725 251.622L92.0625 251.622M135.725 251.622L179.388 251.622M92.0625 251.622L78.196 248.104M92.0625 251.622L48.4005 251.622M48.4005 251.622L33.6093 248.104M48.4005 251.622L4.73771 251.622M4.73771 251.622L0.402039 251.622M4.73771 251.622L0.402039 250.652M122.783 248.104L78.196 248.104M122.783 248.104L167.37 248.104M63.7291 244.434L78.196 248.104M63.7291 244.434L48.623 240.602M63.7291 244.434L18.1781 244.434M78.196 248.104L33.6093 248.104M167.37 248.104L211.957 248.104M167.37 248.104L179.388 251.622M33.6093 248.104L18.1781 244.434M33.6093 248.104L0.402039 248.104M179.388 251.622L223.05 251.622M48.623 240.602L32.834 236.596M48.623 240.602L2.06473 240.602M18.1781 244.434L2.06473 240.602M18.1781 244.434L0.40204 244.434M0.168689 248.104L0.402039 248.104M2.06473 240.602L0.40204 240.207M2.06473 240.602L0.40204 240.602M80.4451 236.596L65.0263 232.406M80.4451 236.596L32.834 236.596M80.4451 236.596L128.056 236.596M32.834 236.596L16.3139 232.406M32.834 236.596L0.40204 236.596M-9.03942e-06 240.111L0.40204 240.207M65.0263 232.406L16.3139 232.406M65.0263 232.406L113.739 232.406M16.3139 232.406L0.402041 232.406M16.3139 232.406L0.402041 228.369M113.739 232.406L162.451 232.406M113.739 232.406L128.056 236.596M128.056 236.596L175.667 236.597M14.1713 218.583L66.5164 218.583M14.1713 218.583L0.402042 214.841M14.1713 218.583L0.402042 218.583M0.0232515 223.414L0.402041 223.414M66.5164 218.583L118.861 218.583M66.5164 218.583L49.1704 213.506M0.250431 214.8L0.402042 214.841M372.494 275.26L365.713 272.679M372.494 275.26L335.044 275.26M372.494 275.26L409.944 275.26M342.242 277.75L349.192 280.154M342.242 277.75L335.044 275.26M342.242 277.75L305.446 277.75M349.192 280.154L313.028 280.154M349.192 280.154L355.909 282.478M391.462 282.478L355.909 282.478M391.462 282.478L393.7 283.329L397.366 284.724M391.462 282.478L427.017 282.478M335.044 275.26L327.585 272.679M335.044 275.26L297.593 275.26M305.446 277.75L313.028 280.154M305.446 277.75L297.593 275.26M313.028 280.154L320.355 282.478M355.909 282.478L320.355 282.478M355.909 282.478L362.402 284.724M297.593 275.26L289.456 272.679M284.801 282.478L292.475 284.724M284.801 282.478L320.355 282.478M320.355 282.478L321.253 282.763L323.04 283.329L327.438 284.724M365.713 272.679L327.585 272.679M365.713 272.679L403.842 272.679M319.851 270.004L327.585 272.679M319.851 270.004L311.827 267.228M319.851 270.004L281.019 270.004M327.585 272.679L289.456 272.679M403.842 272.679L441.97 272.679M403.842 272.679L409.944 275.26M289.456 272.679L281.019 270.004M409.944 275.26L447.396 275.26M311.827 267.228L303.494 264.346M311.827 267.228L272.265 267.228M281.019 270.004L279.942 269.663L272.265 267.228M272.265 267.228L263.176 264.346M343.813 264.346L342.846 263.978L335.943 261.351M343.813 264.346L303.494 264.346M343.813 264.346L384.132 264.346M303.494 264.346L294.838 261.351M303.494 264.346L263.176 264.346M263.176 264.346L253.732 261.351M335.943 261.351L294.838 261.351M335.943 261.351L377.049 261.351M285.836 258.237L294.838 261.351M285.836 258.237L276.468 254.997M285.836 258.237L243.912 258.237M294.838 261.351L253.732 261.351M377.049 261.351L418.155 261.351M377.049 261.351L384.132 264.346M253.732 261.351L243.912 258.237M384.132 264.346L424.45 264.346M276.468 254.997L266.713 251.622M276.468 254.997L233.693 254.997M243.912 258.237L233.693 254.997M233.693 254.997L223.05 251.622M310.375 251.622L301.131 248.104M310.375 251.622L266.713 251.622M310.375 251.622L354.037 251.622M266.713 251.622L256.543 248.104M266.713 251.622L223.05 251.622M223.05 251.622L211.957 248.104M301.131 248.104L256.543 248.104M301.131 248.104L345.718 248.104M245.935 244.434L256.543 248.104M245.935 244.434L234.857 240.602M245.935 244.434L200.384 244.434M256.543 248.104L211.957 248.104M345.718 248.104L390.304 248.104M345.718 248.104L354.037 251.622M211.957 248.104L200.384 244.434M354.037 251.622L397.7 251.622M234.857 240.602L223.278 236.597M234.857 240.602L188.298 240.602M200.384 244.434L188.298 240.602M188.298 240.602L175.667 236.597M270.889 236.597L259.876 232.406M270.889 236.597L223.278 236.597M270.889 236.597L318.5 236.597M223.278 236.597L211.164 232.406M223.278 236.597L175.667 236.597M175.667 236.597L162.451 232.406M259.876 232.406L211.164 232.406M259.876 232.406L308.588 232.406M198.475 228.016L211.164 232.406M198.475 228.016L185.172 223.414M198.475 228.016L148.609 228.016M211.164 232.406L162.451 232.406M308.588 232.406L357.301 232.406M308.588 232.406L318.5 236.597M162.451 232.406L148.609 228.016M318.5 236.597L366.111 236.597M185.172 223.414L171.207 218.583M185.172 223.414L134.096 223.414M148.609 228.016L134.096 223.414M134.096 223.414L118.861 218.583M223.551 218.583L210.209 213.506M223.551 218.583L171.207 218.583M223.551 218.583L275.896 218.583M171.207 218.583L156.529 213.506M171.207 218.583L118.861 218.583M118.861 218.583L102.85 213.506M210.209 213.506L156.529 213.506M210.209 213.506L263.887 213.506M141.084 208.163L156.529 213.506M141.084 208.163L124.809 202.533M141.084 208.163L86.0011 208.163M156.529 213.506L102.85 213.506M263.887 213.506L317.567 213.506M263.887 213.506L275.896 218.583M102.85 213.506L86.0011 208.163M102.85 213.506L49.1704 213.506M275.896 218.583L328.241 218.583M124.809 202.533L107.637 196.592M124.809 202.533L68.2468 202.533M86.0011 208.163L68.2468 202.533M49.1704 213.506L0.402042 213.506M68.2468 202.533L49.5126 196.592M165.76 196.592L149.263 190.315M165.76 196.592L107.637 196.592M165.76 196.592L223.884 196.592M107.637 196.592L89.4891 190.315M107.637 196.592L49.5126 196.592M49.5126 196.592L29.7154 190.315M49.5126 196.592L0.402044 196.592M149.263 190.315L89.4891 190.315M149.263 190.315L209.037 190.315M70.2805 183.67L89.4891 190.315M70.2805 183.67L49.9163 176.625M70.2805 183.67L8.76087 183.67M89.4891 190.315L29.7154 190.315M209.037 190.315L268.81 190.315M209.037 190.315L223.884 196.592M29.7154 190.315L8.76087 183.67M29.7154 190.315L0.402044 190.315M223.884 196.592L282.009 196.592M49.9163 176.625L28.2883 169.143M49.9163 176.625L0.402046 176.625M8.76087 183.67L0.402045 183.67M8.76087 183.67L0.402045 181.019M93.6257 169.143L72.7054 161.182M93.6257 169.143L28.2883 169.143M93.6257 169.143L158.963 169.143M28.2883 169.143L5.27591 161.182M28.2883 169.143L0.402046 169.143M72.7054 161.182L5.27591 161.182M72.7054 161.182L140.135 161.182M5.27591 161.182L0.402047 159.497M5.27591 161.182L0.402047 161.182M140.135 161.182L207.564 161.182M140.135 161.182L158.963 169.143M158.963 169.143L224.301 169.143M1.04988 133.916L75.6451 133.916M1.04988 133.916L0.402049 133.916M1.04988 133.916L0.402049 133.67M75.6451 133.916L150.24 133.916M75.6451 133.916L50.9903 123.492M522.297 275.26L520.788 274.303L520.281 273.981L518.228 272.679M522.297 275.26L484.846 275.26M522.297 275.26L559.747 275.26M489.427 277.75L492.759 279.561L493.85 280.154M489.427 277.75L485.427 275.576L484.846 275.26M489.427 277.75L452.63 277.75M493.85 280.154L457.686 280.154M493.85 280.154L498.124 282.478M533.678 282.478L498.124 282.478M533.678 282.478L535.02 283.329L537.219 284.724M533.678 282.478L569.231 282.478M484.846 275.26L483.675 274.623L480.099 272.679M484.846 275.26L447.396 275.26M452.63 277.75L457.686 280.154M452.63 277.75L447.396 275.26M457.686 280.154L461.365 281.904L462.57 282.478M498.124 282.478L462.57 282.478M498.124 282.478L502.256 284.724M447.396 275.26L441.97 272.679M427.017 282.478L427.69 282.763L432.329 284.724M427.017 282.478L462.57 282.478M462.57 282.478L464.36 283.329L467.293 284.724M518.228 272.679L480.099 272.679M518.228 272.679L556.357 272.679M475.178 270.004L480.099 272.679M475.178 270.004L470.071 267.228M475.178 270.004L436.346 270.004M480.099 272.679L441.97 272.679M556.357 272.679L594.486 272.679M556.357 272.679L559.747 275.26M441.97 272.679L436.346 270.004M559.747 275.26L597.197 275.26M470.071 267.228L466.782 265.439L466.114 265.077L464.77 264.346M470.071 267.228L430.51 267.228M436.346 270.004L430.51 267.228M430.51 267.228L424.45 264.346M505.088 264.346L500.366 261.351M505.088 264.346L464.77 264.346M505.088 264.346L545.407 264.346M464.77 264.346L459.26 261.351M464.77 264.346L424.45 264.346M424.45 264.346L418.155 261.351M500.366 261.351L459.26 261.351M500.366 261.351L541.472 261.351M453.532 258.237L457.139 260.198L457.849 260.584L459.26 261.351M453.532 258.237L447.571 254.997M453.532 258.237L411.608 258.237M459.26 261.351L418.155 261.351M541.472 261.351L582.577 261.351M541.472 261.351L545.407 264.346M418.155 261.351L411.608 258.237M545.407 264.346L585.726 264.346M447.571 254.997L441.362 251.622M447.571 254.997L404.795 254.997M411.608 258.237L404.795 254.997M404.795 254.997L397.7 251.622M485.025 251.622L482.28 249.882L481.586 249.441L479.478 248.104M485.025 251.622L441.362 251.622M485.025 251.622L528.688 251.622M441.362 251.622L434.892 248.104M441.362 251.622L397.7 251.622M397.7 251.622L390.304 248.104M479.478 248.104L434.892 248.104M479.478 248.104L524.065 248.104M428.14 244.434L434.892 248.104M428.14 244.434L421.091 240.602M428.14 244.434L382.589 244.434M434.892 248.104L390.304 248.104M524.065 248.104L568.653 248.104M524.065 248.104L525.239 248.997L528.688 251.622M390.304 248.104L382.589 244.434M528.688 251.622L572.35 251.622M421.091 240.602L413.723 236.597M421.091 240.602L374.532 240.602M382.589 244.434L374.532 240.602M374.532 240.602L366.111 236.597M461.334 236.597L454.726 232.406M461.334 236.597L413.723 236.597M461.334 236.597L508.945 236.597M413.723 236.597L406.013 232.406M413.723 236.597L366.111 236.597M366.111 236.597L357.301 232.406M454.726 232.406L406.013 232.406M454.726 232.406L503.438 232.406M397.939 228.016L406.013 232.406M397.939 228.016L389.473 223.414M397.939 228.016L348.073 228.016M406.013 232.406L357.301 232.406M503.438 232.406L552.15 232.406M503.438 232.406L508.945 236.597M357.301 232.406L348.073 228.016M508.945 236.597L556.555 236.597M389.473 223.414L380.586 218.583M389.473 223.414L338.397 223.414M348.073 228.016L338.397 223.414M338.397 223.414L328.241 218.583M432.93 218.583L424.925 213.506M432.93 218.583L380.586 218.583M432.93 218.583L485.275 218.583M380.586 218.583L371.246 213.506M380.586 218.583L328.241 218.583M328.241 218.583L317.567 213.506M424.925 213.506L371.246 213.506M424.925 213.506L478.604 213.506M361.417 208.163L371.246 213.506M361.417 208.163L351.06 202.533M361.417 208.163L306.334 208.163M371.246 213.506L317.567 213.506M478.604 213.506L532.283 213.506M478.604 213.506L485.275 218.583M317.567 213.506L306.334 208.163M485.275 218.583L537.62 218.583M351.06 202.533L340.132 196.592M351.06 202.533L294.498 202.533M306.334 208.163L294.498 202.533M294.498 202.533L282.009 196.592M398.256 196.592L388.358 190.315M398.256 196.592L340.132 196.592M398.256 196.592L456.381 196.592M340.132 196.592L328.584 190.315M340.132 196.592L282.009 196.592M282.009 196.592L268.81 190.315M388.358 190.315L328.584 190.315M388.358 190.315L448.131 190.315M316.361 183.67L328.584 190.315M316.361 183.67L303.401 176.625M316.361 183.67L254.84 183.67M328.584 190.315L268.81 190.315M448.131 190.315L507.905 190.315M448.131 190.315L456.381 196.592M268.81 190.315L254.84 183.67M456.381 196.592L514.504 196.592M303.401 176.625L289.638 169.143M303.401 176.625L240.03 176.625M254.84 183.67L240.03 176.625M240.03 176.625L224.301 169.143M354.975 169.143L342.423 161.182M354.975 169.143L289.638 169.143M354.975 169.143L420.313 169.143M289.638 169.143L274.994 161.182M289.638 169.143L224.301 169.143M224.301 169.143L207.564 161.182M342.423 161.182L274.994 161.182M342.423 161.182L409.853 161.182M259.381 152.695L274.994 161.182M259.381 152.695L242.699 143.627M259.381 152.695L189.72 152.695M274.994 161.182L207.564 161.182M409.853 161.182L477.282 161.182M409.853 161.182L420.313 169.143M207.564 161.182L189.72 152.695M420.313 169.143L485.65 169.143M242.699 143.627L224.835 133.916M242.699 143.627L170.655 143.627M189.72 152.695L170.655 143.627M170.655 143.627L150.24 133.916M299.43 133.916L282.994 123.492M299.43 133.916L224.835 133.916M299.43 133.916L374.025 133.916M224.835 133.916L205.66 123.492M224.835 133.916L150.24 133.916M150.24 133.916L128.325 123.492M282.994 123.492L205.66 123.492M282.994 123.492L360.328 123.492M185.022 112.273L205.66 123.492M185.022 112.273L162.748 100.165M185.022 112.273L104.739 112.273M205.66 123.492L128.325 123.492M360.328 123.492L437.663 123.492M360.328 123.492L374.025 133.916M128.325 123.492L104.739 112.273M128.325 123.492L50.9903 123.492M374.025 133.916L448.62 133.916M162.748 100.165L138.636 87.0578M162.748 100.165L79.284 100.165M104.739 112.273L79.284 100.165M50.9903 123.492L0.40205 123.492M79.284 100.165L51.7268 87.0578M79.284 100.165L0.402052 100.165M225.546 87.0578L203.099 72.8219M225.546 87.0578L138.636 87.0578M225.546 87.0578L312.454 87.0578M138.636 87.0578L112.449 72.8219M138.636 87.0578L51.7268 87.0578M51.7268 87.0578L21.7983 72.8219M51.7268 87.0578L0.402053 87.0578M203.099 72.8219L112.449 72.8219M203.099 72.8219L293.749 72.8219M83.9044 57.3054L112.449 72.8219M83.9044 57.3054L52.6717 40.3272M83.9044 57.3054L0.402056 57.3054M112.449 72.8219L21.7983 72.8219M293.749 72.8219L384.399 72.8219M293.749 72.8219L312.454 87.0578M21.7983 72.8219L0.402055 72.8219M21.7983 72.8219L0.402056 62.6445M312.454 87.0578L399.364 87.0578M52.6717 40.3272L18.3515 21.6702M52.6717 40.3272L0.402057 40.3272M122.444 21.6702L89.9674 1.07287M122.444 21.6702L18.3515 21.6702M122.444 21.6702L226.536 21.6702M18.3515 21.6702L0.40206 11.9125M18.3515 21.6702L0.402059 21.6702M89.9674 1.07287L199.473 1.07288M89.9674 1.07287L0.402061 1.07324M199.473 1.07288L308.978 1.07289M199.473 1.07288L226.536 21.6702M226.536 21.6702L330.629 21.6702M672.099 275.26L671.932 274.942L671.765 274.624L671.596 274.303L671.427 273.981L670.915 273.007L670.743 272.679M672.099 275.26L634.648 275.26M672.099 275.26L709.549 275.26M636.612 277.75L638.039 279.561L638.507 280.154M636.612 277.75L635.392 276.204L634.648 275.26M636.612 277.75L599.815 277.75M638.507 280.154L602.343 280.154M638.507 280.154L639.887 281.904L640.339 282.478M675.893 282.478L676.042 282.763L676.635 283.891L677.073 284.724M675.893 282.478L640.339 282.478M675.893 282.478L711.446 282.478M634.648 275.26L634.398 274.942L634.146 274.624L633.894 274.303L633.64 273.981L632.614 272.679M634.648 275.26L597.197 275.26M599.815 277.75L601.719 279.561L602.343 280.154M599.815 277.75L597.197 275.26M602.343 280.154L603.575 281.326L604.485 282.192L604.785 282.478M640.339 282.478L640.563 282.763L641.01 283.329L641.453 283.891L641.672 284.17L642.11 284.724M640.339 282.478L604.785 282.478M597.197 275.26L595.172 273.333L594.486 272.679M569.231 282.478L571.454 284.17L572.183 284.724M569.231 282.478L604.785 282.478M604.785 282.478L606.855 284.447L607.147 284.724M670.743 272.679L632.614 272.679M670.743 272.679L708.871 272.679M630.505 270.004L632.614 272.679M630.505 270.004L628.317 267.228M630.505 270.004L591.673 270.004M632.614 272.679L594.486 272.679M708.871 272.679L747 272.679M708.871 272.679L709.549 275.26M594.486 272.679L591.673 270.004M709.549 275.26L747 275.26M628.317 267.228L627.756 266.518L626.906 265.44L626.044 264.346M628.317 267.228L588.755 267.228M591.673 270.004L591.314 269.663L588.755 267.228M588.755 267.228L588.383 266.874L588.008 266.518L587.632 266.16L585.726 264.346M666.363 264.346L664.789 261.351M666.363 264.346L626.044 264.346M666.363 264.346L706.681 264.346M626.044 264.346L623.683 261.351M626.044 264.346L585.726 264.346M585.726 264.346L583.376 262.111L582.977 261.732L582.577 261.351M664.789 261.351L623.683 261.351M664.789 261.351L705.894 261.351M621.228 258.237L620.914 257.839L620.599 257.439L620.282 257.037L618.673 254.997M621.228 258.237L622.467 259.81L622.774 260.198L623.078 260.584L623.683 261.351M621.228 258.237L579.304 258.237M623.683 261.351L582.577 261.351M705.894 261.351L747 261.351M705.894 261.351L706.681 264.346M582.577 261.351L579.304 258.237M706.681 264.346L747 264.346M618.673 254.997L616.351 252.051L616.013 251.622M618.673 254.997L575.898 254.997M579.304 258.237L578.465 257.439L575.898 254.997M575.898 254.997L574.584 253.748L572.35 251.622M659.675 251.622L658.76 249.882L658.529 249.441L657.826 248.104M659.675 251.622L616.013 251.622M659.675 251.622L703.337 251.622M616.013 251.622L613.239 248.104M616.013 251.622L572.35 251.622M572.35 251.622L568.653 248.104M657.826 248.104L613.239 248.104M657.826 248.104L702.413 248.104M610.346 244.434L613.239 248.104M610.346 244.434L607.325 240.602M610.346 244.434L564.794 244.434M613.239 248.104L568.653 248.104M702.413 248.104L747 248.104M702.413 248.104L702.648 248.997L703.11 250.756L703.337 251.622M568.653 248.104L564.794 244.434M703.337 251.622L747 251.622M607.325 240.602L604.97 237.615L604.166 236.597M607.325 240.602L560.766 240.602M564.794 244.434L560.766 240.602M560.766 240.602L558.685 238.622L556.555 236.597M651.778 236.597L649.575 232.406M651.778 236.597L604.166 236.597M651.778 236.597L699.389 236.597M604.166 236.597L600.863 232.406M604.166 236.597L556.555 236.597M556.555 236.597L552.15 232.406M649.575 232.406L600.863 232.406M649.575 232.406L698.288 232.406M597.402 228.016L598.283 229.133L600.863 232.406M597.402 228.016L593.774 223.414M597.402 228.016L547.536 228.016M600.863 232.406L552.15 232.406M698.288 232.406L747 232.406M698.288 232.406L699.389 236.597M552.15 232.406L547.536 228.016M699.389 236.597L747 236.597M593.774 223.414L589.966 218.583M593.774 223.414L542.699 223.414M547.536 228.016L542.699 223.414M542.699 223.414L537.62 218.583M642.31 218.583L639.642 213.506M642.31 218.583L589.966 218.583M642.31 218.583L694.655 218.583M589.966 218.583L585.963 213.506M589.966 218.583L537.62 218.583M537.62 218.583L532.283 213.506M639.642 213.506L585.963 213.506M639.642 213.506L693.321 213.506M581.75 208.163L585.963 213.506M581.75 208.163L577.311 202.533M581.75 208.163L526.667 208.163M585.963 213.506L532.283 213.506M693.321 213.506L747 213.506M693.321 213.506L694.492 217.962L694.655 218.583M532.283 213.506L526.667 208.163M694.655 218.583L747 218.583M577.311 202.533L572.628 196.592M577.311 202.533L520.749 202.533M526.667 208.163L522.258 203.969L520.749 202.533M520.749 202.533L514.504 196.592M630.752 196.592L627.453 190.315M630.752 196.592L572.628 196.592M630.752 196.592L688.876 196.592M572.628 196.592L567.679 190.315M572.628 196.592L514.504 196.592M514.504 196.592L507.905 190.315M627.453 190.315L567.679 190.315M627.453 190.315L687.226 190.315M562.44 183.67L567.679 190.315M562.44 183.67L556.887 176.625M562.44 183.67L500.921 183.67M567.679 190.315L507.905 190.315M687.226 190.315L747 190.315M687.226 190.315L688.876 196.592M507.905 190.315L500.921 183.67M688.876 196.592L747 196.592M556.887 176.625L550.988 169.143M556.887 176.625L493.515 176.625M500.921 183.67L493.515 176.625M493.515 176.625L485.65 169.143M616.325 169.143L612.141 161.183M616.325 169.143L550.988 169.143M616.325 169.143L681.663 169.143M550.988 169.143L544.712 161.183M550.988 169.143L485.65 169.143M485.65 169.143L477.282 161.182M612.141 161.183L544.712 161.183M612.141 161.183L679.571 161.183M538.02 152.695L544.712 161.183M538.02 152.695L530.871 143.627M538.02 152.695L468.36 152.695M544.712 161.183L477.282 161.182M679.571 161.183L747 161.183M679.571 161.183L681.663 169.143M477.282 161.182L468.36 152.695M681.663 169.143L747 169.143M530.871 143.627L523.215 133.916M530.871 143.627L458.828 143.627M468.36 152.695L458.828 143.627M458.828 143.627L448.62 133.916M597.81 133.916L592.331 123.492M597.81 133.916L523.215 133.916M597.81 133.916L672.405 133.916M523.215 133.916L514.997 123.492M523.215 133.916L448.62 133.916M448.62 133.916L437.663 123.492M592.331 123.492L514.997 123.492M592.331 123.492L669.666 123.492M506.152 112.273L514.997 123.492M506.152 112.273L496.607 100.165M506.152 112.273L425.87 112.273M514.997 123.492L437.663 123.492M669.666 123.492L747 123.492M669.666 123.492L672.405 133.916M437.663 123.492L425.87 112.273M672.405 133.916L747 133.916M496.607 100.165L486.272 87.0578M496.607 100.165L413.142 100.165M425.87 112.273L413.142 100.165M413.142 100.165L399.364 87.0578M573.182 87.0578L565.7 72.8219M573.182 87.0578L486.272 87.0578M573.182 87.0578L660.091 87.0578M486.272 87.0578L475.049 72.8219M486.272 87.0578L399.364 87.0578M399.364 87.0578L384.399 72.8219M565.7 72.8219L475.049 72.8219M565.7 72.8219L656.35 72.8219M462.816 57.3054L475.049 72.8219M462.816 57.3054L449.431 40.3272M462.816 57.3054L368.088 57.3054M475.049 72.8219L384.399 72.8219M656.35 72.8219L747 72.8219M656.35 72.8219L660.091 87.0578M384.399 72.8219L368.088 57.3054M660.091 87.0578L747 87.0578M449.431 40.3272L434.722 21.6702M449.431 40.3272L350.241 40.3272M368.088 57.3054L350.241 40.3272M350.241 40.3272L330.629 21.6702M538.815 21.6703L527.989 1.07291M538.815 21.6703L434.722 21.6702M538.815 21.6703L642.907 21.6703M434.722 21.6702L418.484 1.0729M434.722 21.6702L330.629 21.6702M330.629 21.6702L308.978 1.07289M418.484 1.0729L527.989 1.07291M418.484 1.0729L308.978 1.07289M527.989 1.07291L637.494 1.07292M637.494 1.07292L747 1.07293M637.494 1.07292L642.907 21.6703M642.907 21.6703L747 21.6703M821.901 275.26L822.068 274.942L822.235 274.624L822.404 274.303L822.573 273.981L822.913 273.333L823.085 273.007L823.257 272.679M821.901 275.26L784.45 275.26M821.901 275.26L859.352 275.26M783.796 277.75L783.164 280.155M783.796 277.75L784.45 275.26M783.796 277.75L747 277.75M783.164 280.155L783.087 280.449L783.009 280.743L782.933 281.035L782.554 282.478M783.164 280.155L747 280.155M818.107 282.478L817.958 282.763L817.365 283.891L816.927 284.724M818.107 282.478L782.554 282.478M818.107 282.478L853.661 282.478M784.45 275.26L784.534 274.942L784.618 274.624L784.702 274.303L785.129 272.679M784.45 275.26L747 275.26M747 277.75L747 280.155M747 277.75L747 275.26M747 280.155L747 282.478M782.554 282.478L747 282.478M782.554 282.478L782.33 283.329L782.256 283.61L781.963 284.724M747 275.26L747 272.679M711.446 282.478L711.669 283.329L711.744 283.61L711.817 283.891L711.891 284.17L711.963 284.447L712.037 284.724M711.446 282.478L747 282.478M747 282.478L747 284.724M823.257 272.679L785.129 272.679M823.257 272.679L861.386 272.679M785.832 270.004L785.922 269.663L786.011 269.32L786.561 267.228M785.832 270.004L785.129 272.679M785.832 270.004L747 270.004M785.129 272.679L747 272.679M861.386 272.679L899.514 272.679M861.386 272.679L860.871 273.333L860.614 273.658L860.36 273.981L860.106 274.303L859.854 274.624L859.602 274.942L859.352 275.26M747 272.679L747 270.004M859.352 275.26L896.802 275.26M786.561 267.228L787.319 264.346M786.561 267.228L747 267.228M747 270.004L747 267.228M747 267.228L747 264.346M827.637 264.346L829.211 261.351M827.637 264.346L787.319 264.346M827.637 264.346L867.956 264.346M787.319 264.346L788.106 261.351M787.319 264.346L747 264.346M747 264.346L747 261.351M829.211 261.351L788.106 261.351M829.211 261.351L870.317 261.351M788.924 258.237L788.106 261.351M788.924 258.237L789.775 254.997M788.924 258.237L747 258.237M788.106 261.351L747 261.351M870.317 261.351L911.423 261.351M870.317 261.351L867.956 264.346M747 261.351L747 258.237M867.956 264.346L908.274 264.346M789.775 254.997L790.104 253.748L790.437 252.479L790.663 251.622M789.775 254.997L747 254.997M747 258.237L747 254.997M747 254.997L747 251.622M834.325 251.622L835.24 249.882L835.471 249.441L836.174 248.104M834.325 251.622L790.663 251.622M834.325 251.622L877.987 251.622M790.663 251.622L790.89 250.756L791.352 248.997L791.587 248.104M790.663 251.622L747 251.622M747 251.622L747 248.104M836.174 248.104L791.587 248.104M836.174 248.104L880.761 248.104M792.551 244.434L792.429 244.902L791.587 248.104M792.551 244.434L793.558 240.602M792.551 244.434L747 244.434M791.587 248.104L747 248.104M880.761 248.104L925.347 248.104M880.761 248.104L877.987 251.622M747 248.104L747 244.434M877.987 251.622L921.65 251.622M793.558 240.602L794.611 236.597M793.558 240.602L747 240.602M747 244.434L747 240.602M747 240.602L747 236.597M842.222 236.597L844.425 232.406M842.222 236.597L794.611 236.597M842.222 236.597L889.833 236.597M794.611 236.597L795.712 232.406M794.611 236.597L747 236.597M747 236.597L747 232.406M844.425 232.406L795.712 232.406M844.425 232.406L893.137 232.406M796.866 228.017L795.712 232.406M796.866 228.017L798.075 223.414M796.866 228.017L747 228.017M795.712 232.406L747 232.406M893.137 232.406L941.85 232.406M893.137 232.406L889.833 236.597M747 232.406L747 228.017M889.833 236.597L937.445 236.597M798.075 223.414L799.345 218.583M798.075 223.414L747 223.414M747 228.017L747 223.414M747 223.414L747 218.583M851.69 218.583L854.358 213.506M851.69 218.583L799.345 218.583M851.69 218.583L904.034 218.583M799.345 218.583L800.679 213.506M799.345 218.583L747 218.583M747 218.583L747 213.506M854.358 213.506L800.679 213.506M854.358 213.506L908.037 213.506M802.083 208.163L800.679 213.506M802.083 208.163L803.563 202.533M802.083 208.163L747 208.163M800.679 213.506L747 213.506M908.037 213.506L961.717 213.506M908.037 213.506L904.034 218.583M747 213.506L747 208.163M904.034 218.583L956.379 218.583M803.563 202.533L805.124 196.592M803.563 202.533L747 202.533M747 208.163L747 202.533M747 202.533L747 196.592M863.248 196.592L866.547 190.315M863.248 196.592L805.124 196.592M863.248 196.592L921.372 196.592M805.124 196.592L806.774 190.315M805.124 196.592L747 196.592M747 196.592L747 190.315M866.547 190.315L806.774 190.315M866.547 190.315L926.321 190.315M808.52 183.67L806.774 190.315M808.52 183.67L810.371 176.625M808.52 183.67L747 183.67M806.774 190.315L747 190.315M926.321 190.315L986.095 190.315M926.321 190.315L921.372 196.592M747 190.315L747 183.67M921.372 196.592L979.496 196.592M810.371 176.625L812.337 169.143M810.371 176.625L747 176.625M747 183.67L747 176.625M747 176.625L747 169.143M877.675 169.143L881.859 161.183M877.675 169.143L812.337 169.143M877.675 169.143L943.012 169.143M812.337 169.143L814.429 161.183M812.337 169.143L747 169.143M747 169.143L747 161.183M881.859 161.183L814.429 161.183M881.859 161.183L949.288 161.183M816.66 152.695L814.429 161.183M816.66 152.695L819.043 143.627M816.66 152.695L747 152.695M814.429 161.183L747 161.183M949.288 161.183L1016.72 161.183M949.288 161.183L943.012 169.143M747 161.183L747 152.695M943.012 169.143L1008.35 169.143M819.043 143.627L821.595 133.916M819.043 143.627L747 143.627M747 152.695L747 143.627M747 143.627L747 133.916M896.19 133.916L901.669 123.492M896.19 133.916L821.595 133.916M896.19 133.916L970.785 133.916M821.595 133.916L824.334 123.492M821.595 133.916L747 133.916M747 133.916L747 123.492M901.669 123.492L824.334 123.492M901.669 123.492L979.003 123.492M827.283 112.273L824.334 123.492M827.283 112.273L830.464 100.165M827.283 112.273L747 112.273M824.334 123.492L747 123.492M979.003 123.492L1056.34 123.492M979.003 123.492L970.785 133.916M747 123.492L747 112.273M970.785 133.916L1045.38 133.916M830.464 100.165L833.909 87.0578M830.464 100.165L747 100.165M747 112.273L747 100.165M747 100.165L747 87.0578M920.818 87.0578L928.3 72.822M920.818 87.0578L833.909 87.0578M920.818 87.0578L1007.73 87.0578M833.909 87.0578L837.65 72.822M833.909 87.0578L747 87.0578M747 87.0578L747 72.8219M928.3 72.822L837.65 72.822M928.3 72.822L1018.95 72.822M841.728 57.3054L837.65 72.822M841.728 57.3054L846.189 40.3272M841.728 57.3054L747 57.3054M837.65 72.822L747 72.8219M1018.95 72.822L1109.6 72.822M1018.95 72.822L1007.73 87.0578M747 72.8219L747 57.3054M1007.73 87.0578L1094.64 87.0578M846.189 40.3272L851.093 21.6703M846.189 40.3272L747 40.3272M747 57.3054L747 40.3272M747 40.3272L747 21.6703M955.185 21.6703L966.011 1.07295M955.185 21.6703L851.093 21.6703M955.185 21.6703L1059.28 21.6703M851.093 21.6703L856.506 1.07294M851.093 21.6703L747 21.6703M747 21.6703L747 1.07293M856.506 1.07294L966.011 1.07295M856.506 1.07294L747 1.07293M966.011 1.07295L1075.52 1.07296M1075.52 1.07296L1185.02 1.07297M1075.52 1.07296L1059.28 21.6703M1059.28 21.6703L1163.37 21.6703M971.703 275.26L973.719 273.981L975.772 272.679M971.703 275.26L934.253 275.26M971.703 275.26L1009.15 275.26M930.981 277.75L927.821 280.155M930.981 277.75L934.253 275.26M930.981 277.75L894.185 277.75M927.821 280.155L891.657 280.155M927.821 280.155L925.522 281.904L924.769 282.478M960.322 282.478L924.769 282.478M960.322 282.478L958.98 283.329L956.781 284.724M960.322 282.478L995.876 282.478M934.253 275.26L937.643 272.679M934.253 275.26L896.802 275.26M894.185 277.75L891.657 280.155M894.185 277.75L896.802 275.26M891.657 280.155L890.425 281.326L889.515 282.192L889.215 282.478M924.769 282.478L889.215 282.478M924.769 282.478L922.546 284.17L921.817 284.724M896.802 275.26L898.828 273.333L899.514 272.679M853.661 282.478L853.437 282.763L852.99 283.329L852.328 284.17L851.89 284.724M853.661 282.478L889.215 282.478M889.215 282.478L888.916 282.763L888.32 283.329L886.854 284.724M975.772 272.679L937.643 272.679M975.772 272.679L1013.9 272.679M941.159 270.004L940.712 270.344L940.268 270.682L938.51 272.02L937.643 272.679M941.159 270.004L943.882 267.932L944.806 267.228M941.159 270.004L902.327 270.004M937.643 272.679L899.514 272.679M1013.9 272.679L1052.03 272.679M1013.9 272.679L1010.33 274.624L1009.15 275.26M899.514 272.679L902.327 270.004M1009.15 275.26L1046.61 275.26M944.806 267.228L945.271 266.874L945.74 266.518L947.156 265.44L947.633 265.077L948.593 264.346M944.806 267.228L905.245 267.228M902.327 270.004L902.686 269.663L905.245 267.228M905.245 267.228L905.617 266.874L905.992 266.518L906.367 266.16L908.274 264.346M988.912 264.346L993.634 261.351M988.912 264.346L948.593 264.346M988.912 264.346L1029.23 264.346M948.593 264.346L952.528 261.351M948.593 264.346L908.274 264.346M908.274 264.346L911.423 261.351M993.634 261.351L952.528 261.351M993.634 261.351L1034.74 261.351M956.62 258.237L952.528 261.351M956.62 258.237L960.878 254.997M956.62 258.237L914.696 258.237M952.528 261.351L911.423 261.351M1034.74 261.351L1075.85 261.351M1034.74 261.351L1029.23 264.346M911.423 261.351L914.696 258.237M1029.23 264.346L1069.55 264.346M960.878 254.997L965.312 251.622M960.878 254.997L918.102 254.997M914.696 258.237L915.535 257.439L918.102 254.997M918.102 254.997L919.416 253.748L920.75 252.479L921.65 251.622M1008.97 251.622L1011.72 249.882L1014.52 248.104M1008.97 251.622L965.312 251.622M1008.97 251.622L1052.64 251.622M965.312 251.622L969.935 248.104M965.312 251.622L921.65 251.622M921.65 251.622L925.347 248.104M1014.52 248.104L969.935 248.104M1014.52 248.104L1059.11 248.104M974.757 244.434L969.935 248.104M974.757 244.434L979.792 240.602M974.757 244.434L929.206 244.434M969.935 248.104L925.347 248.104M1059.11 248.104L1103.7 248.104M1059.11 248.104L1052.64 251.622M925.347 248.104L929.206 244.434M1052.64 251.622L1096.3 251.622M979.792 240.602L981.086 239.618L985.055 236.597M979.792 240.602L933.234 240.602M929.206 244.434L933.234 240.602M933.234 240.602L933.75 240.111L935.315 238.622L937.445 236.597M1032.67 236.597L1039.27 232.406M1032.67 236.597L985.055 236.597M1032.67 236.597L1080.28 236.597M985.055 236.597L990.562 232.406M985.055 236.597L937.445 236.597M937.445 236.597L941.85 232.406M1039.27 232.406L990.562 232.406M1039.27 232.406L1087.99 232.406M996.329 228.017L992.693 230.784L990.562 232.406M996.329 228.017L1002.38 223.414M996.329 228.017L946.464 228.017M990.562 232.406L941.85 232.406M1087.99 232.406L1136.7 232.406M1087.99 232.406L1080.28 236.597M941.85 232.406L946.464 228.017M1080.28 236.597L1127.89 236.597M1002.38 223.414L1008.72 218.583M1002.38 223.414L951.301 223.414M946.464 228.017L951.301 223.414M951.301 223.414L956.379 218.583M1061.07 218.583L1069.08 213.506M1061.07 218.583L1008.72 218.583M1061.07 218.583L1113.41 218.583M1008.72 218.583L1015.4 213.506M1008.72 218.583L956.379 218.583M956.379 218.583L961.717 213.506M1069.08 213.506L1015.4 213.506M1069.08 213.506L1122.75 213.506M1022.42 208.163L1015.4 213.506M1022.42 208.163L1029.81 202.533M1022.42 208.163L967.333 208.163M1015.4 213.506L961.717 213.506M1122.75 213.506L1176.43 213.506M1122.75 213.506L1113.41 218.583M961.717 213.506L967.333 208.163M1113.41 218.583L1165.76 218.583M1029.81 202.533L1037.62 196.592M1029.81 202.533L973.251 202.533M967.333 208.163L973.251 202.533M973.251 202.533L979.496 196.592M1095.74 196.592L1105.64 190.315M1095.74 196.592L1037.62 196.592M1095.74 196.592L1153.87 196.592M1037.62 196.592L1045.87 190.315M1037.62 196.592L979.496 196.592M979.496 196.592L986.095 190.315M1105.64 190.315L1045.87 190.315M1105.64 190.315L1165.42 190.315M1054.6 183.67L1045.87 190.315M1054.6 183.67L1063.86 176.625M1054.6 183.67L993.079 183.67M1045.87 190.315L986.095 190.315M1165.42 190.315L1225.19 190.315M1165.42 190.315L1153.87 196.592M986.095 190.315L993.079 183.67M1153.87 196.592L1211.99 196.592M1063.86 176.625L1073.69 169.143M1063.86 176.625L1000.48 176.625M993.079 183.67L1000.48 176.625M1000.48 176.625L1008.35 169.143M1139.02 169.143L1151.58 161.183M1139.02 169.143L1073.69 169.143M1139.02 169.143L1204.36 169.143M1073.69 169.143L1084.15 161.183M1073.69 169.143L1008.35 169.143M1008.35 169.143L1016.72 161.183M1151.58 161.183L1084.15 161.183M1151.58 161.183L1219.01 161.183M1095.3 152.695L1084.15 161.183M1095.3 152.695L1107.22 143.627M1095.3 152.695L1025.64 152.695M1084.15 161.183L1016.72 161.183M1219.01 161.183L1286.44 161.183M1219.01 161.183L1204.36 169.143M1016.72 161.183L1025.64 152.695M1204.36 169.143L1269.7 169.143M1107.22 143.627L1119.97 133.916M1107.22 143.627L1035.17 143.627M1025.64 152.695L1035.17 143.627M1035.17 143.627L1045.38 133.916M1194.57 133.916L1211.01 123.492M1194.57 133.916L1119.97 133.916M1194.57 133.916L1269.17 133.916M1119.97 133.916L1133.67 123.492M1119.97 133.916L1045.38 133.916M1045.38 133.916L1056.34 123.492M1211.01 123.492L1133.67 123.492M1211.01 123.492L1288.34 123.492M1148.41 112.273L1133.67 123.492M1148.41 112.273L1164.32 100.165M1148.41 112.273L1068.13 112.273M1133.67 123.492L1056.34 123.492M1288.34 123.492L1365.67 123.492M1288.34 123.492L1269.17 133.916M1056.34 123.492L1068.13 112.273M1269.17 133.916L1343.76 133.916M1164.32 100.165L1181.55 87.0579M1164.32 100.165L1080.86 100.165M1068.13 112.273L1080.86 100.165M1080.86 100.165L1094.64 87.0578M1268.45 87.0579L1290.9 72.822M1268.45 87.0579L1181.55 87.0579M1268.45 87.0579L1355.36 87.0579M1181.55 87.0579L1200.25 72.822M1181.55 87.0579L1094.64 87.0578M1094.64 87.0578L1109.6 72.822M1290.9 72.822L1200.25 72.822M1290.9 72.822L1381.55 72.822M1220.64 57.3055L1200.25 72.822M1220.64 57.3055L1242.95 40.3273M1220.64 57.3055L1125.91 57.3055M1200.25 72.822L1109.6 72.822M1381.55 72.822L1472.2 72.822M1381.55 72.822L1355.36 87.0579M1109.6 72.822L1125.91 57.3055M1355.36 87.0579L1442.27 87.0579M1242.95 40.3273L1267.46 21.6703M1242.95 40.3273L1143.76 40.3273M1125.91 57.3055L1143.76 40.3273M1143.76 40.3273L1163.37 21.6703M1371.56 21.6703L1404.03 1.07298M1371.56 21.6703L1267.46 21.6703M1371.56 21.6703L1475.65 21.6703M1267.46 21.6703L1294.53 1.07297M1267.46 21.6703L1163.37 21.6703M1163.37 21.6703L1185.02 1.07297M1294.53 1.07297L1404.03 1.07298M1294.53 1.07297L1185.02 1.07297M1404.03 1.07298L1493.6 1.07337M1475.65 21.6703L1493.6 11.9126M1475.65 21.6703L1493.6 21.6703M1121.51 275.26L1128.29 272.679M1121.51 275.26L1084.06 275.26M1121.51 275.26L1158.96 275.26M1078.17 277.75L1072.48 280.155M1078.17 277.75L1084.06 275.26M1078.17 277.75L1041.37 277.75M1072.48 280.155L1036.31 280.155M1072.48 280.155L1066.98 282.478M1102.54 282.478L1066.98 282.478M1102.54 282.478L1100.3 283.329L1096.63 284.724M1102.54 282.478L1138.09 282.478M1084.06 275.26L1090.16 272.679M1084.06 275.26L1046.61 275.26M1041.37 277.75L1036.31 280.155M1041.37 277.75L1046.61 275.26M1036.31 280.155L1032.64 281.904L1031.43 282.478M1066.98 282.478L1066.31 282.763L1061.67 284.724M1066.98 282.478L1031.43 282.478M1046.61 275.26L1052.03 272.679M995.876 282.478L991.744 284.724M995.876 282.478L1031.43 282.478M1031.43 282.478L1029.64 283.329L1026.71 284.724M1128.29 272.679L1090.16 272.679M1128.29 272.679L1166.42 272.679M1096.49 270.004L1090.16 272.679M1096.49 270.004L1103.05 267.228M1096.49 270.004L1057.65 270.004M1090.16 272.679L1052.03 272.679M1166.42 272.679L1204.54 272.679M1166.42 272.679L1158.96 275.26M1052.03 272.679L1057.65 270.004M1158.96 275.26L1196.41 275.26M1103.05 267.228L1104.73 266.518L1109.87 264.346M1103.05 267.228L1063.49 267.228M1057.65 270.004L1063.49 267.228M1063.49 267.228L1069.55 264.346M1150.19 264.346L1151.15 263.978L1158.06 261.351M1150.19 264.346L1109.87 264.346M1150.19 264.346L1190.51 264.346M1109.87 264.346L1116.95 261.351M1109.87 264.346L1069.55 264.346M1069.55 264.346L1070.32 263.978L1075.85 261.351M1158.06 261.351L1116.95 261.351M1158.06 261.351L1199.16 261.351M1124.32 258.237L1116.95 261.351M1124.32 258.237L1131.98 254.997M1124.32 258.237L1082.39 258.237M1116.95 261.351L1075.85 261.351M1199.16 261.351L1240.27 261.351M1199.16 261.351L1190.51 264.346M1075.85 261.351L1082.39 258.237M1190.51 264.346L1230.82 264.346M1131.98 254.997L1139.96 251.622M1131.98 254.997L1089.2 254.997M1082.39 258.237L1089.2 254.997M1089.2 254.997L1096.3 251.622M1183.62 251.622L1192.87 248.104M1183.62 251.622L1139.96 251.622M1183.62 251.622L1227.29 251.622M1139.96 251.622L1148.28 248.104M1139.96 251.622L1096.3 251.622M1096.3 251.622L1103.7 248.104M1192.87 248.104L1148.28 248.104M1192.87 248.104L1237.46 248.104M1156.96 244.434L1148.28 248.104M1156.96 244.434L1166.03 240.602M1156.96 244.434L1111.41 244.434M1148.28 248.104L1103.7 248.104M1237.46 248.104L1282.04 248.104M1237.46 248.104L1227.29 251.622M1103.7 248.104L1111.41 244.434M1227.29 251.622L1270.95 251.622M1166.03 240.602L1175.5 236.597M1166.03 240.602L1119.47 240.602M1111.41 244.434L1119.47 240.602M1119.47 240.602L1127.89 236.597M1223.11 236.597L1234.12 232.406M1223.11 236.597L1175.5 236.597M1223.11 236.597L1270.72 236.597M1175.5 236.597L1185.41 232.406M1175.5 236.597L1127.89 236.597M1127.89 236.597L1136.7 232.406M1234.12 232.406L1185.41 232.406M1234.12 232.406L1282.84 232.406M1195.79 228.017L1185.41 232.406M1195.79 228.017L1206.68 223.414M1195.79 228.017L1145.93 228.017M1185.41 232.406L1136.7 232.406M1282.84 232.406L1331.55 232.406M1282.84 232.406L1270.72 236.597M1136.7 232.406L1145.93 228.017M1270.72 236.597L1318.33 236.597M1206.68 223.414L1218.1 218.583M1206.68 223.414L1155.6 223.414M1145.93 228.017L1155.6 223.414M1155.6 223.414L1165.76 218.583M1270.45 218.583L1283.79 213.506M1270.45 218.583L1218.1 218.583M1270.45 218.583L1322.79 218.583M1218.1 218.583L1230.11 213.506M1218.1 218.583L1165.76 218.583M1165.76 218.583L1176.43 213.506M1283.79 213.506L1230.11 213.506M1283.79 213.506L1337.47 213.506M1242.75 208.163L1230.11 213.506M1242.75 208.163L1256.06 202.534M1242.75 208.163L1187.67 208.163M1230.11 213.506L1176.43 213.506M1337.47 213.506L1391.15 213.506M1337.47 213.506L1322.79 218.583M1176.43 213.506L1187.67 208.163M1322.79 218.583L1375.14 218.583M1256.06 202.534L1270.12 196.592M1256.06 202.534L1199.5 202.534M1187.67 208.163L1199.5 202.534M1199.5 202.534L1211.99 196.592M1328.24 196.592L1344.74 190.315M1328.24 196.592L1270.12 196.592M1328.24 196.592L1386.36 196.592M1270.12 196.592L1284.96 190.315M1270.12 196.592L1211.99 196.592M1211.99 196.592L1225.19 190.315M1344.74 190.315L1284.96 190.315M1344.74 190.315L1404.51 190.315M1300.68 183.67L1284.96 190.315M1300.68 183.67L1317.34 176.626M1300.68 183.67L1239.16 183.67M1284.96 190.315L1225.19 190.315M1404.51 190.315L1464.28 190.315M1404.51 190.315L1386.36 196.592M1225.19 190.315L1239.16 183.67M1386.36 196.592L1444.49 196.592M1317.34 176.626L1335.04 169.143M1317.34 176.626L1253.97 176.626M1239.16 183.67L1253.97 176.626M1253.97 176.626L1269.7 169.143M1400.37 169.143L1421.29 161.183M1400.37 169.143L1335.04 169.143M1400.37 169.143L1465.71 169.143M1335.04 169.143L1353.87 161.183M1335.04 169.143L1269.7 169.143M1269.7 169.143L1286.44 161.183M1421.29 161.183L1353.87 161.183M1421.29 161.183L1488.72 161.183M1373.94 152.695L1353.87 161.183M1373.94 152.695L1395.39 143.627M1373.94 152.695L1304.28 152.695M1353.87 161.183L1286.44 161.183M1488.72 161.183L1465.71 169.143M1488.72 161.183L1493.6 161.183M1488.72 161.183L1493.6 159.497M1286.44 161.183L1304.28 152.695M1465.71 169.143L1493.6 169.143M1395.39 143.627L1418.35 133.916M1395.39 143.627L1323.34 143.627M1304.28 152.695L1323.34 143.627M1323.34 143.627L1343.76 133.916M1492.95 133.916L1418.35 133.916M1492.95 133.916L1493.6 133.916M1492.95 133.916L1493.6 133.67M1418.35 133.916L1443.01 123.492M1418.35 133.916L1343.76 133.916M1343.76 133.916L1365.67 123.492M1469.54 112.273L1443.01 123.492M1469.54 112.273L1389.26 112.273M1469.54 112.273L1493.6 112.273M1469.54 112.273L1493.6 102.103M1443.01 123.492L1365.67 123.492M1443.01 123.492L1493.6 123.492M1365.67 123.492L1389.26 112.273M1389.26 112.273L1414.72 100.165M1414.72 100.165L1442.27 87.0579M1414.72 100.165L1493.6 100.165M1442.27 87.0579L1472.2 72.822M1442.27 87.0579L1493.6 87.0579M1472.2 72.822L1493.6 72.822M1472.2 72.822L1493.6 62.6446M1271.31 275.26L1280.8 272.679M1271.31 275.26L1233.86 275.26M1271.31 275.26L1308.76 275.26M1225.35 277.75L1217.14 280.155M1225.35 277.75L1233.86 275.26M1225.35 277.75L1188.55 277.75M1217.14 280.155L1180.97 280.155M1217.14 280.155L1209.2 282.478M1244.75 282.478L1209.2 282.478M1244.75 282.478L1236.49 284.724M1244.75 282.478L1280.31 282.478M1233.86 275.26L1242.67 272.679M1233.86 275.26L1196.41 275.26M1188.55 277.75L1180.97 280.155M1188.55 277.75L1196.41 275.26M1180.97 280.155L1173.64 282.478M1209.2 282.478L1208.23 282.763L1201.52 284.724M1209.2 282.478L1173.64 282.478M1196.41 275.26L1204.54 272.679M1138.09 282.478L1131.6 284.724M1138.09 282.478L1173.64 282.478M1173.64 282.478L1172.75 282.763L1166.56 284.724M1280.8 272.679L1242.67 272.679M1280.8 272.679L1318.93 272.679M1251.81 270.004L1242.67 272.679M1251.81 270.004L1261.3 267.228M1251.81 270.004L1212.98 270.004M1242.67 272.679L1204.54 272.679M1318.93 272.679L1357.06 272.679M1318.93 272.679L1308.76 275.26M1204.54 272.679L1212.98 270.004M1308.76 275.26L1346.21 275.26M1261.3 267.228L1271.14 264.346M1261.3 267.228L1221.74 267.228M1212.98 270.004L1214.06 269.663L1221.74 267.228M1221.74 267.228L1230.82 264.346M1311.46 264.346L1322.48 261.351M1311.46 264.346L1271.14 264.346M1311.46 264.346L1351.78 264.346M1271.14 264.346L1281.37 261.351M1271.14 264.346L1230.82 264.346M1230.82 264.346L1240.27 261.351M1322.48 261.351L1281.37 261.351M1322.48 261.351L1363.58 261.351M1292.01 258.237L1281.37 261.351M1292.01 258.237L1303.08 254.997M1292.01 258.237L1250.09 258.237M1281.37 261.351L1240.27 261.351M1363.58 261.351L1404.69 261.351M1363.58 261.351L1351.78 264.346M1240.27 261.351L1250.09 258.237M1351.78 264.346L1392.1 264.346M1303.08 254.997L1314.61 251.622M1303.08 254.997L1260.31 254.997M1250.09 258.237L1260.31 254.997M1260.31 254.997L1270.95 251.622M1358.27 251.622L1371.22 248.104M1358.27 251.622L1314.61 251.622M1358.27 251.622L1401.94 251.622M1314.61 251.622L1326.63 248.104M1314.61 251.622L1270.95 251.622M1270.95 251.622L1282.04 248.104M1371.22 248.104L1326.63 248.104M1371.22 248.104L1415.8 248.104M1339.17 244.434L1326.63 248.104M1339.17 244.434L1352.26 240.602M1339.17 244.434L1293.62 244.434M1326.63 248.104L1282.04 248.104M1415.8 248.104L1460.39 248.104M1415.8 248.104L1401.94 251.622M1282.04 248.104L1293.62 244.434M1401.94 251.622L1445.6 251.622M1352.26 240.602L1365.94 236.597M1352.26 240.602L1305.7 240.602M1293.62 244.434L1305.7 240.602M1305.7 240.602L1318.33 236.597M1413.56 236.597L1428.97 232.406M1413.56 236.597L1365.94 236.597M1413.56 236.597L1461.17 236.597M1365.94 236.597L1380.26 232.406M1365.94 236.597L1318.33 236.597M1318.33 236.597L1331.55 232.406M1428.97 232.406L1380.26 232.406M1395.26 228.017L1380.26 232.406M1395.26 228.017L1410.98 223.414M1395.26 228.017L1345.39 228.017M1380.26 232.406L1331.55 232.406M1331.55 232.406L1345.39 228.017M1461.17 236.597L1493.6 236.597M1410.98 223.414L1427.48 218.583M1410.98 223.414L1359.9 223.414M1345.39 228.017L1359.9 223.414M1359.9 223.414L1375.14 218.583M1479.83 218.583L1427.48 218.583M1479.83 218.583L1493.6 218.583M1479.83 218.583L1493.6 214.841M1427.48 218.583L1444.83 213.506M1427.48 218.583L1375.14 218.583M1375.14 218.583L1391.15 213.506M1463.08 208.163L1444.83 213.506M1463.08 208.163L1482.32 202.534M1463.08 208.163L1408 208.163M1463.08 208.163L1493.6 208.163M1444.83 213.506L1391.15 213.506M1444.83 213.506L1493.6 213.506M1391.15 213.506L1408 208.163M1493.75 214.8L1493.6 214.841M1482.32 202.534L1425.75 202.534M1482.32 202.534L1493.6 202.534M1482.32 202.534L1493.6 199.231M1408 208.163L1425.75 202.534M1425.75 202.534L1444.49 196.592M1444.49 196.592L1464.28 190.315M1444.49 196.592L1493.6 196.592M1485.24 183.67L1464.28 190.315M1485.24 183.67L1493.6 183.67M1485.24 183.67L1493.6 181.019M1464.28 190.315L1493.6 190.315M1421.11 275.26L1433.32 272.679M1421.11 275.26L1383.66 275.26M1421.11 275.26L1458.56 275.26M1372.54 277.75L1361.79 280.155M1372.54 277.75L1383.66 275.26M1372.54 277.75L1335.74 277.75M1361.79 280.155L1325.63 280.155M1361.79 280.155L1351.41 282.478M1386.97 282.478L1351.41 282.478M1386.97 282.478L1376.34 284.724M1386.97 282.478L1422.52 282.478M1383.66 275.26L1395.19 272.679M1383.66 275.26L1346.21 275.26M1335.74 277.75L1325.63 280.155M1335.74 277.75L1346.21 275.26M1325.63 280.155L1315.86 282.478M1351.41 282.478L1315.86 282.478M1351.41 282.478L1341.38 284.724M1346.21 275.26L1357.06 272.679M1280.31 282.478L1271.45 284.724M1280.31 282.478L1315.86 282.478M1315.86 282.478L1306.41 284.724M1433.32 272.679L1395.19 272.679M1433.32 272.679L1471.44 272.679M1407.14 270.004L1395.19 272.679M1407.14 270.004L1419.54 267.228M1407.14 270.004L1368.31 270.004M1395.19 272.679L1357.06 272.679M1471.44 272.679L1458.56 275.26M1471.44 272.679L1493.6 272.679M1357.06 272.679L1368.31 270.004M1458.56 275.26L1493.6 275.26M1419.54 267.228L1432.42 264.346M1419.54 267.228L1379.98 267.228M1368.31 270.004L1379.98 267.228M1379.98 267.228L1392.1 264.346M1472.74 264.346L1486.9 261.351M1472.74 264.346L1432.42 264.346M1472.74 264.346L1493.6 264.346M1432.42 264.346L1445.8 261.351M1432.42 264.346L1392.1 264.346M1392.1 264.346L1404.69 261.351M1459.71 258.237L1445.8 261.351M1459.71 258.237L1474.18 254.997M1459.71 258.237L1417.78 258.237M1459.71 258.237L1493.6 258.237M1445.8 261.351L1486.9 261.351M1445.8 261.351L1404.69 261.351M1486.9 261.351L1493.6 259.936M1486.9 261.351L1493.6 261.351M1404.69 261.351L1417.78 258.237M1474.18 254.997L1489.26 251.622M1474.18 254.997L1431.41 254.997M1474.18 254.997L1493.6 254.997M1417.78 258.237L1431.41 254.997M1431.41 254.997L1445.6 251.622M1489.26 251.622L1445.6 251.622M1489.26 251.622L1493.6 250.652M1489.26 251.622L1493.6 251.622M1445.6 251.622L1460.39 248.104M1475.82 244.434L1460.39 248.104M1475.82 244.434L1491.94 240.602M1475.82 244.434L1493.6 244.434M1460.39 248.104L1493.6 248.104M1493.83 248.104L1493.6 248.104M1491.94 240.602L1493.6 240.602M1491.94 240.602L1493.6 240.207M1494 240.111L1493.6 240.207M1482.92 277.75L1470.29 280.155M1482.92 277.75L1493.6 277.75M1482.92 277.75L1493.6 275.719M1470.29 280.155L1458.07 282.478M1470.29 280.155L1493.6 280.155M1422.52 282.478L1411.31 284.724M1422.52 282.478L1458.07 282.478M1458.07 282.478L1446.27 284.724M1458.07 282.478L1493.6 282.478M257.512 284.724L222.548 284.724M257.512 284.724L292.475 284.724M231.113 286.897L228.999 286.36L222.548 284.724M231.113 286.897L196.721 286.897M222.548 284.724L187.585 284.724M196.721 286.897L194.465 286.36L193.33 286.091L187.585 284.724M187.585 284.724L152.622 284.724M152.622 284.724L117.658 284.724M292.475 284.724L327.438 284.724M117.658 284.724L82.6942 284.724M82.6942 284.724L93.544 286.897M82.6942 284.724L47.7309 284.724M93.544 286.897L59.1515 286.897M397.366 284.724L362.402 284.724M397.366 284.724L432.329 284.724M368.683 286.897L367.132 286.36L366.352 286.091L362.402 284.724M368.683 286.897L334.291 286.897M362.402 284.724L327.438 284.724M334.291 286.897L327.438 284.724M432.329 284.724L467.293 284.724M537.219 284.724L502.256 284.724M537.219 284.724L572.183 284.724M506.253 286.897L505.76 286.629L505.266 286.36L504.769 286.091L502.256 284.724M506.253 286.897L471.861 286.897M502.256 284.724L467.293 284.724M471.861 286.897L467.293 284.724M572.183 284.724L607.147 284.724M677.073 284.724L642.11 284.724M677.073 284.724L712.037 284.724M643.823 286.897L642.11 284.724M643.823 286.897L609.43 286.897M642.11 284.724L607.147 284.724M609.43 286.897L609.148 286.629L608.866 286.36L608.582 286.091L607.147 284.724M712.037 284.724L747 284.724M816.927 284.724L781.963 284.724M816.927 284.724L851.89 284.724M781.392 286.897L781.963 284.724M781.392 286.897L747 286.897M781.963 284.724L747 284.724M747 286.897L747 284.724M851.89 284.724L886.854 284.724M956.781 284.724L921.817 284.724M956.781 284.724L991.744 284.724M918.962 286.897L919.667 286.36L921.095 285.274L921.817 284.724M918.962 286.897L884.57 286.897M921.817 284.724L886.854 284.724M884.57 286.897L884.852 286.629L885.134 286.36L885.418 286.091L886.854 284.724M991.744 284.724L1026.71 284.724M1096.63 284.724L1061.67 284.724M1096.63 284.724L1131.6 284.724M1056.53 286.897L1057.8 286.36L1058.44 286.091L1061.67 284.724M1056.53 286.897L1022.14 286.897M1061.67 284.724L1026.71 284.724M1022.14 286.897L1022.7 286.629L1026.71 284.724M1131.6 284.724L1166.56 284.724M1236.49 284.724L1201.52 284.724M1236.49 284.724L1271.45 284.724M1194.1 286.897L1195.93 286.36L1196.86 286.091L1201.52 284.724M1194.1 286.897L1159.71 286.897M1201.52 284.724L1166.56 284.724M1159.71 286.897L1160.55 286.629L1166.56 284.724M1271.45 284.724L1306.41 284.724M1376.34 284.724L1341.38 284.724M1376.34 284.724L1411.31 284.724M1331.67 286.897L1341.38 284.724M1331.67 286.897L1297.28 286.897M1341.38 284.724L1306.41 284.724M1297.28 286.897L1299.53 286.36L1300.67 286.091L1306.41 284.724M1411.31 284.724L1446.27 284.724M1469.24 286.897L1481.23 284.724M1469.24 286.897L1434.85 286.897M1469.24 286.897L1493.6 286.897M1481.23 284.724L1446.27 284.724M1481.23 284.724L1493.6 282.483M1481.23 284.724L1493.6 284.724M1434.85 286.897L1437.67 286.36L1446.27 284.724M59.1515 286.897L56.3316 286.36L47.7309 284.724M47.7309 284.724L12.7676 284.724M12.7676 284.724L0.402036 282.483M12.7676 284.724L0.402036 284.724M0.402045 181.019L0.402045 183.67M0.402045 181.019L0.402046 176.625M0.402045 183.67L0.402044 190.315M0.402046 176.625L0.402046 175.312L0.402046 169.143M0.402046 169.143L0.402047 161.182M0.402041 232.406L0.40204 236.596M0.402041 232.406L0.402041 228.369M0.402036 286.897L0.402036 284.724M0.402036 284.724L0.402036 282.483M0.402036 282.483L0.371752 282.478L0.402036 282.478M0.402036 282.483L0.402036 282.478M0.402036 282.478L0.402037 280.154M0.402037 280.154L0.402037 277.75M0.402037 277.75L0.402037 275.719M0.402037 275.719L0.402037 275.26M0.402037 275.26L0.402037 272.679M0.402037 272.679L0.402037 270.004M0.402037 270.004L0.402038 268.243M0.402038 268.243L0.402038 267.228M0.402038 267.228L0.402038 264.346M0.402038 264.346L0.402038 261.351M0.402038 261.351L0.402038 259.936M0.402038 259.936L0.402038 258.237M0.402038 258.237L0.402039 254.997M0.402039 254.997L0.402039 251.622M0.402039 251.622L0.402039 250.652M0.402039 250.652L0.402039 248.104M0.402039 248.104L0.40204 244.434M0.40204 244.434L0.40204 240.602M0.40204 240.602L0.40204 240.207M0.40204 240.207L0.40204 236.596M0.402041 228.016L0.402041 223.414M0.402041 228.016L0.402041 228.369M0.402041 223.414L0.402042 218.583M0.402042 218.583L0.402042 214.841M0.402042 214.841L0.402042 213.506M0.402042 213.506L0.402043 208.163M0.402043 208.163L0.402043 202.533M0.402043 202.533L0.402044 199.231M0.402044 199.231L0.402044 196.592M0.402044 196.592L0.402044 190.315M0.402047 161.182L0.402047 159.497M0.402047 159.497L0.402048 152.695M0.402048 152.695L0.402048 143.627M0.402048 143.627L0.402049 133.916M0.402049 133.916L0.402049 133.67M0.402049 133.67L0.40205 123.492M0.40205 123.492L0.402051 112.273M0.402051 112.273L0.402052 102.103M0.402052 102.103L0.402052 100.165M0.402052 100.165L0.402053 87.0578M0.402053 87.0578L0.402055 72.8219M0.402055 72.8219L0.402056 62.6445M0.402056 62.6445L0.402056 57.3054M0.402056 57.3054L0.402057 40.3272M0.402057 40.3272L0.402059 21.6702M0.402059 21.6702L0.40206 11.9125M0.40206 11.9125L0.402061 1.07324M0.402061 1.07324L0.402061 0.999693L1493.6 0.999824L1493.6 1.07337M1493.6 228.017L1493.6 223.414M1493.6 228.017L1493.6 228.369M1493.6 228.369L1493.6 232.406M1493.6 232.406L1493.6 236.597M1493.6 236.597L1493.6 240.207M1493.6 240.207L1493.6 240.602M1493.6 240.602L1493.6 244.434M1493.6 244.434L1493.6 248.104M1493.6 248.104L1493.6 250.652M1493.6 250.652L1493.6 251.622M1493.6 251.622L1493.6 254.997M1493.6 254.997L1493.6 258.237M1493.6 258.237L1493.6 259.936M1493.6 259.936L1493.6 261.351M1493.6 261.351L1493.6 264.346M1493.6 264.346L1493.6 267.228M1493.6 267.228L1493.6 268.243M1493.6 268.243L1493.6 270.004M1493.6 270.004L1493.6 272.679M1493.6 272.679L1493.6 275.26M1493.6 275.26L1493.6 275.719M1493.6 275.719L1493.6 277.75M1493.6 277.75L1493.6 280.155M1493.6 280.155L1493.6 282.478M1493.6 282.478L1493.63 282.478L1493.6 282.483M1493.6 282.478L1493.6 282.483M1493.6 282.483L1493.6 284.724M1493.6 284.724L1493.6 286.897M1493.6 1.07337L1493.6 11.9126M1493.6 11.9126L1493.6 21.6703M1493.6 21.6703L1493.6 40.3269M1493.6 40.3269L1493.6 57.3055M1493.6 57.3055L1493.6 62.6446M1493.6 62.6446L1493.6 72.822M1493.6 72.822L1493.6 87.0579M1493.6 87.0579L1493.6 100.165M1493.6 100.165L1493.6 102.103M1493.6 102.103L1493.6 112.273M1493.6 112.273L1493.6 123.492M1493.6 123.492L1493.6 133.67M1493.6 133.67L1493.6 133.916M1493.6 133.916L1493.6 143.627M1493.6 143.627L1493.6 152.695M1493.6 152.695L1493.6 159.497M1493.6 159.497L1493.6 161.183M1493.6 161.183L1493.6 169.143M1493.6 169.143L1493.6 176.626M1493.6 176.626L1493.6 181.019M1493.6 181.019L1493.6 183.67M1493.6 183.67L1493.6 190.315M1493.6 190.315L1493.6 196.592M1493.6 196.592L1493.6 199.231M1493.6 199.231L1493.6 202.534M1493.6 202.534L1493.6 208.163M1493.6 208.163L1493.6 213.506M1493.6 213.506L1493.6 214.841M1493.6 214.841L1493.6 218.583M1493.6 218.583L1493.6 223.414" stroke="url(#paint0_radial_1_63)" stroke-opacity="0.25" stroke-width="1.8895" stroke-miterlimit="10" stroke-linecap="round" stroke-linejoin="round"/>
<defs>
<radialGradient id="paint0_radial_1_63" cx="0" cy="0" r="1" gradientUnits="userSpaceOnUse" gradientTransform="translate(747 11.6145) rotate(90) scale(450.826 2338.66)">
<stop stop-color="#5813C1"/>
<stop offset="0.489074" stop-color="#CED2DF" stop-opacity="0"/>
</radialGradient>
</defs>
</svg>
