<svg width="1440" height="318" viewBox="0 0 1440 318" fill="none" xmlns="http://www.w3.org/2000/svg">
<path d="M1422.01 3.30774L1410.16 1M1422.01 3.30774H1386.88M1422.01 3.30774L1434.26 5.69169M1422.01 3.30774H1446.89M1410.16 1L1414.47 1.0009L1418.74 1.0059L1422.92 1.01995L1426.97 1.04762L1430.85 1.09252L1434.5 1.16011L1437.9 1.254L1441.05 1.37373L1443.75 1.53929L1446.22 1.73115L1446.89 1.79835V3.30774M1410.16 1H1375.59M1375.59 1H1341.03M1375.59 1L1386.88 3.30774M1341.03 1H1306.46M1341.03 1L1351.75 3.30774M1306.46 1H1271.9M1306.46 1L1316.62 3.30774M1271.9 1H1237.33M1271.9 1L1281.49 3.30774M1237.33 1H1202.77M1237.33 1L1246.36 3.30774M1202.77 1H1168.2M1202.77 1L1211.23 3.30774M1168.2 1H1133.64M1168.2 1L1176.1 3.30774M1133.64 1H1099.07M1133.64 1L1140.97 3.30774M1099.07 1H1064.5M1099.07 1L1105.84 3.30774M1064.5 1H1029.94M1064.5 1L1070.71 3.30774M1029.94 1H995.373M1029.94 1L1035.58 3.30774M995.373 1H960.807M995.373 1L996.627 1.57013L998.529 2.43327L1000.45 3.30774M960.807 1H926.242M960.807 1L961.922 1.57013L965.323 3.30774M926.242 1H891.676M926.242 1L930.193 3.30774M891.676 1H857.11M891.676 1L892.933 1.85678L894.206 2.72355L894.634 3.01519L895.063 3.30774M857.11 1H822.545M857.11 1L858.158 1.85678L858.51 2.14434L858.864 2.43327L859.933 3.30774M822.545 1H787.979M822.545 1L824.803 3.30774M787.979 1L788.188 1.28438L788.397 1.57013L789.458 3.01519L789.673 3.30774M787.979 1H753.414M753.414 1H718.848M753.414 1L754.543 3.30774M718.848 1H684.282M718.848 1L719.058 1.85678L719.413 3.30774M684.282 1H649.717M684.282 1V3.30774M649.717 1H615.151M649.717 1L649.507 1.85678L649.152 3.30774M615.151 1H580.585M615.151 1L614.022 3.30774M580.585 1L580.377 1.28438L580.168 1.57013L579.107 3.01519L578.892 3.30774M580.585 1H546.02M546.02 1H511.454M546.02 1L544.048 3.01519L543.762 3.30774M511.454 1H476.889M511.454 1L510.407 1.85678L510.054 2.14434L509.346 2.72355L508.99 3.01519L508.632 3.30774M476.889 1H442.323M476.889 1L475.632 1.85678L474.358 2.72355L473.931 3.01519L473.501 3.30774M442.323 1H407.758M442.323 1L438.372 3.30774M407.758 1H373.192M407.758 1L406.643 1.57013L403.242 3.30774M373.192 1H338.626M373.192 1L368.112 3.30774M338.626 1H304.061M338.626 1L332.981 3.30774M304.061 1H269.495M304.061 1L297.851 3.30774M269.495 1H234.929M269.495 1L262.721 3.30774M234.929 1H200.364M234.929 1L227.591 3.30774M200.364 1H165.799M200.364 1L192.461 3.30774M165.799 1H131.232M165.799 1L157.33 3.30774M131.232 1H96.6671M131.232 1L122.2 3.30774M96.6671 1H62.1017M96.6671 1L87.0701 3.30774M62.1017 1H27.5356M62.1017 1L51.9399 3.30774M27.5356 1H-7.0298M27.5356 1L16.8106 3.30774M-7.0298 1H-41.5952M-7.0298 1L-18.3196 3.30774M-41.5952 1L-45.9087 1.0009L-50.1777 1.0059L-54.3578 1.01995L-58.4068 1.04762L-62.2802 1.09252L-65.9368 1.16011L-69.3328 1.254L-72.4849 1.37373L-75.1898 1.53929L-77.6524 1.73115L-78.3292 1.79836V3.30774M-41.5952 1L-53.4498 3.30774M16.8106 3.30774H51.9399M16.8106 3.30774H-18.3196M16.8106 3.30774L5.72805 5.69169M51.9399 3.30774L41.4413 5.69169M51.9399 3.30774H87.0701M157.33 3.30774H192.461M157.33 3.30774H122.2M157.33 3.30774L155.171 3.89647L148.582 5.69169M192.461 3.30774L184.295 5.69169M192.461 3.30774H227.591M297.851 3.30774H332.981M297.851 3.30774H262.721M297.851 3.30774L296.267 3.89647L295.47 4.1922L291.435 5.69169M332.981 3.30774L332.262 3.6012L331.541 3.89647L327.149 5.69169M332.981 3.30774H368.112M438.372 3.30774L437.868 3.6012L434.289 5.69169M438.372 3.30774H473.501M438.372 3.30774H403.242M473.501 3.30774L472.638 3.89647L472.202 4.1922L471.766 4.48974L470.002 5.69169M473.501 3.30774H508.632M578.892 3.30774H614.022M578.892 3.30774H543.762M578.892 3.30774L577.143 5.69169M614.022 3.30774L613.878 3.6012L613.734 3.89647L613.589 4.1922L613.151 5.08799L612.856 5.69169M614.022 3.30774H649.152M719.413 3.30774H754.543M719.413 3.30774H684.282M719.413 3.30774L719.996 5.69169M754.543 3.30774L754.686 3.6012L754.83 3.89647L754.976 4.1922L755.709 5.69169M754.543 3.30774H789.673M859.933 3.30774H895.063M859.933 3.30774H824.803M859.933 3.30774L860.653 3.89647L862.112 5.08799L862.479 5.38916L862.849 5.69169M895.063 3.30774L895.927 3.89647L896.362 4.1922L896.798 4.48974L898.563 5.69169M895.063 3.30774H930.193M1000.45 3.30774H1035.58M1000.45 3.30774H965.323M1000.45 3.30774L1001.75 3.89647L1002.4 4.1922L1005.7 5.69169M1035.58 3.30774L1036.3 3.6012L1037.02 3.89647L1041.42 5.69169M1035.58 3.30774H1070.71M1140.97 3.30774H1176.1M1140.97 3.30774H1105.84M1140.97 3.30774L1142.85 3.89647L1143.79 4.1922L1148.56 5.69169M1176.1 3.30774L1184.27 5.69169M1176.1 3.30774H1211.23M1281.49 3.30774H1316.62M1281.49 3.30774H1246.36M1281.49 3.30774L1291.41 5.69169M1316.62 3.30774L1327.12 5.69169M1316.62 3.30774H1351.75M-78.4524 24.8884H-78.3292M-43.0934 24.8884L-29.681 21.8427M-43.0934 24.8884L-57.0198 28.0507M-43.0934 24.8884H-2.68372M-43.0934 24.8884H-78.3292M-29.681 21.8427H-69.3455M-29.681 21.8427L-16.7539 18.9072M-29.681 21.8427H9.98358M-69.3455 21.8427L-55.7003 18.9072M-69.3455 21.8427H-78.3292M-69.3455 21.8427L-78.3292 23.775M-29.8414 13.3438H7.7442M-29.8414 13.3438L-17.5777 10.7054M-29.8414 13.3438H-67.4263M-29.8414 13.3438L-42.5413 16.0761M7.7442 13.3438L19.3629 10.7054M7.7442 13.3438L-4.28679 16.0761M7.7442 13.3438H45.3298M-17.5777 10.7054H19.3629M-17.5777 10.7054L-5.72781 8.15636M-17.5777 10.7054H-54.5175M19.3629 10.7054H56.3027M19.3629 10.7054L30.5884 8.15636M-78.7161 72.9619H-78.3292M-46.1097 72.9619L-28.8143 67.9123M-46.1097 72.9619L-64.2646 78.2627M-46.1097 72.9619H6.06169M-46.1097 72.9619H-78.3292M-28.8143 67.9123L-12.3188 63.0964M-28.8143 67.9123H22.121M-28.8143 67.9123H-78.3292M-62.0761 63.0964H-12.3188M-62.0761 63.0964L-45.2017 58.4981M-62.0761 63.0964H-78.3292M-62.0761 63.0964L-78.3292 67.5253M-29.074 54.1031H18.4827M-29.074 54.1031L-13.6439 49.8985M-29.074 54.1031H-76.6308M-29.074 54.1031L-45.2017 58.4981M18.4827 54.1031L32.885 49.8985M18.4827 54.1031L3.42989 58.4981M18.4827 54.1031H66.0403M-13.6439 49.8985H32.885M-13.6439 49.8985H-60.1719M-13.6439 49.8985L1.13331 45.8718M32.885 49.8985L46.6763 45.8718M32.885 49.8985H79.413M28.886 38.309H72.5789M28.886 38.309L41.9338 34.7535M28.886 38.309H-14.8069M28.886 38.309L15.2972 42.0119M72.5789 38.309L84.7569 34.7535M72.5789 38.309L59.8965 42.0119M72.5789 38.309H116.273M41.9338 34.7535H84.7569M41.9338 34.7535H-0.889193M41.9338 34.7535L54.4724 31.3368M84.7569 34.7535L96.4598 31.3368M84.7569 34.7535H127.581M78.1356 24.8884H118.545M78.1356 24.8884L89.3127 21.8427M78.1356 24.8884H37.726M78.1356 24.8884L66.5305 28.0507M118.545 24.8884L128.977 21.8427M118.545 24.8884L107.714 28.0507M118.545 24.8884H158.955M89.3127 21.8427H128.977M89.3127 21.8427H49.6481M89.3127 21.8427L100.085 18.9072M128.977 21.8427L139.032 18.9072M128.977 21.8427H168.642M120.5 13.3438H158.086M120.5 13.3438L130.182 10.7054M120.5 13.3438H82.9155M120.5 13.3438L110.474 16.0761M158.086 13.3438L167.122 10.7054M158.086 13.3438L148.728 16.0761M158.086 13.3438H195.672M130.182 10.7054H167.122M130.182 10.7054L139.538 8.15636M130.182 10.7054H93.2425M167.122 10.7054H204.063M167.122 10.7054L175.854 8.15636M-51.6005 160.507L-27.2589 150.557M-51.6005 160.507L-77.6675 171.161M-51.6005 160.507H21.9876M-51.6005 160.507H-78.3292M-27.2589 150.557L-4.47506 141.244M-27.2589 150.557H43.8952M-27.2589 150.557H-78.3292M-27.753 124.3H36.9777M-27.753 124.3L-6.95196 116.57M-27.753 124.3L-49.8449 132.509M-27.753 124.3H-78.3292M36.9777 124.3L55.8873 116.57M36.9777 124.3L16.894 132.509M36.9777 124.3H101.708M-6.95196 116.57H55.8873M-6.95196 116.57H-69.7912M-6.95196 116.57L12.6686 109.279M55.8873 116.57L73.7244 109.279M55.8873 116.57H118.727M48.7465 95.8729H106.523M48.7465 95.8729L65.3706 89.6958M48.7465 95.8729H-9.02929M48.7465 95.8729L31.2056 102.392M106.523 95.8729L121.635 89.6958M106.523 95.8729L90.5757 102.392M106.523 95.8729H164.299M65.3706 89.6958H121.635M65.3706 89.6958H9.10579M65.3706 89.6958L81.1464 83.8334M121.635 89.6958L135.977 83.8334M121.635 89.6958H177.9M110.403 72.9619H162.574M110.403 72.9619L123.992 67.9123M110.403 72.9619H58.2323M110.403 72.9619L96.1388 78.2627M162.574 72.9619L174.928 67.9123M162.574 72.9619L149.606 78.2627M162.574 72.9619H214.745M123.992 67.9123H174.928M123.992 67.9123H73.0571M123.992 67.9123L136.953 63.0964M174.928 67.9123L186.71 63.0964M174.928 67.9123H225.863M161.155 54.1031H208.711M161.155 54.1031L172.47 49.8985M161.155 54.1031H113.597M161.155 54.1031L149.327 58.4981M208.711 54.1031L218.999 49.8985M208.711 54.1031L197.959 58.4981M208.711 54.1031H256.268M172.47 49.8985H218.999M172.47 49.8985H125.942M172.47 49.8985L183.306 45.8718M218.999 49.8985L228.85 45.8718M218.999 49.8985H265.527M203.658 38.309H247.351M203.658 38.309L213.227 34.7535M203.658 38.309H159.965M203.658 38.309L193.694 42.0119M247.351 38.309L248.459 37.8568L256.05 34.7535M247.351 38.309L238.293 42.0119M247.351 38.309H291.045M213.227 34.7535H256.05M213.227 34.7535H170.404M213.227 34.7535L222.422 31.3368M256.05 34.7535L264.409 31.3368M256.05 34.7535H298.874M239.774 24.8884H280.185M239.774 24.8884L247.972 21.8427M239.774 24.8884H199.365M239.774 24.8884L231.264 28.0507M280.185 24.8884L287.636 21.8427M280.185 24.8884L277.318 26.0604L272.447 28.0507M280.185 24.8884H320.594M247.972 21.8427H287.636M247.972 21.8427H208.307M247.972 21.8427L255.871 18.9072M287.636 21.8427L294.817 18.9072M287.636 21.8427H327.301M270.842 13.3438H308.428M270.842 13.3438L277.942 10.7054M270.842 13.3438H233.257M270.842 13.3438L263.49 16.0761M308.428 13.3438L313.29 11.3567L314.088 11.0302L314.883 10.7054M308.428 13.3438L301.744 16.0761M308.428 13.3438H346.013M277.942 10.7054H314.883M277.942 10.7054L284.803 8.15636M277.942 10.7054H241.002M314.883 10.7054H351.823M314.883 10.7054L321.119 8.15636M-24.9385 273.849H76.3793M-24.9385 273.849L6.96412 255.22M-24.9385 273.849L-59.9948 294.32M-24.9385 273.849L-78.3292 273.849M76.3793 273.849L103.724 255.22M76.3793 273.849L46.3308 294.32M76.3793 273.849H177.696M6.96412 255.22H103.724M6.96412 255.22L36.1205 238.195M6.96412 255.22H-78.3292M103.724 255.22L128.715 238.195M103.724 255.22H200.484M87.4991 208.194H172.754M87.4991 208.194L110.25 194.908M87.4991 208.194H2.24466M87.4991 208.194L62.8699 222.575M172.754 208.194L192.255 194.908M172.754 208.194L151.643 222.575M172.754 208.194H258.009M110.25 194.908H192.255M110.25 194.908H28.2457M110.25 194.908L131.331 182.599M192.255 194.908L210.324 182.599M192.255 194.908H274.259M169.164 160.507H242.752M169.164 160.507L186.204 150.557M169.164 160.507H95.5756M169.164 160.507L150.917 171.161M242.752 160.507L257.358 150.557M242.752 160.507L227.113 171.161M242.752 160.507H316.341M186.204 150.557H257.358M186.204 150.557H115.049M186.204 150.557L202.152 141.244M257.358 150.557L271.028 141.244M257.358 150.557H328.512M231.169 124.3H295.899M231.169 124.3L244.406 116.57M231.169 124.3H166.439M231.169 124.3L217.11 132.509M295.899 124.3L307.246 116.57M295.899 124.3L283.849 132.509M295.899 124.3H360.63M244.406 116.57H307.246M244.406 116.57H181.566M244.406 116.57L256.892 109.279M307.246 116.57L317.948 109.279M307.246 116.57H370.085M279.85 95.8729H337.627M279.85 95.8729L290.429 89.6958M279.85 95.8729H222.075M279.85 95.8729L268.688 102.392M337.627 95.8729L346.694 89.6958M337.627 95.8729L328.059 102.392M337.627 95.8729H395.403M290.429 89.6958H346.694M290.429 89.6958H234.164M290.429 89.6958L300.469 83.8334M346.694 89.6958L355.299 83.8334M346.694 89.6958H402.959M319.087 72.9619H371.257M319.087 72.9619L327.734 67.9123M319.087 72.9619H266.915M319.087 72.9619L310.009 78.2627M371.257 72.9619L378.67 67.9123M371.257 72.9619L363.476 78.2627M371.257 72.9619H423.428M327.734 67.9123H378.67M327.734 67.9123H276.798M327.734 67.9123L335.982 63.0964M378.67 67.9123L385.739 63.0964M378.67 67.9123H429.605M351.383 54.1031H398.94M351.383 54.1031L358.584 49.8985M351.383 54.1031H303.826M351.383 54.1031L343.857 58.4981M398.94 54.1031L405.112 49.8985M398.94 54.1031L392.489 58.4981M398.94 54.1031H446.497M358.584 49.8985H405.112M358.584 49.8985H312.055M358.584 49.8985L365.48 45.8718M405.112 49.8985L411.023 45.8718M405.112 49.8985H451.641M378.431 38.309H422.124M378.431 38.309L384.52 34.7535M378.431 38.309H334.738M378.431 38.309L372.089 42.0119M422.124 38.309L421.456 38.7635L416.688 42.0119M422.124 38.309L427.343 34.7535M422.124 38.309H465.817M384.52 34.7535H427.343M384.52 34.7535H341.697M384.52 34.7535L390.371 31.3368M427.343 34.7535L432.358 31.3368M427.343 34.7535H470.166M401.414 24.8884H441.824M401.414 24.8884L406.63 21.8427M401.414 24.8884H361.004M401.414 24.8884L395.999 28.0507M441.824 24.8884L446.294 21.8427M441.824 24.8884L440.104 26.0604L438.943 26.851L437.182 28.0507M441.824 24.8884H482.233M406.63 21.8427H446.294M406.63 21.8427H366.965M406.63 21.8427L411.657 18.9072M446.294 21.8427L447.929 20.7292L449.006 19.9953L450.604 18.9072M446.294 21.8427H485.959M421.185 13.3438H458.769M421.185 13.3438L424.588 11.3567L425.702 10.7054M421.185 13.3438H383.599M421.185 13.3438L417.099 15.7291L416.506 16.0761M458.769 13.3438L461.687 11.3567L462.165 11.0302L462.643 10.7054M458.769 13.3438L456.782 14.6977L454.759 16.0761M458.769 13.3438H496.355M425.702 10.7054H462.643M425.702 10.7054L430.068 8.15636M425.702 10.7054H388.762M462.643 10.7054H499.583M462.643 10.7054L466.384 8.15636M380.331 273.849H481.648M380.331 273.849L394.003 255.22M380.331 273.849H279.014M380.331 273.849L365.307 294.32M481.648 273.849L490.763 255.22M481.648 273.849L471.632 294.32M481.648 273.849H582.965M394.003 255.22H490.763M394.003 255.22H297.243M394.003 255.22L406.499 238.195M490.763 255.22L499.093 238.195M490.763 255.22H587.523M428.518 208.194H513.773M428.518 208.194L438.269 194.908M428.518 208.194H343.263M428.518 208.194L417.963 222.575M513.773 208.194L520.273 194.908M513.773 208.194L506.736 222.575M513.773 208.194H599.028M438.269 194.908H520.273M438.269 194.908H356.264M438.269 194.908L447.303 182.599M520.273 194.908L526.296 182.599M520.273 194.908H602.278M463.517 160.507H537.106M463.517 160.507L470.82 150.557M463.517 160.507H389.929M463.517 160.507L455.698 171.161M537.106 160.507L541.974 150.557M537.106 160.507L531.893 171.161M537.106 160.507H610.694M470.82 150.557H541.974M470.82 150.557H399.666M470.82 150.557L477.655 141.244M541.974 150.557L546.531 141.244M541.974 150.557H613.128M490.091 124.3H554.821M490.091 124.3L495.764 116.57M490.091 124.3H425.361M490.091 124.3L484.066 132.509M554.821 124.3L558.603 116.57M554.821 124.3L550.805 132.509M554.821 124.3H619.552M495.764 116.57H558.603M495.764 116.57H432.925M495.764 116.57L501.115 109.279M558.603 116.57L562.171 109.279M558.603 116.57H621.443M510.954 95.8729H568.731M510.954 95.8729L515.488 89.6958M510.954 95.8729H453.179M510.954 95.8729L506.17 102.392M568.731 95.8729L571.753 89.6958M568.731 95.8729L565.541 102.392M568.731 95.8729H626.507M515.488 89.6958H571.753M515.488 89.6958H459.224M515.488 89.6958L519.791 83.8334M571.753 89.6958L574.621 83.8334M571.753 89.6958H628.018M527.77 72.9619H579.94M527.77 72.9619L531.476 67.9123M527.77 72.9619H475.599M527.77 72.9619L523.88 78.2627M579.94 72.9619L582.412 67.9123M579.94 72.9619L577.347 78.2627M579.94 72.9619H632.112M531.476 67.9123H582.412M531.476 67.9123H480.54M531.476 67.9123L532.821 66.0799L535.011 63.0964M582.412 67.9123L584.768 63.0964M582.412 67.9123H633.347M541.611 54.1031H589.168M541.611 54.1031L544.697 49.8985M541.611 54.1031H494.054M541.611 54.1031L539.206 57.381L538.385 58.4981M589.168 54.1031L589.951 52.5047L591.226 49.8985M589.168 54.1031L587.018 58.4981M589.168 54.1031H636.726M544.697 49.8985L545.073 49.3855L547.653 45.8718M544.697 49.8985H591.226M544.697 49.8985H498.169M591.226 49.8985L591.975 48.3682L592.221 47.8634L592.467 47.3617L593.196 45.8718M591.226 49.8985H637.754M553.203 38.309H596.896M553.203 38.309L554.521 36.5133L554.847 36.0702L555.17 35.6289L555.492 35.1903L555.813 34.7535M553.203 38.309H509.51M553.203 38.309L550.485 42.0119M596.896 38.309L598.207 35.6289L598.423 35.1903L598.636 34.7535M596.896 38.309L595.085 42.0119M596.896 38.309H640.59M555.813 34.7535H598.636M555.813 34.7535H512.989M555.813 34.7535L557.392 32.6022L557.702 32.1781L558.32 31.3368M598.636 34.7535L599.688 32.6022L599.896 32.1781L600.102 31.7563L600.308 31.3368M598.636 34.7535H641.459M563.053 24.8884H603.463M563.053 24.8884L565.289 21.8427M563.053 24.8884H522.643M563.053 24.8884L562.481 25.6676L561.612 26.851L560.732 28.0507M603.463 24.8884L603.272 25.2771L602.112 27.6488L601.916 28.0507M603.463 24.8884L604.953 21.8427M603.463 24.8884H643.873M565.289 21.8427H604.953M565.289 21.8427H525.624M565.289 21.8427L567.443 18.9072M604.953 21.8427L605.498 20.7292L605.678 20.3614L605.857 19.9953L606.39 18.9072M604.953 21.8427H644.618M571.526 13.3438H609.111M571.526 13.3438L572.985 11.3567L573.462 10.7054M571.526 13.3438H533.941M571.526 13.3438L570.782 14.3571L570.533 14.6977L570.281 15.0401L569.52 16.0761M609.111 13.3438L609.276 13.0091L609.6 12.3437L609.924 11.6842L610.402 10.7054M609.111 13.3438L608.449 14.6977L608.282 15.0401L607.944 15.7291L607.775 16.0761M609.111 13.3438H646.697M573.462 10.7054H610.402M573.462 10.7054L575.103 8.47024L575.334 8.15636M573.462 10.7054H536.522M610.402 10.7054L610.561 10.382L610.718 10.06L610.875 9.7393L611.031 9.42L611.496 8.47024L611.65 8.15636M610.402 10.7054H647.343M785.599 273.849H886.917M785.599 273.849L781.042 255.22M785.599 273.849H684.282M785.599 273.849L790.608 294.32M886.917 273.849L877.802 255.22M886.917 273.849L896.933 294.32M886.917 273.849H988.234M781.042 255.22H877.802M781.042 255.22H684.282M781.042 255.22L776.877 238.195M877.802 255.22L869.471 238.195M877.802 255.22H974.562M769.537 208.194H854.792M769.537 208.194L766.287 194.908M769.537 208.194H684.282M769.537 208.194L773.056 222.575M854.792 208.194L848.291 194.908M854.792 208.194L861.829 222.575M854.792 208.194H940.046M766.287 194.908H848.291M766.287 194.908H684.282M766.287 194.908L763.275 182.599M848.291 194.908L842.269 182.599M848.291 194.908H930.296M757.87 160.507H831.459M757.87 160.507L755.436 150.557M757.87 160.507H684.282M757.87 160.507L760.478 171.161M831.459 160.507L826.59 150.557M831.459 160.507L836.672 171.161M831.459 160.507H905.047M755.436 150.557H826.59M755.436 150.557H684.282M755.436 150.557L753.158 141.244M826.59 150.557L822.034 141.244M826.59 150.557H897.745M749.013 124.3H813.744M749.013 124.3L747.122 116.57M749.013 124.3H684.282M749.013 124.3L751.021 132.509M813.744 124.3L809.962 116.57M813.744 124.3L817.76 132.509M813.744 124.3H878.473M747.122 116.57H809.962M747.122 116.57H684.282M747.122 116.57L745.338 109.279M809.962 116.57L806.394 109.279M809.962 116.57H872.801M742.058 95.8729H799.834M742.058 95.8729L740.547 89.6958M742.058 95.8729H684.282M742.058 95.8729L743.653 102.392M799.834 95.8729L796.812 89.6958M799.834 95.8729L803.023 102.392M799.834 95.8729H857.611M740.547 89.6958H796.812M740.547 89.6958H684.282M740.547 89.6958L739.113 83.8334M796.812 89.6958L793.944 83.8334M796.812 89.6958H853.077M736.453 72.9619H788.624M736.453 72.9619L735.218 67.9123M736.453 72.9619H684.282M736.453 72.9619L737.75 78.2627M788.624 72.9619L786.153 67.9123M788.624 72.9619L791.218 78.2627M788.624 72.9619H840.795M735.218 67.9123H786.153M735.218 67.9123H684.282M735.218 67.9123L734.04 63.0964M786.153 67.9123L783.797 63.0964M786.153 67.9123H837.089M731.839 54.1031H779.397M731.839 54.1031L730.81 49.8985M731.839 54.1031H684.282M731.839 54.1031L732.915 58.4981M779.397 54.1031L777.591 50.4142L777.339 49.8985M779.397 54.1031L781.547 58.4981M779.397 54.1031H826.953M730.81 49.8985L730.686 49.3855L729.825 45.8718M730.81 49.8985H777.339M730.81 49.8985H684.282M777.339 49.8985L776.59 48.3682L776.344 47.8634L776.098 47.3617L775.369 45.8718M777.339 49.8985H823.867M727.975 38.309H771.669M727.975 38.309L727.105 34.7535M727.975 38.309H684.282M727.975 38.309L728.311 39.6797L728.424 40.1414L728.537 40.6054L728.766 41.5406L728.882 42.0119M771.669 38.309L770.357 35.6289L769.928 34.7535M771.669 38.309L773.48 42.0119M771.669 38.309H815.362M727.105 34.7535H769.928M727.105 34.7535H684.282M727.105 34.7535L726.27 31.3368M769.928 34.7535L768.877 32.6022L768.669 32.1781L768.463 31.7563L768.257 31.3368M769.928 34.7535H812.752M724.692 24.8884H765.102M724.692 24.8884L723.947 21.8427M724.692 24.8884H684.282M724.692 24.8884L725.466 28.0507M765.102 24.8884L765.292 25.2771L766.453 27.6488L766.649 28.0507M765.102 24.8884L763.611 21.8427M765.102 24.8884H805.511M723.947 21.8427H763.611M723.947 21.8427H684.282M723.947 21.8427L723.229 18.9072M763.611 21.8427L763.067 20.7292L762.887 20.3614L762.707 19.9953L762.175 18.9072M763.611 21.8427H803.276M721.868 13.3438H759.454M721.868 13.3438L721.222 10.7054M721.868 13.3438H684.282M721.868 13.3438L722.536 16.0761M759.454 13.3438L759.289 13.0091L758.963 12.3437L758.802 12.013L758.48 11.3567L758.322 11.0302L758.162 10.7054M759.454 13.3438L760.116 14.6977L760.283 15.0401L760.621 15.7291L760.79 16.0761M759.454 13.3438H797.038M721.222 10.7054L721.144 10.382L721.064 10.06L720.986 9.7393L720.599 8.15636M721.222 10.7054H758.162M721.222 10.7054H684.282M758.162 10.7054H795.103M758.162 10.7054L757.847 10.06L757.689 9.7393L757.534 9.42L757.069 8.47024L756.915 8.15636M1190.87 273.849H1292.19M1190.87 273.849L1168.08 255.22M1190.87 273.849H1089.55M1190.87 273.849L1215.91 294.32M1292.19 273.849L1264.84 255.22M1292.19 273.849L1322.23 294.32M1292.19 273.849H1393.5M1168.08 255.22H1264.84M1168.08 255.22H1071.32M1168.08 255.22L1147.26 238.195M1264.84 255.22L1239.85 238.195M1264.84 255.22H1361.6M1110.56 208.194H1195.81M1110.56 208.194L1094.31 194.908M1110.56 208.194H1025.3M1110.56 208.194L1128.15 222.575M1195.81 208.194L1176.31 194.908M1195.81 208.194L1216.92 222.575M1195.81 208.194H1281.07M1094.31 194.908H1176.31M1094.31 194.908H1012.3M1094.31 194.908L1079.25 182.599M1176.31 194.908L1158.24 182.599M1176.31 194.908H1258.31M1052.22 160.507H1125.81M1052.22 160.507L1040.05 150.557M1052.22 160.507H978.635M1052.22 160.507L1065.26 171.161M1125.81 160.507L1111.21 150.557M1125.81 160.507L1141.45 171.161M1125.81 160.507H1199.4M1040.05 150.557H1111.21M1040.05 150.557H968.899M1040.05 150.557L1028.66 141.244M1111.21 150.557L1097.54 141.244M1111.21 150.557H1182.36M1007.93 124.3H1072.67M1007.93 124.3L998.48 116.57M1007.93 124.3H943.204M1007.93 124.3L1017.98 132.509M1072.67 124.3L1061.32 116.57M1072.67 124.3L1084.72 132.509M1072.67 124.3H1137.4M998.48 116.57H1061.32M998.48 116.57H935.64M998.48 116.57L989.561 109.279M1061.32 116.57L1050.62 109.279M1061.32 116.57H1124.16M973.162 95.8729H1030.94M973.162 95.8729L965.606 89.6958M973.162 95.8729H915.386M973.162 95.8729L981.135 102.392M1030.94 95.8729L1021.87 89.6958M1030.94 95.8729L1040.51 102.392M1030.94 95.8729H1088.71M965.606 89.6958H1021.87M965.606 89.6958H909.341M965.606 89.6958L958.435 83.8334M1021.87 89.6958L1013.27 83.8334M1021.87 89.6958H1078.14M945.137 72.9619H997.307M945.137 72.9619L938.96 67.9123M945.137 72.9619H892.965M945.137 72.9619L951.621 78.2627M997.307 72.9619L989.895 67.9123M997.307 72.9619L1005.09 78.2627M997.307 72.9619H1049.48M938.96 67.9123H989.895M938.96 67.9123H888.024M938.96 67.9123L933.069 63.0964M989.895 67.9123L982.826 63.0964M989.895 67.9123H1040.83M922.068 54.1031L922.726 54.6419L923.39 55.1835L927.443 58.4981M922.068 54.1031H969.625M922.068 54.1031L916.924 49.8985M922.068 54.1031H874.511M969.625 54.1031L963.453 49.8985M969.625 54.1031L976.076 58.4981M969.625 54.1031H1017.18M916.924 49.8985H963.453M916.924 49.8985H870.396M916.924 49.8985L911.999 45.8718M963.453 49.8985L957.542 45.8718M963.453 49.8985H1009.98M902.748 38.309H946.441M902.748 38.309L898.398 34.7535M902.748 38.309H859.055M902.748 38.309L907.277 42.0119M946.441 38.309L943.154 36.0702L941.222 34.7535M946.441 38.309L951.876 42.0119M946.441 38.309H990.134M898.398 34.7535H941.222M898.398 34.7535H855.575M898.398 34.7535L894.733 31.7563L894.219 31.3368M941.222 34.7535L936.206 31.3368M941.222 34.7535H984.045M886.332 24.8884H926.741M886.332 24.8884L885.387 24.116L882.606 21.8427M886.332 24.8884H845.922M886.332 24.8884L887.285 25.6676L889.219 27.2488L890.199 28.0507M926.741 24.8884L922.27 21.8427M926.741 24.8884L928.461 26.0604L929.622 26.851L931.383 28.0507M926.741 24.8884H967.151M882.606 21.8427H922.27M882.606 21.8427H842.941M882.606 21.8427L879.9 19.6307L879.014 18.9072M922.27 21.8427L920.636 20.7292L919.558 19.9953L917.961 18.9072M922.27 21.8427H961.935M872.21 13.3438H909.795M872.21 13.3438L870.179 11.6842L868.982 10.7054M872.21 13.3438H834.624M872.21 13.3438L875.552 16.0761M909.795 13.3438L906.878 11.3567L906.399 11.0302L905.922 10.7054M909.795 13.3438L911.783 14.6977L913.805 16.0761M909.795 13.3438H947.38M868.982 10.7054H905.922M868.982 10.7054L867.41 9.42L866.634 8.78545L866.248 8.47024L865.864 8.15636M868.982 10.7054H832.042M905.922 10.7054H942.863M905.922 10.7054L902.18 8.15636M1422.32 194.908H1340.32M1422.32 194.908L1395.22 182.599M1422.32 194.908H1446.89M1422.32 194.908L1446.89 206.067M1346.58 160.507H1420.17M1346.58 160.507L1324.67 150.557M1346.58 160.507H1272.99M1346.58 160.507L1370.04 171.161M1420.17 160.507L1395.82 150.557M1420.17 160.507L1446.23 171.161M1420.17 160.507H1446.89M1324.67 150.557H1395.82M1324.67 150.557H1253.52M1324.67 150.557L1304.16 141.244M1395.82 150.557L1373.04 141.244M1395.82 150.557H1446.89M1266.86 124.3H1331.59M1266.86 124.3L1249.84 116.57M1266.86 124.3H1202.13M1266.86 124.3L1284.93 132.509M1331.59 124.3L1312.68 116.57M1331.59 124.3L1351.67 132.509M1331.59 124.3H1396.32M1249.84 116.57H1312.68M1249.84 116.57H1187M1249.84 116.57L1233.78 109.279M1312.68 116.57L1294.84 109.279M1312.68 116.57H1375.52M1204.27 95.8729H1262.04M1204.27 95.8729L1190.67 89.6958M1204.27 95.8729H1146.49M1204.27 95.8729L1218.62 102.392M1262.04 95.8729L1246.93 89.6958M1262.04 95.8729L1277.99 102.392M1262.04 95.8729H1319.82M1190.67 89.6958H1246.93M1190.67 89.6958H1134.4M1190.67 89.6958L1177.76 83.8334M1246.93 89.6958L1232.59 83.8334M1246.93 89.6958H1303.19M1153.82 72.9619H1205.99M1153.82 72.9619L1142.7 67.9123M1153.82 72.9619H1101.65M1153.82 72.9619L1165.49 78.2627M1205.99 72.9619L1193.64 67.9123M1205.99 72.9619L1218.96 78.2627M1205.99 72.9619H1258.16M1142.7 67.9123H1193.64M1142.7 67.9123H1091.77M1142.7 67.9123L1132.1 63.0964M1193.64 67.9123L1181.85 63.0964M1193.64 67.9123H1244.57M1112.3 54.1031H1159.85M1112.3 54.1031L1103.04 49.8985M1112.3 54.1031H1064.74M1112.3 54.1031L1121.97 58.4981M1159.85 54.1031L1149.57 49.8985M1159.85 54.1031L1170.61 58.4981M1159.85 54.1031H1207.41M1103.04 49.8985H1149.57M1103.04 49.8985H1056.51M1103.04 49.8985L1094.17 45.8718M1149.57 49.8985L1139.71 45.8718M1149.57 49.8985H1196.09M1077.52 38.309H1121.21M1077.52 38.309L1069.69 34.7535M1077.52 38.309H1033.83M1077.52 38.309L1085.67 42.0119M1121.21 38.309L1112.51 34.7535M1121.21 38.309L1130.27 42.0119M1121.21 38.309H1164.91M1069.69 34.7535H1112.51M1069.69 34.7535H1026.87M1069.69 34.7535L1062.17 31.3368M1112.51 34.7535L1104.16 31.3368M1112.51 34.7535H1155.34M1047.97 24.8884H1088.38M1047.97 24.8884L1041.26 21.8427M1047.97 24.8884H1007.56M1047.97 24.8884L1049.69 25.6676L1050.55 26.0604L1054.93 28.0507M1088.38 24.8884L1080.93 21.8427M1088.38 24.8884L1096.12 28.0507M1088.38 24.8884H1128.79M1041.26 21.8427H1080.93M1041.26 21.8427H1001.6M1041.26 21.8427L1034.8 18.9072M1080.93 21.8427L1073.75 18.9072M1080.93 21.8427H1120.59M1022.55 13.3438H1060.14M1022.55 13.3438L1016.74 10.7054M1022.55 13.3438H984.966M1022.55 13.3438L1028.57 16.0761M1060.14 13.3438L1055.27 11.3567L1054.48 11.0302L1053.68 10.7054M1060.14 13.3438L1066.82 16.0761M1060.14 13.3438H1097.72M1016.74 10.7054H1053.68M1016.74 10.7054L1011.82 8.47024L1011.13 8.15636M1016.74 10.7054H979.802M1053.68 10.7054H1090.62M1053.68 10.7054L1047.45 8.15636M1435.37 95.8729L1415.72 89.6958M1435.37 95.8729H1377.59M1435.37 95.8729L1446.89 99.4964M1435.37 95.8729H1446.89M1415.72 89.6958H1359.46M1415.72 89.6958L1397.08 83.8334M1415.72 89.6958H1446.89M1362.5 72.9619H1414.67M1362.5 72.9619L1346.44 67.9123M1362.5 72.9619H1310.33M1362.5 72.9619L1379.36 78.2627M1414.67 72.9619L1397.38 67.9123M1414.67 72.9619L1432.83 78.2627M1414.67 72.9619H1446.89M1346.44 67.9123H1397.38M1346.44 67.9123H1295.51M1346.44 67.9123L1331.13 63.0964M1397.38 67.9123L1380.88 63.0964M1397.38 67.9123H1446.89M1302.52 54.1031H1350.08M1302.52 54.1031L1289.15 49.8985M1302.52 54.1031H1254.97M1302.52 54.1031L1316.5 58.4981M1350.08 54.1031L1335.68 49.8985M1350.08 54.1031L1365.13 58.4981M1350.08 54.1031H1397.64M1289.15 49.8985H1335.68M1289.15 49.8985H1242.62M1289.15 49.8985L1276.34 45.8718M1335.68 49.8985L1321.89 45.8718M1335.68 49.8985H1382.21M1252.29 38.309H1295.99M1252.29 38.309L1240.98 34.7535M1252.29 38.309H1208.6M1252.29 38.309L1264.07 42.0119M1295.99 38.309L1283.81 34.7535M1295.99 38.309L1308.67 42.0119M1295.99 38.309H1339.68M1240.98 34.7535H1283.81M1240.98 34.7535H1198.16M1240.98 34.7535L1230.12 31.3368M1283.81 34.7535L1272.1 31.3368M1283.81 34.7535H1326.63M1209.61 24.8884H1250.02M1209.61 24.8884L1199.92 21.8427M1209.61 24.8884H1169.2M1209.61 24.8884L1219.67 28.0507M1250.02 24.8884L1239.59 21.8427M1250.02 24.8884L1260.85 28.0507M1250.02 24.8884H1290.43M1199.92 21.8427H1239.59M1199.92 21.8427H1160.26M1199.92 21.8427L1190.59 18.9072M1239.59 21.8427L1229.53 18.9072M1239.59 21.8427H1279.25M1172.89 13.3438H1210.48M1172.89 13.3438L1164.5 10.7054M1172.89 13.3438H1135.31M1172.89 13.3438L1181.58 16.0761M1210.48 13.3438L1201.44 10.7054M1210.48 13.3438L1219.84 16.0761M1210.48 13.3438H1248.06M1164.5 10.7054H1201.44M1164.5 10.7054L1156.39 8.15636M1164.5 10.7054H1127.56M1201.44 10.7054H1238.38M1201.44 10.7054L1192.71 8.15636M1427.06 38.309L1412.28 34.7535M1427.06 38.309H1383.37M1427.06 38.309L1442.47 42.0119M1427.06 38.309H1446.89M1412.28 34.7535H1369.45M1412.28 34.7535L1398.07 31.3368M1412.28 34.7535H1446.89M1371.25 24.8884H1411.66M1371.25 24.8884L1358.58 21.8427M1371.25 24.8884H1330.84M1371.25 24.8884L1384.4 28.0507M1411.66 24.8884L1398.25 21.8427M1411.66 24.8884L1425.58 28.0507M1411.66 24.8884H1446.89M1358.58 21.8427H1398.25M1358.58 21.8427H1318.92M1358.58 21.8427L1346.37 18.9072M1398.25 21.8427L1385.32 18.9072M1398.25 21.8427H1437.91M1323.23 13.3438H1360.82M1323.23 13.3438L1312.26 10.7054M1323.23 13.3438H1285.65M1323.23 13.3438L1334.6 16.0761M1360.82 13.3438L1349.2 10.7054M1360.82 13.3438L1372.85 16.0761M1360.82 13.3438H1398.41M1312.26 10.7054H1349.2M1312.26 10.7054L1301.66 8.15636M1312.26 10.7054H1275.32M1349.2 10.7054H1386.14M1349.2 10.7054L1337.98 8.15636M1372.85 16.0761L1385.32 18.9072M1372.85 16.0761H1411.11M1372.85 16.0761H1334.6M1398.41 13.3438L1386.14 10.7054M1398.41 13.3438L1411.11 16.0761M1398.41 13.3438H1435.99M1386.14 10.7054H1423.08M1386.14 10.7054L1374.29 8.15636M1337.98 8.15636H1301.66M1337.98 8.15636H1374.29M1337.98 8.15636L1327.12 5.69169M1411.11 16.0761L1424.27 18.9072M1411.11 16.0761H1446.89M1435.99 13.3438L1423.08 10.7054M1435.99 13.3438L1446.89 15.572M1435.99 13.3438H1446.89M1423.08 10.7054L1410.61 8.15636M1423.08 10.7054H1446.89M1374.29 8.15636H1410.61M1374.29 8.15636L1362.84 5.69169M1410.61 8.15636L1398.55 5.69169M1410.61 8.15636H1446.89M1385.32 18.9072H1424.27M1385.32 18.9072H1346.37M1437.91 21.8427L1424.27 18.9072M1437.91 21.8427L1446.89 23.775M1437.91 21.8427H1446.89M1424.27 18.9072H1446.89M1346.37 18.9072H1307.43M1346.37 18.9072L1334.6 16.0761M1334.6 16.0761H1296.34M1425.58 28.0507L1440.05 31.3368M1425.58 28.0507H1384.4M1425.58 28.0507H1446.89M1447.02 24.8884H1446.89M1440.05 31.3368H1398.07M1440.05 31.3368L1446.89 32.8898M1440.05 31.3368H1446.89M1398.07 31.3368H1356.08M1398.07 31.3368L1384.4 28.0507M1384.4 28.0507H1343.22M1219.84 16.0761L1229.53 18.9072M1219.84 16.0761H1258.09M1219.84 16.0761H1181.58M1248.06 13.3438L1238.38 10.7054M1248.06 13.3438L1258.09 16.0761M1248.06 13.3438H1285.65M1238.38 10.7054H1275.32M1238.38 10.7054L1229.03 8.15636M1192.71 8.15636H1229.03M1192.71 8.15636L1184.27 5.69169M1192.71 8.15636H1156.39M1258.09 16.0761L1268.48 18.9072M1258.09 16.0761H1296.34M1285.65 13.3438L1275.32 10.7054M1285.65 13.3438L1296.34 16.0761M1275.32 10.7054L1265.34 8.15636M1229.03 8.15636H1265.34M1229.03 8.15636L1219.98 5.69169M1296.34 16.0761L1307.43 18.9072M1301.66 8.15636H1265.34M1301.66 8.15636L1291.41 5.69169M1265.34 8.15636L1255.7 5.69169M1229.53 18.9072H1268.48M1229.53 18.9072H1190.59M1279.25 21.8427L1268.48 18.9072M1279.25 21.8427L1290.43 24.8884M1279.25 21.8427H1318.92M1268.48 18.9072H1307.43M1190.59 18.9072H1151.64M1190.59 18.9072L1181.58 16.0761M1307.43 18.9072L1318.92 21.8427M1181.58 16.0761H1143.33M1290.43 24.8884L1302.03 28.0507M1290.43 24.8884H1330.84M1318.92 21.8427L1330.84 24.8884M1330.84 24.8884L1343.22 28.0507M1260.85 28.0507L1272.1 31.3368M1260.85 28.0507H1302.03M1260.85 28.0507H1219.67M1302.03 28.0507L1314.09 31.3368M1302.03 28.0507H1343.22M1343.22 28.0507L1356.08 31.3368M1272.1 31.3368H1314.09M1272.1 31.3368H1230.12M1326.63 34.7535L1314.09 31.3368M1326.63 34.7535L1339.68 38.309M1326.63 34.7535H1369.45M1314.09 31.3368H1356.08M1230.12 31.3368H1188.13M1230.12 31.3368L1219.67 28.0507M1356.08 31.3368L1369.45 34.7535M1219.67 28.0507H1178.48M1339.68 38.309L1353.27 42.0119M1339.68 38.309H1383.37M1369.45 34.7535L1383.37 38.309M1383.37 38.309L1397.87 42.0119M1308.67 42.0119L1321.89 45.8718M1308.67 42.0119H1353.27M1308.67 42.0119H1264.07M1353.27 42.0119L1367.43 45.8718M1353.27 42.0119H1397.87M1397.87 42.0119L1412.97 45.8718M1397.87 42.0119H1442.47M1442.47 42.0119H1446.89M1442.47 42.0119L1446.89 43.0766M1321.89 45.8718H1367.43M1321.89 45.8718H1276.34M1382.21 49.8985L1367.43 45.8718M1382.21 49.8985L1397.64 54.1031M1382.21 49.8985H1428.74M1367.43 45.8718H1412.97M1276.34 45.8718H1230.8M1276.34 45.8718L1264.07 42.0119M1412.97 45.8718L1428.74 49.8985M1412.97 45.8718H1446.89M1264.07 42.0119H1219.47M1397.64 54.1031L1413.77 58.4981M1397.64 54.1031H1445.2M1428.74 49.8985L1445.2 54.1031M1428.74 49.8985H1446.89M1447.13 45.8718H1446.89M1445.2 54.1031L1446.89 54.537M1445.2 54.1031H1446.89M1365.13 58.4981L1380.88 63.0964M1365.13 58.4981H1413.77M1365.13 58.4981H1316.5M1413.77 58.4981L1430.64 63.0964M1413.77 58.4981H1446.89M1447.3 54.6419L1446.89 54.537M1380.88 63.0964H1430.64M1380.88 63.0964H1331.13M1430.64 63.0964H1446.89M1430.64 63.0964L1446.89 67.5253M1331.13 63.0964H1281.37M1331.13 63.0964L1316.5 58.4981M1316.5 58.4981H1267.87M1432.83 78.2627H1379.36M1432.83 78.2627L1446.89 82.369M1432.83 78.2627H1446.89M1447.28 72.9619H1446.89M1379.36 78.2627H1325.89M1379.36 78.2627L1397.08 83.8334M1447.05 82.4142L1446.89 82.369M1066.82 16.0761L1073.75 18.9072M1066.82 16.0761H1105.07M1066.82 16.0761H1028.57M1097.72 13.3438L1090.62 10.7054M1097.72 13.3438L1105.07 16.0761M1097.72 13.3438H1135.31M1090.62 10.7054H1127.56M1090.62 10.7054L1083.76 8.15636M1047.45 8.15636H1083.76M1047.45 8.15636L1045.16 7.22247L1041.42 5.69169M1047.45 8.15636H1011.13M1105.07 16.0761L1112.69 18.9072M1105.07 16.0761H1143.33M1135.31 13.3438L1127.56 10.7054M1135.31 13.3438L1143.33 16.0761M1127.56 10.7054L1120.08 8.15636M1083.76 8.15636H1120.08M1083.76 8.15636L1077.13 5.69169M1143.33 16.0761L1151.64 18.9072M1156.39 8.15636L1148.56 5.69169M1156.39 8.15636H1120.08M1120.08 8.15636L1119.16 7.8434L1117.34 7.22247L1112.84 5.69169M1073.75 18.9072H1112.69M1073.75 18.9072H1034.8M1120.59 21.8427L1112.69 18.9072M1120.59 21.8427L1128.79 24.8884M1120.59 21.8427H1160.26M1112.69 18.9072H1151.64M1034.8 18.9072H995.855M1034.8 18.9072L1028.57 16.0761M1151.64 18.9072L1160.26 21.8427M1028.57 16.0761H990.313M1128.79 24.8884L1137.3 28.0507M1128.79 24.8884H1169.2M1160.26 21.8427L1161.36 22.2169L1169.2 24.8884M1169.2 24.8884L1178.48 28.0507M1096.12 28.0507L1097.1 28.4548L1104.16 31.3368M1096.12 28.0507H1137.3M1096.12 28.0507H1054.93M1137.3 28.0507L1146.14 31.3368M1137.3 28.0507H1178.48M1178.48 28.0507L1188.13 31.3368M1104.16 31.3368H1146.14M1104.16 31.3368H1062.17M1155.34 34.7535L1146.14 31.3368M1155.34 34.7535L1164.91 38.309M1155.34 34.7535H1198.16M1146.14 31.3368H1188.13M1062.17 31.3368H1020.18M1062.17 31.3368L1054.93 28.0507M1188.13 31.3368L1198.16 34.7535M1054.93 28.0507H1013.75M1164.91 38.309L1174.87 42.0119M1164.91 38.309H1208.6M1198.16 34.7535L1208.6 38.309M1208.6 38.309L1219.47 42.0119M1130.27 42.0119L1139.71 45.8718M1130.27 42.0119H1174.87M1130.27 42.0119H1085.67M1174.87 42.0119L1185.26 45.8718M1174.87 42.0119H1219.47M1219.47 42.0119L1230.8 45.8718M1139.71 45.8718H1185.26M1139.71 45.8718H1094.17M1196.09 49.8985L1185.26 45.8718M1196.09 49.8985L1207.41 54.1031M1196.09 49.8985H1242.62M1185.26 45.8718H1230.8M1094.17 45.8718H1048.63M1094.17 45.8718L1085.67 42.0119M1230.8 45.8718L1242.62 49.8985M1085.67 42.0119H1041.07M1207.41 54.1031L1219.24 58.4981M1207.41 54.1031H1254.97M1242.62 49.8985L1254.97 54.1031M1254.97 54.1031L1267.87 58.4981M1170.61 58.4981L1181.85 63.0964M1170.61 58.4981H1219.24M1170.61 58.4981H1121.97M1219.24 58.4981L1231.61 63.0964M1219.24 58.4981H1267.87M1267.87 58.4981L1281.37 63.0964M1181.85 63.0964H1231.61M1181.85 63.0964H1132.1M1244.57 67.9123L1231.61 63.0964M1244.57 67.9123L1258.16 72.9619M1244.57 67.9123H1295.51M1231.61 63.0964H1281.37M1132.1 63.0964H1082.34M1132.1 63.0964L1121.97 58.4981M1281.37 63.0964L1295.51 67.9123M1121.97 58.4981H1073.34M1258.16 72.9619L1272.43 78.2627M1258.16 72.9619H1310.33M1295.51 67.9123L1310.33 72.9619M1310.33 72.9619L1325.89 78.2627M1218.96 78.2627L1232.59 83.8334M1218.96 78.2627H1272.43M1218.96 78.2627H1165.49M1272.43 78.2627L1287.42 83.8334M1272.43 78.2627H1325.89M1325.89 78.2627L1342.25 83.8334M1232.59 83.8334H1287.42M1232.59 83.8334H1177.76M1303.19 89.6958L1287.42 83.8334M1303.19 89.6958L1319.82 95.8729M1303.19 89.6958H1359.46M1287.42 83.8334H1342.25M1177.76 83.8334H1122.93M1177.76 83.8334L1165.49 78.2627M1342.25 83.8334L1359.46 89.6958M1342.25 83.8334H1397.08M1165.49 78.2627H1112.02M1319.82 95.8729L1337.36 102.392M1319.82 95.8729H1377.59M1359.46 89.6958L1377.59 95.8729M1397.08 83.8334H1446.89M1377.59 95.8729L1396.73 102.392M1277.99 102.392L1294.84 109.279M1277.99 102.392H1337.36M1277.99 102.392H1218.62M1337.36 102.392L1355.9 109.279M1337.36 102.392H1396.73M1396.73 102.392L1416.95 109.279M1396.73 102.392H1446.89M1294.84 109.279H1355.9M1294.84 109.279H1233.78M1375.52 116.57L1355.9 109.279M1375.52 116.57L1396.32 124.3M1375.52 116.57H1438.36M1355.9 109.279H1416.95M1233.78 109.279H1172.73M1233.78 109.279L1218.62 102.392M1416.95 109.279L1438.36 116.57M1416.95 109.279H1446.89M1218.62 102.392H1159.25M1396.32 124.3L1418.41 132.509M1396.32 124.3H1446.89M1438.36 116.57H1446.89M1438.36 116.57L1446.89 119.479M1351.67 132.509L1373.04 141.244M1351.67 132.509H1418.41M1351.67 132.509H1284.93M1418.41 132.509L1441.92 141.244M1418.41 132.509H1446.89M1373.04 141.244H1441.92M1373.04 141.244H1304.16M1441.92 141.244L1446.89 143.094M1441.92 141.244H1446.89M1304.16 141.244H1235.29M1304.16 141.244L1284.93 132.509M1284.93 132.509H1218.19M1446.23 171.161H1370.04M1446.23 171.161H1446.89M1446.23 171.161L1446.89 171.432M1370.04 171.161H1293.84M1370.04 171.161L1395.22 182.599M913.805 16.0761L915.347 17.1256L915.864 17.479L917.961 18.9072M913.805 16.0761H952.059M913.805 16.0761H875.552M947.38 13.3438L943.977 11.3567L942.863 10.7054M947.38 13.3438L951.466 15.7291L952.059 16.0761M947.38 13.3438H984.966M942.863 10.7054H979.802M942.863 10.7054L938.497 8.15636M902.18 8.15636H938.497M902.18 8.15636L900.809 7.22247L898.563 5.69169M902.18 8.15636H865.864M952.059 16.0761L953.256 16.7741L956.908 18.9072M952.059 16.0761H990.313M984.966 13.3438L979.802 10.7054M984.966 13.3438L990.313 16.0761M979.802 10.7054L976.044 8.78545L974.813 8.15636M938.497 8.15636H974.813M938.497 8.15636L934.276 5.69169M990.313 16.0761L995.855 18.9072M1011.13 8.15636L1010.44 7.8434L1005.7 5.69169M1011.13 8.15636H974.813M974.813 8.15636L972.985 7.22247L969.989 5.69169M917.961 18.9072H956.908M917.961 18.9072H879.014M961.935 21.8427L956.908 18.9072M961.935 21.8427L967.151 24.8884M961.935 21.8427H1001.6M956.908 18.9072H995.855M879.014 18.9072H840.068M879.014 18.9072L875.552 16.0761M995.855 18.9072L1001.6 21.8427M875.552 16.0761H837.298M967.151 24.8884L970.511 26.851L971.194 27.2488L972.566 28.0507M967.151 24.8884H1007.56M1001.6 21.8427L1007.56 24.8884M1007.56 24.8884L1013.75 28.0507M931.383 28.0507L936.206 31.3368M931.383 28.0507H972.566M931.383 28.0507H890.199M972.566 28.0507L978.194 31.3368M972.566 28.0507H1013.75M1013.75 28.0507L1020.18 31.3368M936.206 31.3368H978.194M936.206 31.3368H894.219M984.045 34.7535L980.361 32.6022L979.636 32.1781L978.194 31.3368M984.045 34.7535L990.134 38.309M984.045 34.7535H1026.87M978.194 31.3368H1020.18M894.219 31.3368H852.232M894.219 31.3368L890.199 28.0507M1020.18 31.3368L1026.87 34.7535M890.199 28.0507H849.016M990.134 38.309L996.476 42.0119M990.134 38.309H1033.83M1026.87 34.7535L1033.83 38.309M1033.83 38.309L1041.07 42.0119M951.876 42.0119L954.68 43.9214L955.389 44.4054L957.542 45.8718M951.876 42.0119H996.476M951.876 42.0119H907.277M996.476 42.0119L1003.08 45.8718M996.476 42.0119H1041.07M1041.07 42.0119L1048.63 45.8718M957.542 45.8718H1003.08M957.542 45.8718H911.999M1009.98 49.8985L1003.08 45.8718M1009.98 49.8985L1017.18 54.1031M1009.98 49.8985H1056.51M1003.08 45.8718H1048.63M911.999 45.8718H866.455M911.999 45.8718L910.799 44.8916L907.277 42.0119M1048.63 45.8718L1056.51 49.8985M907.277 42.0119H862.679M1017.18 54.1031L1024.71 58.4981M1017.18 54.1031H1064.74M1056.51 49.8985L1064.74 54.1031M1064.74 54.1031L1073.34 58.4981M976.076 58.4981L982.826 63.0964M976.076 58.4981H1024.71M976.076 58.4981H927.443M1024.71 58.4981L1032.58 63.0964M1024.71 58.4981H1073.34M1073.34 58.4981L1082.34 63.0964M982.826 63.0964H1032.58M982.826 63.0964H933.069M1040.83 67.9123L1032.58 63.0964M1040.83 67.9123L1049.48 72.9619M1040.83 67.9123H1091.77M1032.58 63.0964H1082.34M933.069 63.0964H883.311M933.069 63.0964L927.443 58.4981M1082.34 63.0964L1091.77 67.9123M927.443 58.4981H878.812M1049.48 72.9619L1058.56 78.2627M1049.48 72.9619H1101.65M1091.77 67.9123L1101.65 72.9619M1101.65 72.9619L1112.02 78.2627M1005.09 78.2627L1013.27 83.8334M1005.09 78.2627H1058.56M1005.09 78.2627H951.621M1058.56 78.2627L1068.1 83.8334M1058.56 78.2627H1112.02M1112.02 78.2627L1122.93 83.8334M1013.27 83.8334H1068.1M1013.27 83.8334H958.435M1078.14 89.6958L1068.1 83.8334M1078.14 89.6958L1088.71 95.8729M1078.14 89.6958H1134.4M1068.1 83.8334H1122.93M958.435 83.8334H903.605M958.435 83.8334L951.621 78.2627M1122.93 83.8334L1134.4 89.6958M951.621 78.2627H898.153M1088.71 95.8729L1099.88 102.392M1088.71 95.8729H1146.49M1134.4 89.6958L1146.49 95.8729M1146.49 95.8729L1159.25 102.392M1040.51 102.392L1050.62 109.279M1040.51 102.392H1099.88M1040.51 102.392H981.135M1099.88 102.392L1111.67 109.279M1099.88 102.392H1159.25M1159.25 102.392L1172.73 109.279M1050.62 109.279H1111.67M1050.62 109.279H989.561M1124.16 116.57L1111.67 109.279M1124.16 116.57L1137.4 124.3M1124.16 116.57H1187M1111.67 109.279H1172.73M989.561 109.279H928.506M989.561 109.279L981.135 102.392M1172.73 109.279L1187 116.57M981.135 102.392H921.765M1137.4 124.3L1151.45 132.509M1137.4 124.3H1202.13M1187 116.57L1202.13 124.3M1202.13 124.3L1218.19 132.509M1084.72 132.509L1097.54 141.244M1084.72 132.509H1151.45M1084.72 132.509H1017.98M1151.45 132.509L1166.41 141.244M1151.45 132.509H1218.19M1218.19 132.509L1235.29 141.244M1097.54 141.244H1166.41M1097.54 141.244H1028.66M1182.36 150.557L1166.41 141.244M1182.36 150.557L1199.4 160.507M1182.36 150.557H1253.52M1166.41 141.244H1235.29M1028.66 141.244H959.785M1028.66 141.244L1017.98 132.509M1235.29 141.244L1253.52 150.557M1017.98 132.509H951.238M1199.4 160.507L1217.65 171.161M1199.4 160.507H1272.99M1253.52 150.557L1272.99 160.507M1272.99 160.507L1293.84 171.161M1141.45 171.161L1158.24 182.599M1141.45 171.161H1217.65M1141.45 171.161H1065.26M1217.65 171.161L1237.23 182.599M1217.65 171.161H1293.84M1293.84 171.161L1316.23 182.599M1158.24 182.599H1237.23M1158.24 182.599H1079.25M1258.31 194.908L1237.23 182.599M1258.31 194.908L1281.07 208.194M1258.31 194.908H1340.32M1237.23 182.599H1316.23M1079.25 182.599H1000.25M1079.25 182.599L1065.26 171.161M1316.23 182.599L1340.32 194.908M1316.23 182.599H1395.22M1065.26 171.161H989.062M1281.07 208.194L1305.69 222.575M1281.07 208.194H1366.32M1340.32 194.908L1366.32 208.194M1395.22 182.599H1446.89M1366.32 208.194L1394.47 222.575M1366.32 208.194H1446.89M1216.92 222.575L1239.85 238.195M1216.92 222.575H1305.69M1216.92 222.575H1128.15M1305.69 222.575L1332.44 238.195M1305.69 222.575H1394.47M1394.47 222.575L1425.04 238.195M1394.47 222.575H1446.89M1239.85 238.195H1332.44M1239.85 238.195H1147.26M1361.6 255.22L1332.44 238.195M1361.6 255.22L1393.5 273.849M1361.6 255.22H1446.89M1332.44 238.195H1425.04M1147.26 238.195H1054.66M1147.26 238.195L1128.15 222.575M1425.04 238.195H1446.89M1425.04 238.195L1446.89 249.362M1128.15 222.575H1039.37M1393.5 273.849L1428.56 294.32M1393.5 273.849H1446.89M1322.23 294.32L1355.41 316.92M1322.23 294.32H1428.56M1322.23 294.32H1215.91M1428.56 294.32L1446.89 305.026M1428.56 294.32H1446.89M1355.41 316.92H1243.55M1355.41 316.92L1446.89 316.919M1243.55 316.92H1131.7M1243.55 316.92L1215.91 294.32M1215.91 294.32H1109.58M760.79 16.0761L760.961 16.4244L761.131 16.7741L761.304 17.1256L761.476 17.479L762 18.5476L762.175 18.9072M760.79 16.0761H799.044M760.79 16.0761H722.536M797.038 13.3438L795.58 11.3567L795.103 10.7054M797.038 13.3438L798.284 15.0401L799.044 16.0761M797.038 13.3438H834.624M795.103 10.7054H832.042M795.103 10.7054L793.693 8.78545L793.231 8.15636M756.915 8.15636L756.762 7.8434L756.157 6.60607L755.709 5.69169M756.915 8.15636H793.231M756.915 8.15636H720.599M799.044 16.0761L799.299 16.4244L799.557 16.7741L799.814 17.1256L800.074 17.479L801.122 18.9072M799.044 16.0761H837.298M834.624 13.3438L832.679 11.3567L832.042 10.7054M834.624 13.3438L837.298 16.0761M832.042 10.7054L830.784 9.42L829.855 8.47024L829.548 8.15636M793.231 8.15636L793.002 7.8434L792.546 7.22247L792.093 6.60607L791.869 6.29992L791.422 5.69169M793.231 8.15636H829.548M837.298 16.0761L839.367 18.1897L840.068 18.9072M865.864 8.15636L863.594 6.29992L862.849 5.69169M865.864 8.15636H829.548M829.548 8.15636L827.433 5.99512L827.135 5.69169M762.175 18.9072H801.122M762.175 18.9072H723.229M803.276 21.8427L801.122 18.9072M803.276 21.8427L805.511 24.8884M803.276 21.8427H842.941M801.122 18.9072H840.068M723.229 18.9072H684.282M723.229 18.9072L722.536 16.0761M840.068 18.9072L842.941 21.8427M722.536 16.0761H684.282M805.511 24.8884L806.084 25.6676L806.952 26.851L807.833 28.0507M805.511 24.8884H845.922M842.941 21.8427L843.308 22.2169L845.922 24.8884M845.922 24.8884L846.302 25.2771L846.684 25.6676L847.068 26.0604L849.016 28.0507M766.649 28.0507L768.257 31.3368M766.649 28.0507H807.833M766.649 28.0507H725.466M807.833 28.0507L810.244 31.3368M807.833 28.0507H849.016M849.016 28.0507L851.416 30.5031L851.823 30.919L852.232 31.3368M768.257 31.3368H810.244M768.257 31.3368H726.27M812.752 34.7535L813.072 35.1903L813.395 35.6289L813.718 36.0702L815.362 38.309M812.752 34.7535L811.486 33.0281L811.173 32.6022L810.862 32.1781L810.244 31.3368M812.752 34.7535H855.575M810.244 31.3368H852.232M726.27 31.3368H684.282M726.27 31.3368L725.466 28.0507M852.232 31.3368L855.575 34.7535M725.466 28.0507H684.282M815.362 38.309L817.734 41.5406L818.079 42.0119M815.362 38.309H859.055M855.575 34.7535L856.432 35.6289L859.055 38.309M859.055 38.309L860.396 39.6797L862.679 42.0119M773.48 42.0119L774.415 43.9214L774.651 44.4054L775.369 45.8718M773.48 42.0119H818.079M773.48 42.0119H728.882M818.079 42.0119L820.912 45.8718M818.079 42.0119H862.679M862.679 42.0119L866.455 45.8718M775.369 45.8718H820.912M775.369 45.8718H729.825M823.867 49.8985L820.912 45.8718M823.867 49.8985L826.953 54.1031M823.867 49.8985H870.396M820.912 45.8718H866.455M729.825 45.8718H684.282M729.825 45.8718L729.586 44.8916L729.114 42.9617L728.882 42.0119M866.455 45.8718L870.396 49.8985M728.882 42.0119H684.282M826.953 54.1031L829.359 57.381L830.18 58.4981M826.953 54.1031H874.511M870.396 49.8985L874.511 54.1031M874.511 54.1031L876.637 56.2761L878.812 58.4981M781.547 58.4981L783.797 63.0964M781.547 58.4981H830.18M781.547 58.4981H732.915M830.18 58.4981L833.554 63.0964M830.18 58.4981H878.812M878.812 58.4981L883.311 63.0964M783.797 63.0964H833.554M783.797 63.0964H734.04M837.089 67.9123L836.189 66.6873L833.554 63.0964M837.089 67.9123L840.795 72.9619M837.089 67.9123H888.024M833.554 63.0964H883.311M734.04 63.0964H684.282M734.04 63.0964L732.915 58.4981M883.311 63.0964L888.024 67.9123M732.915 58.4981H684.282M840.795 72.9619L844.685 78.2627M840.795 72.9619H892.965M888.024 67.9123L892.965 72.9619M892.965 72.9619L898.153 78.2627M791.218 78.2627L793.944 83.8334M791.218 78.2627H844.685M791.218 78.2627H737.75M844.685 78.2627L848.774 83.8334M844.685 78.2627H898.153M898.153 78.2627L903.605 83.8334M793.944 83.8334H848.774M793.944 83.8334H739.113M853.077 89.6958L848.774 83.8334M853.077 89.6958L857.611 95.8729M853.077 89.6958H909.341M848.774 83.8334H903.605M739.113 83.8334H684.282M739.113 83.8334L737.916 78.944L737.75 78.2627M903.605 83.8334L909.341 89.6958M737.75 78.2627H684.282M857.611 95.8729L862.394 102.392M857.611 95.8729H915.386M909.341 89.6958L913.844 94.2981L915.386 95.8729M915.386 95.8729L921.765 102.392M803.023 102.392L806.394 109.279M803.023 102.392H862.394M803.023 102.392H743.653M862.394 102.392L867.45 109.279M862.394 102.392H921.765M921.765 102.392L928.506 109.279M806.394 109.279H867.45M806.394 109.279H745.338M872.801 116.57L867.45 109.279M872.801 116.57L878.473 124.3M872.801 116.57H935.64M867.45 109.279H928.506M745.338 109.279H684.282M745.338 109.279L743.653 102.392M928.506 109.279L935.64 116.57M743.653 102.392H684.282M878.473 124.3L884.499 132.509M878.473 124.3H943.204M935.64 116.57L943.204 124.3M943.204 124.3L951.238 132.509M817.76 132.509L822.034 141.244M817.76 132.509H884.499M817.76 132.509H751.021M884.499 132.509L890.91 141.244M884.499 132.509H951.238M951.238 132.509L959.785 141.244M822.034 141.244H890.91M822.034 141.244H753.158M897.745 150.557L890.91 141.244M897.745 150.557L905.047 160.507M897.745 150.557H968.899M890.91 141.244H959.785M753.158 141.244H684.282M753.158 141.244L751.021 132.509M959.785 141.244L968.899 150.557M751.021 132.509H684.282M905.047 160.507L912.867 171.161M905.047 160.507H978.635M968.899 150.557L978.635 160.507M978.635 160.507L989.062 171.161M836.672 171.161L842.269 182.599M836.672 171.161H912.867M836.672 171.161H760.478M912.867 171.161L921.262 182.599M912.867 171.161H989.062M989.062 171.161L1000.25 182.599M842.269 182.599H921.262M842.269 182.599H763.275M930.296 194.908L921.262 182.599M930.296 194.908L940.046 208.194M930.296 194.908H1012.3M921.262 182.599H1000.25M763.275 182.599H684.282M763.275 182.599L760.478 171.161M1000.25 182.599L1012.3 194.908M760.478 171.161H684.282M940.046 208.194L950.602 222.575M940.046 208.194H1025.3M1012.3 194.908L1025.3 208.194M1025.3 208.194L1039.37 222.575M861.829 222.575L869.471 238.195M861.829 222.575H950.602M861.829 222.575H773.056M950.602 222.575L962.066 238.195M950.602 222.575H1039.37M1039.37 222.575L1054.66 238.195M869.471 238.195H962.066M869.471 238.195H776.877M974.562 255.22L962.066 238.195M974.562 255.22L988.234 273.849M974.562 255.22H1071.32M962.066 238.195H1054.66M776.877 238.195H684.282M776.877 238.195L773.056 222.575M1054.66 238.195L1071.32 255.22M773.056 222.575H684.282M988.234 273.849L1003.26 294.32M988.234 273.849H1089.55M1071.32 255.22L1089.55 273.849M1089.55 273.849L1109.58 294.32M896.933 294.32L907.99 316.92M896.933 294.32H1003.26M896.933 294.32H790.608M1003.26 294.32L1019.84 316.92M1003.26 294.32H1109.58M1109.58 294.32L1131.7 316.92M1019.84 316.92H907.99M1019.84 316.92H1131.7M907.99 316.92H796.137M796.137 316.92H684.282M796.137 316.92L790.608 294.32M790.608 294.32H684.282M607.775 16.0761L607.604 16.4244L607.433 16.7741L607.261 17.1256L607.089 17.479L606.741 18.1897L606.565 18.5476L606.39 18.9072M607.775 16.0761H646.029M607.775 16.0761H569.52M646.697 13.3438L647.343 10.7054M646.697 13.3438L646.029 16.0761M646.697 13.3438H684.282M647.343 10.7054L647.421 10.382L647.501 10.06L647.579 9.7393L647.966 8.15636M647.343 10.7054H684.282M611.65 8.15636L611.803 7.8434L612.408 6.60607L612.856 5.69169M611.65 8.15636H647.966M611.65 8.15636H575.334M646.029 16.0761L645.943 16.4244L645.858 16.7741L645.771 17.1256L645.336 18.9072M646.029 16.0761H684.282M684.282 13.3438V10.7054M684.282 13.3438V16.0761M684.282 10.7054V8.15636M647.966 8.15636H684.282M647.966 8.15636L648.194 7.22247L648.27 6.91359L648.569 5.69169M684.282 16.0761V18.9072M720.599 8.15636L720.371 7.22247L720.294 6.91359L720.22 6.60607L720.144 6.29992L720.07 5.99512L719.996 5.69169M720.599 8.15636H684.282M684.282 8.15636V5.69169M606.39 18.9072H645.336M606.39 18.9072H567.443M644.618 21.8427L644.526 22.2169L644.434 22.5934L643.873 24.8884M644.618 21.8427L645.336 18.9072M644.618 21.8427H684.282M645.336 18.9072H684.282M567.443 18.9072H528.497M567.443 18.9072L567.969 18.1897L568.231 17.8336L568.491 17.479L568.751 17.1256L569.008 16.7741L569.265 16.4244L569.52 16.0761M684.282 18.9072V21.8427M569.52 16.0761H531.267M643.873 24.8884L643.099 28.0507M643.873 24.8884H684.282M684.282 21.8427V24.8884M684.282 24.8884V28.0507M601.916 28.0507L600.308 31.3368M601.916 28.0507H643.099M601.916 28.0507H560.732M643.099 28.0507L642.295 31.3368M643.099 28.0507H684.282M684.282 28.0507V31.3368M600.308 31.3368H642.295M600.308 31.3368H558.32M641.459 34.7535L642.295 31.3368M641.459 34.7535L640.59 38.309M641.459 34.7535H684.282M642.295 31.3368H684.282M558.32 31.3368H516.333M558.32 31.3368L560.732 28.0507M684.282 31.3368V34.7535M560.732 28.0507H519.549M640.59 38.309L640.254 39.6797L639.913 41.0717L639.683 42.0119M640.59 38.309H684.282M684.282 34.7535V38.309M684.282 38.309V42.0119M595.085 42.0119L594.15 43.9214L593.914 44.4054L593.196 45.8718M595.085 42.0119H639.683M595.085 42.0119H550.485M639.683 42.0119L639.451 42.9617L638.979 44.8916L638.739 45.8718M639.683 42.0119H684.282M684.282 42.0119V45.8718M593.196 45.8718H638.739M593.196 45.8718H547.653M637.754 49.8985L637.879 49.3855L638.739 45.8718M637.754 49.8985L636.726 54.1031M637.754 49.8985H684.282M638.739 45.8718H684.282M547.653 45.8718H502.11M547.653 45.8718L550.485 42.0119M684.282 45.8718V49.8985M550.485 42.0119H505.886M636.726 54.1031L635.65 58.4981M636.726 54.1031H684.282M684.282 49.8985V54.1031M684.282 54.1031V58.4981M587.018 58.4981L584.768 63.0964M587.018 58.4981H635.65M587.018 58.4981H538.385M635.65 58.4981L634.525 63.0964M635.65 58.4981H684.282M684.282 58.4981V63.0964M584.768 63.0964H634.525M584.768 63.0964H535.011M633.347 67.9123L634.525 63.0964M633.347 67.9123L632.112 72.9619M633.347 67.9123H684.282M634.525 63.0964H684.282M535.011 63.0964H485.253M535.011 63.0964L538.385 58.4981M684.282 63.0964V67.9123M538.385 58.4981H489.753M632.112 72.9619L630.815 78.2627M632.112 72.9619H684.282M684.282 67.9123V72.9619M684.282 72.9619V78.2627M577.347 78.2627L574.621 83.8334M577.347 78.2627H630.815M577.347 78.2627H523.88M630.815 78.2627L629.452 83.8334M630.815 78.2627H684.282M684.282 78.2627V83.8334M574.621 83.8334H629.452M574.621 83.8334H519.791M628.018 89.6958L629.452 83.8334M628.018 89.6958L626.507 95.8729M628.018 89.6958H684.282M629.452 83.8334H684.282M519.791 83.8334H464.96M519.791 83.8334L523.88 78.2627M684.282 83.8334V89.6958M523.88 78.2627H470.412M626.507 95.8729L624.912 102.392M626.507 95.8729H684.282M684.282 89.6958V95.8729M684.282 95.8729V102.392M565.541 102.392L562.171 109.279M565.541 102.392H624.912M565.541 102.392H506.17M624.912 102.392L623.227 109.279M624.912 102.392H684.282M684.282 102.392V109.279M562.171 109.279H623.227M562.171 109.279H501.115M621.443 116.57L623.227 109.279M621.443 116.57L619.552 124.3M621.443 116.57H684.282M623.227 109.279H684.282M501.115 109.279H440.059M501.115 109.279L506.17 102.392M684.282 109.279V116.57M506.17 102.392H446.8M619.552 124.3L617.544 132.509M619.552 124.3H684.282M684.282 116.57V124.3M684.282 124.3V132.509M550.805 132.509L546.531 141.244M550.805 132.509H617.544M550.805 132.509H484.066M617.544 132.509L615.407 141.244M617.544 132.509H684.282M684.282 132.509V141.244M546.531 141.244H615.407M546.531 141.244H477.655M613.128 150.557L615.407 141.244M613.128 150.557L610.694 160.507M613.128 150.557H684.282M615.407 141.244H684.282M477.655 141.244H408.779M477.655 141.244L484.066 132.509M684.282 141.244V150.557M484.066 132.509H417.327M610.694 160.507L608.087 171.161M610.694 160.507H684.282M684.282 150.557V160.507M684.282 160.507V171.161M531.893 171.161L526.296 182.599M531.893 171.161H608.087M531.893 171.161H455.698M608.087 171.161L605.289 182.599M608.087 171.161H684.282M684.282 171.161V182.599M526.296 182.599H605.289M526.296 182.599H447.303M602.278 194.908L605.289 182.599M602.278 194.908L599.028 208.194M602.278 194.908H684.282M605.289 182.599H684.282M447.303 182.599H368.31M447.303 182.599L455.698 171.161M684.282 182.599V194.908M455.698 171.161H379.502M599.028 208.194L595.509 222.575M599.028 208.194H684.282M684.282 194.908V208.194M684.282 208.194V222.575M506.736 222.575L499.093 238.195M506.736 222.575H595.509M506.736 222.575H417.963M595.509 222.575L591.688 238.195M595.509 222.575H684.282M684.282 222.575V238.195M499.093 238.195H591.688M499.093 238.195H406.499M587.523 255.22L591.688 238.195M587.523 255.22L582.965 273.849M587.523 255.22H684.282M591.688 238.195H684.282M406.499 238.195H313.904M406.499 238.195L417.963 222.575M684.282 238.195V255.22M417.963 222.575H329.19M582.965 273.849L577.957 294.32M582.965 273.849H684.282M684.282 255.22V273.849M684.282 273.849V294.32M471.632 294.32L460.574 316.92M471.632 294.32H577.957M471.632 294.32H365.307M577.957 294.32L572.428 316.92M577.957 294.32H684.282M684.282 294.32V316.92M572.428 316.92H460.574M572.428 316.92H684.282M460.574 316.92H348.72M348.72 316.92H236.865M348.72 316.92L365.307 294.32M365.307 294.32H258.981M454.759 16.0761L452.7 17.479L450.604 18.9072M454.759 16.0761H493.013M454.759 16.0761H416.506M496.355 13.3438L499.583 10.7054M496.355 13.3438L493.013 16.0761M496.355 13.3438H533.941M499.583 10.7054H536.522M499.583 10.7054L501.931 8.78545L502.701 8.15636M466.384 8.15636H502.701M466.384 8.15636L467.756 7.22247L470.002 5.69169M466.384 8.15636H430.068M493.013 16.0761L489.55 18.9072M493.013 16.0761H531.267M533.941 13.3438L536.522 10.7054M533.941 13.3438L531.267 16.0761M536.522 10.7054L537.781 9.42L538.71 8.47024L539.017 8.15636M502.701 8.15636H539.017M502.701 8.15636L504.971 6.29992L505.715 5.69169M531.267 16.0761L529.198 18.1897L528.497 18.9072M575.334 8.15636L575.563 7.8434L576.019 7.22247L576.695 6.29992L577.143 5.69169M575.334 8.15636H539.017M539.017 8.15636L539.323 7.8434L539.931 7.22247L541.429 5.69169M450.604 18.9072H489.55M450.604 18.9072H411.657M485.959 21.8427L486.416 21.4699L486.869 21.0984L488.665 19.6307L489.55 18.9072M485.959 21.8427L483.178 24.116L482.233 24.8884M485.959 21.8427H525.624M489.55 18.9072H528.497M411.657 18.9072H372.71M411.657 18.9072L415.309 16.7741L416.506 16.0761M528.497 18.9072L525.624 21.8427M416.506 16.0761H378.251M482.233 24.8884L481.758 25.2771L481.28 25.6676L479.833 26.851L479.346 27.2488L478.365 28.0507M482.233 24.8884H522.643M525.624 21.8427L525.257 22.2169L522.643 24.8884M522.643 24.8884L522.263 25.2771L521.88 25.6676L521.497 26.0604L519.549 28.0507M437.182 28.0507L432.358 31.3368M437.182 28.0507H478.365M437.182 28.0507H395.999M478.365 28.0507L474.346 31.3368M478.365 28.0507H519.549M519.549 28.0507L516.333 31.3368M432.358 31.3368H474.346M432.358 31.3368H390.371M470.166 34.7535L474.346 31.3368M470.166 34.7535L465.817 38.309M470.166 34.7535H512.989M474.346 31.3368H516.333M390.371 31.3368H348.384M390.371 31.3368L395.999 28.0507M516.333 31.3368L512.989 34.7535M395.999 28.0507H354.814M465.817 38.309L461.288 42.0119M465.817 38.309H509.51M512.989 34.7535L512.132 35.6289L509.51 38.309M509.51 38.309L508.168 39.6797L506.806 41.0717L505.886 42.0119M416.688 42.0119L413.885 43.9214L411.023 45.8718M416.688 42.0119H461.288M416.688 42.0119H372.089M461.288 42.0119L456.566 45.8718M461.288 42.0119H505.886M505.886 42.0119L502.11 45.8718M411.023 45.8718H456.566M411.023 45.8718H365.48M451.641 49.8985L456.566 45.8718M451.641 49.8985L446.497 54.1031M451.641 49.8985H498.169M456.566 45.8718H502.11M365.48 45.8718H319.936M365.48 45.8718L372.089 42.0119M502.11 45.8718L498.169 49.8985M372.089 42.0119H327.491M446.497 54.1031L445.175 55.1835L441.121 58.4981M446.497 54.1031H494.054M498.169 49.8985L494.054 54.1031M494.054 54.1031L493.527 54.6419L491.928 56.2761L489.753 58.4981M392.489 58.4981L385.739 63.0964M392.489 58.4981H441.121M392.489 58.4981H343.857M441.121 58.4981L435.496 63.0964M441.121 58.4981H489.753M489.753 58.4981L485.253 63.0964M385.739 63.0964H435.496M385.739 63.0964H335.982M429.605 67.9123L433.32 64.8762L435.496 63.0964M429.605 67.9123L423.428 72.9619M429.605 67.9123H480.54M435.496 63.0964H485.253M335.982 63.0964H286.225M335.982 63.0964L343.857 58.4981M485.253 63.0964L480.54 67.9123M343.857 58.4981H295.224M423.428 72.9619L416.944 78.2627M423.428 72.9619H475.599M480.54 67.9123L475.599 72.9619M475.599 72.9619L470.412 78.2627M363.476 78.2627L355.299 83.8334M363.476 78.2627H416.944M363.476 78.2627H310.009M416.944 78.2627L410.13 83.8334M416.944 78.2627H470.412M470.412 78.2627L464.96 83.8334M355.299 83.8334H410.13M355.299 83.8334H300.469M402.959 89.6958L410.13 83.8334M402.959 89.6958L395.403 95.8729M402.959 89.6958H459.224M410.13 83.8334H464.96M300.469 83.8334H245.639M300.469 83.8334L310.009 78.2627M464.96 83.8334L459.224 89.6958M310.009 78.2627H256.541M395.403 95.8729L387.429 102.392M395.403 95.8729H453.179M459.224 89.6958L453.179 95.8729M453.179 95.8729L446.8 102.392M328.059 102.392L317.948 109.279M328.059 102.392H387.429M328.059 102.392H268.688M387.429 102.392L379.003 109.279M387.429 102.392H446.8M446.8 102.392L440.059 109.279M317.948 109.279H379.003M317.948 109.279H256.892M370.085 116.57L379.003 109.279M370.085 116.57L360.63 124.3M370.085 116.57H432.925M379.003 109.279H440.059M256.892 109.279H195.836M256.892 109.279L268.688 102.392M440.059 109.279L432.925 116.57M268.688 102.392H209.318M360.63 124.3L350.588 132.509M360.63 124.3H425.361M432.925 116.57L425.361 124.3M425.361 124.3L417.327 132.509M283.849 132.509L271.028 141.244M283.849 132.509H350.588M283.849 132.509H217.11M350.588 132.509L339.904 141.244M350.588 132.509H417.327M417.327 132.509L408.779 141.244M271.028 141.244H339.904M271.028 141.244H202.152M328.512 150.557L339.904 141.244M328.512 150.557L316.341 160.507M328.512 150.557H399.666M339.904 141.244H408.779M202.152 141.244H133.276M202.152 141.244L217.11 132.509M408.779 141.244L399.666 150.557M217.11 132.509H150.372M316.341 160.507L303.308 171.161M316.341 160.507H389.929M399.666 150.557L389.929 160.507M389.929 160.507L379.502 171.161M227.113 171.161L210.324 182.599M227.113 171.161H303.308M227.113 171.161H150.917M303.308 171.161L289.317 182.599M303.308 171.161H379.502M379.502 171.161L368.31 182.599M210.324 182.599H289.317M210.324 182.599H131.331M274.259 194.908L289.317 182.599M274.259 194.908L258.009 208.194M274.259 194.908H356.264M289.317 182.599H368.31M131.331 182.599H52.3379M131.331 182.599L150.917 171.161M368.31 182.599L356.264 194.908M150.917 171.161H74.7222M258.009 208.194L240.416 222.575M258.009 208.194H343.263M356.264 194.908L343.263 208.194M343.263 208.194L329.19 222.575M151.643 222.575L128.715 238.195M151.643 222.575H240.416M151.643 222.575H62.8699M240.416 222.575L221.31 238.195M240.416 222.575H329.19M329.19 222.575L313.904 238.195M128.715 238.195H221.31M128.715 238.195H36.1205M200.484 255.22L221.31 238.195M200.484 255.22L177.696 273.849M200.484 255.22H297.243M221.31 238.195H313.904M36.1205 238.195H-56.4741M36.1205 238.195L62.8699 222.575M313.904 238.195L297.243 255.22M62.8699 222.575H-25.9029M177.696 273.849L152.656 294.32M177.696 273.849H279.014M297.243 255.22L279.014 273.849M279.014 273.849L258.981 294.32M46.3308 294.32L13.1572 316.92M46.3308 294.32H152.656M46.3308 294.32H-59.9948M152.656 294.32L125.012 316.92M152.656 294.32H258.981M258.981 294.32L236.865 316.92M125.012 316.92H13.1572M125.012 316.92H236.865M13.1572 316.92L-78.3292 316.919M-59.9948 294.32L-78.3292 305.026M-59.9948 294.32H-78.3292M301.744 16.0761L294.817 18.9072M301.744 16.0761H339.997M301.744 16.0761H263.49M346.013 13.3438L351.823 10.7054M346.013 13.3438L339.997 16.0761M346.013 13.3438H383.599M351.823 10.7054H388.762M351.823 10.7054L357.436 8.15636M321.119 8.15636H357.436M321.119 8.15636L323.404 7.22247L327.149 5.69169M321.119 8.15636H284.803M339.997 16.0761L333.764 18.9072M339.997 16.0761H378.251M383.599 13.3438L388.762 10.7054M383.599 13.3438L378.251 16.0761M388.762 10.7054L392.521 8.78545L393.752 8.15636M357.436 8.15636L358.124 7.8434L362.862 5.69169M357.436 8.15636H393.752M378.251 16.0761L372.71 18.9072M430.068 8.15636L434.289 5.69169M430.068 8.15636H393.752M393.752 8.15636L395.58 7.22247L398.576 5.69169M294.817 18.9072H333.764M294.817 18.9072H255.871M327.301 21.8427L333.764 18.9072M327.301 21.8427L320.594 24.8884M327.301 21.8427H366.965M333.764 18.9072H372.71M255.871 18.9072H216.925M255.871 18.9072L263.49 16.0761M372.71 18.9072L366.965 21.8427M263.49 16.0761H225.236M320.594 24.8884L318.878 25.6676L313.631 28.0507M320.594 24.8884H361.004M366.965 21.8427L361.004 24.8884M361.004 24.8884L354.814 28.0507M272.447 28.0507L271.46 28.4548L264.409 31.3368M272.447 28.0507H313.631M272.447 28.0507H231.264M313.631 28.0507L306.396 31.3368M313.631 28.0507H354.814M354.814 28.0507L354.025 28.4548L348.384 31.3368M264.409 31.3368H306.396M264.409 31.3368H222.422M298.874 34.7535L306.396 31.3368M298.874 34.7535L291.045 38.309M298.874 34.7535H341.697M306.396 31.3368H348.384M222.422 31.3368H180.434M222.422 31.3368L231.264 28.0507M348.384 31.3368L341.697 34.7535M231.264 28.0507H190.081M291.045 38.309L282.891 42.0119M291.045 38.309H334.738M341.697 34.7535L334.738 38.309M334.738 38.309L327.491 42.0119M238.293 42.0119L228.85 45.8718M238.293 42.0119H282.891M238.293 42.0119H193.694M282.891 42.0119L274.393 45.8718M282.891 42.0119H327.491M327.491 42.0119L319.936 45.8718M228.85 45.8718H274.393M228.85 45.8718H183.306M265.527 49.8985L274.393 45.8718M265.527 49.8985L256.268 54.1031M265.527 49.8985H312.055M274.393 45.8718H319.936M183.306 45.8718H137.763M183.306 45.8718L193.694 42.0119M319.936 45.8718L312.055 49.8985M193.694 42.0119H149.094M256.268 54.1031L246.592 58.4981M256.268 54.1031H303.826M312.055 49.8985L303.826 54.1031M303.826 54.1031L295.224 58.4981M197.959 58.4981L186.71 63.0964M197.959 58.4981H246.592M197.959 58.4981H149.327M246.592 58.4981L236.467 63.0964M246.592 58.4981H295.224M295.224 58.4981L286.225 63.0964M186.71 63.0964H236.467M186.71 63.0964H136.953M225.863 67.9123L236.467 63.0964M225.863 67.9123L214.745 72.9619M225.863 67.9123H276.798M236.467 63.0964H286.225M136.953 63.0964H87.1956M136.953 63.0964L149.327 58.4981M286.225 63.0964L276.798 67.9123M149.327 58.4981H100.695M214.745 72.9619L203.074 78.2627M214.745 72.9619H266.915M276.798 67.9123L266.915 72.9619M266.915 72.9619L256.541 78.2627M149.606 78.2627L135.977 83.8334M149.606 78.2627H203.074M149.606 78.2627H96.1388M203.074 78.2627L190.808 83.8334M203.074 78.2627H256.541M256.541 78.2627L245.639 83.8334M135.977 83.8334H190.808M135.977 83.8334H81.1464M177.9 89.6958L190.808 83.8334M177.9 89.6958L164.299 95.8729M177.9 89.6958H234.164M190.808 83.8334H245.639M81.1464 83.8334H26.3162M81.1464 83.8334L96.1388 78.2627M245.639 83.8334L234.164 89.6958M96.1388 78.2627H42.671M164.299 95.8729L149.947 102.392M164.299 95.8729H222.075M234.164 89.6958L222.075 95.8729M222.075 95.8729L209.318 102.392M90.5757 102.392L73.7244 109.279M90.5757 102.392H149.947M90.5757 102.392H31.2056M149.947 102.392L134.78 109.279M149.947 102.392H209.318M209.318 102.392L195.836 109.279M73.7244 109.279H134.78M73.7244 109.279H12.6686M118.727 116.57L134.78 109.279M118.727 116.57L101.708 124.3M118.727 116.57H181.566M134.78 109.279H195.836M12.6686 109.279H-48.3872M12.6686 109.279L31.2056 102.392M195.836 109.279L181.566 116.57M31.2056 102.392H-28.1653M101.708 124.3L83.6328 132.509M101.708 124.3H166.439M181.566 116.57L166.439 124.3M166.439 124.3L150.372 132.509M16.894 132.509L-4.47506 141.244M16.894 132.509H83.6328M16.894 132.509H-49.8449M83.6328 132.509L64.4007 141.244M83.6328 132.509H150.372M150.372 132.509L133.276 141.244M-4.47506 141.244H64.4007M-4.47506 141.244H-73.3508M43.8952 150.557L64.4007 141.244M43.8952 150.557L21.9876 160.507M43.8952 150.557H115.049M64.4007 141.244H133.276M-73.3508 141.244L-49.8449 132.509M-73.3508 141.244H-78.3292M-73.3508 141.244L-78.3292 143.094M133.276 141.244L115.049 150.557M-49.8449 132.509H-78.3292M21.9876 160.507L-1.47228 171.161M21.9876 160.507H95.5756M115.049 150.557L95.5756 160.507M95.5756 160.507L74.7222 171.161M-77.6675 171.161H-1.47228M-77.6675 171.161H-78.3292M-77.6675 171.161L-78.3292 171.432M-1.47228 171.161L-26.6559 182.599M-1.47228 171.161H74.7222M74.7222 171.161L52.3379 182.599M-53.7588 194.908L-26.6559 182.599M-53.7588 194.908H28.2457M-53.7588 194.908H-78.3292M-53.7588 194.908L-78.3292 206.067M-26.6559 182.599H52.3379M-26.6559 182.599H-78.3292M52.3379 182.599L28.2457 194.908M28.2457 194.908L2.24466 208.194M2.24466 208.194L-25.9029 222.575M2.24466 208.194H-78.3292M-25.9029 222.575L-56.4741 238.195M-25.9029 222.575H-78.3292M-56.4741 238.195H-78.3292M-56.4741 238.195L-78.3292 249.362M148.728 16.0761L139.032 18.9072M148.728 16.0761H186.983M148.728 16.0761H110.474M195.672 13.3438L204.063 10.7054M195.672 13.3438L186.983 16.0761M195.672 13.3438H233.257M204.063 10.7054H241.002M204.063 10.7054L212.17 8.15636M175.854 8.15636H212.17M175.854 8.15636L184.295 5.69169M175.854 8.15636H139.538M186.983 16.0761L177.978 18.9072M186.983 16.0761H225.236M233.257 13.3438L241.002 10.7054M233.257 13.3438L225.236 16.0761M241.002 10.7054L248.486 8.15636M212.17 8.15636L213.164 7.8434L220.008 5.69169M212.17 8.15636H248.486M225.236 16.0761L216.925 18.9072M284.803 8.15636L291.435 5.69169M284.803 8.15636H248.486M248.486 8.15636L249.404 7.8434L255.722 5.69169M139.032 18.9072H177.978M139.032 18.9072H100.085M168.642 21.8427L177.978 18.9072M168.642 21.8427L158.955 24.8884M168.642 21.8427H208.307M177.978 18.9072H216.925M100.085 18.9072H61.1389M100.085 18.9072L110.474 16.0761M216.925 18.9072L208.307 21.8427M110.474 16.0761H72.2206M158.955 24.8884L148.897 28.0507M158.955 24.8884H199.365M208.307 21.8427L207.207 22.2169L199.365 24.8884M199.365 24.8884L190.081 28.0507M107.714 28.0507L96.4598 31.3368M107.714 28.0507H148.897M107.714 28.0507H66.5305M148.897 28.0507L138.447 31.3368M148.897 28.0507H190.081M190.081 28.0507L180.434 31.3368M96.4598 31.3368H138.447M96.4598 31.3368H54.4724M127.581 34.7535L138.447 31.3368M127.581 34.7535L116.273 38.309M127.581 34.7535H170.404M138.447 31.3368H180.434M54.4724 31.3368H12.4851M54.4724 31.3368L66.5305 28.0507M180.434 31.3368L170.404 34.7535M66.5305 28.0507H25.347M116.273 38.309L104.496 42.0119M116.273 38.309H159.965M170.404 34.7535L159.965 38.309M159.965 38.309L149.094 42.0119M59.8965 42.0119L46.6763 45.8718M59.8965 42.0119H104.496M59.8965 42.0119H15.2972M104.496 42.0119L92.2201 45.8718M104.496 42.0119H149.094M149.094 42.0119L137.763 45.8718M46.6763 45.8718H92.2201M46.6763 45.8718H1.13331M79.413 49.8985L92.2201 45.8718M79.413 49.8985L66.0403 54.1031M79.413 49.8985H125.942M92.2201 45.8718H137.763M1.13331 45.8718H-44.4097M1.13331 45.8718L15.2972 42.0119M137.763 45.8718L125.942 49.8985M15.2972 42.0119H-29.3012M66.0403 54.1031L52.0623 58.4981M66.0403 54.1031H113.597M125.942 49.8985L113.597 54.1031M113.597 54.1031L100.695 58.4981M3.42989 58.4981L-12.3188 63.0964M3.42989 58.4981H52.0623M3.42989 58.4981H-45.2017M52.0623 58.4981L37.4384 63.0964M52.0623 58.4981H100.695M100.695 58.4981L87.1956 63.0964M-12.3188 63.0964H37.4384M22.121 67.9123L37.4384 63.0964M22.121 67.9123L6.06169 72.9619M22.121 67.9123H73.0571M37.4384 63.0964H87.1956M87.1956 63.0964L73.0571 67.9123M-45.2017 58.4981H-78.3292M6.06169 72.9619L-10.7968 78.2627M6.06169 72.9619H58.2323M73.0571 67.9123L58.2323 72.9619M58.2323 72.9619L42.671 78.2627M-64.2646 78.2627H-10.7968M-64.2646 78.2627H-78.3292M-64.2646 78.2627L-78.3292 82.369M-10.7968 78.2627L-28.5148 83.8334M-10.7968 78.2627H42.671M42.671 78.2627L26.3162 83.8334M-47.1591 89.6958L-28.5148 83.8334M-47.1591 89.6958L-66.8051 95.8729M-47.1591 89.6958H9.10579M-47.1591 89.6958H-78.3292M-28.5148 83.8334H26.3162M-28.5148 83.8334H-78.3292M26.3162 83.8334L9.10579 89.6958M-78.4841 82.4142L-78.3292 82.369M-66.8051 95.8729H-9.02929M-66.8051 95.8729H-78.3292M-66.8051 95.8729L-78.3292 99.4964M9.10579 89.6958L-9.02929 95.8729M-9.02929 95.8729L-28.1653 102.392M-28.1653 102.392L-48.3872 109.279M-28.1653 102.392H-78.3292M-69.7912 116.57L-48.3872 109.279M-69.7912 116.57H-78.3292M-69.7912 116.57L-78.3292 119.479M-48.3872 109.279H-78.3292M-4.28679 16.0761L-16.7539 18.9072M-4.28679 16.0761H33.9669M-4.28679 16.0761H-42.5413M45.3298 13.3438L56.3027 10.7054M45.3298 13.3438L33.9669 16.0761M45.3298 13.3438H82.9155M56.3027 10.7054H93.2425M56.3027 10.7054L66.9046 8.15636M30.5884 8.15636H66.9046M30.5884 8.15636L41.4413 5.69169M30.5884 8.15636H-5.72781M33.9669 16.0761L22.1925 18.9072M33.9669 16.0761H72.2206M82.9155 13.3438L93.2425 10.7054M82.9155 13.3438L72.2206 16.0761M93.2425 10.7054L103.221 8.15636M66.9046 8.15636H103.221M66.9046 8.15636L77.1554 5.69169M72.2206 16.0761L61.1389 18.9072M139.538 8.15636L148.582 5.69169M139.538 8.15636H103.221M103.221 8.15636L112.869 5.69169M-16.7539 18.9072H22.1925M-16.7539 18.9072H-55.7003M9.98358 21.8427L22.1925 18.9072M9.98358 21.8427L-2.68372 24.8884M9.98358 21.8427H49.6481M22.1925 18.9072H61.1389M-55.7003 18.9072L-42.5413 16.0761M-55.7003 18.9072H-78.3292M61.1389 18.9072L49.6481 21.8427M-42.5413 16.0761H-78.3292M-2.68372 24.8884L-15.8364 28.0507M-2.68372 24.8884H37.726M49.6481 21.8427L37.726 24.8884M37.726 24.8884L25.347 28.0507M-57.0198 28.0507L-71.4896 31.3368M-57.0198 28.0507H-15.8364M-57.0198 28.0507H-78.3292M-15.8364 28.0507L-29.5022 31.3368M-15.8364 28.0507H25.347M25.347 28.0507L12.4851 31.3368M-43.7122 34.7535L-29.5022 31.3368M-43.7122 34.7535L-58.4997 38.309M-43.7122 34.7535H-0.889193M-43.7122 34.7535H-78.3292M-29.5022 31.3368H-71.4896M-29.5022 31.3368H12.4851M-71.4896 31.3368L-78.3292 32.8898M-71.4896 31.3368H-78.3292M12.4851 31.3368L-0.889193 34.7535M-58.4997 38.309L-73.9005 42.0119M-58.4997 38.309H-14.8069M-58.4997 38.309H-78.3292M-0.889193 34.7535L-14.8069 38.309M-14.8069 38.309L-29.3012 42.0119M-73.9005 42.0119H-29.3012M-73.9005 42.0119L-78.3292 43.0766M-73.9005 42.0119H-78.3292M-29.3012 42.0119L-44.4097 45.8718M-60.1719 49.8985L-44.4097 45.8718M-60.1719 49.8985L-76.6308 54.1031M-60.1719 49.8985H-78.3292M-44.4097 45.8718H-78.3292M-78.5675 45.8718H-78.3292M-76.6308 54.1031H-78.3292M-76.6308 54.1031L-78.3292 54.537M-78.7399 54.6419L-78.3292 54.537M-67.4263 13.3438L-54.5175 10.7054M-67.4263 13.3438H-78.3292M-67.4263 13.3438L-78.3292 15.572M-54.5175 10.7054L-42.044 8.15636M-54.5175 10.7054H-78.3292M-5.72781 8.15636L5.72805 5.69169M-5.72781 8.15636H-42.044M-42.044 8.15636L-29.9852 5.69169M-42.044 8.15636H-78.3292M1184.27 5.69169H1219.98M1184.27 5.69169H1148.56M1211.23 3.30774L1213.39 3.89647L1219.98 5.69169M1211.23 3.30774H1246.36M1219.98 5.69169H1255.7M1246.36 3.30774L1248.67 3.89647L1249.83 4.1922L1255.7 5.69169M1255.7 5.69169H1291.41M1291.41 5.69169H1327.12M1148.56 5.69169H1112.84M1327.12 5.69169H1362.84M1362.84 5.69169L1351.75 3.30774M1362.84 5.69169H1398.55M1351.75 3.30774H1386.88M1041.42 5.69169H1077.13M1041.42 5.69169H1005.7M1070.71 3.30774L1072.3 3.89647L1073.1 4.1922L1077.13 5.69169M1070.71 3.30774H1105.84M1077.13 5.69169H1112.84M1105.84 3.30774L1112.84 5.69169M1005.7 5.69169H969.989M898.563 5.69169H934.276M898.563 5.69169H862.849M930.193 3.30774L930.696 3.6012L931.201 3.89647L931.709 4.1922L934.276 5.69169M930.193 3.30774H965.323M934.276 5.69169H969.989M965.323 3.30774L969.989 5.69169M862.849 5.69169H827.135M755.709 5.69169H791.422M755.709 5.69169H719.996M789.673 3.30774L791.422 5.69169M789.673 3.30774H824.803M791.422 5.69169H827.135M824.803 3.30774L825.091 3.6012L825.379 3.89647L825.669 4.1922L827.135 5.69169M719.996 5.69169H684.282M612.856 5.69169H648.569M612.856 5.69169H577.143M649.152 3.30774L648.569 5.69169M649.152 3.30774H684.282M648.569 5.69169H684.282M684.282 3.30774V5.69169M577.143 5.69169H541.429M470.002 5.69169H505.715M470.002 5.69169H434.289M508.632 3.30774L507.912 3.89647L506.453 5.08799L505.715 5.69169M508.632 3.30774H543.762M505.715 5.69169H541.429M543.762 3.30774L543.474 3.6012L543.186 3.89647L542.896 4.1922L541.429 5.69169M434.289 5.69169H398.576M327.149 5.69169H362.862M327.149 5.69169H291.435M368.112 3.30774L366.815 3.89647L366.163 4.1922L362.862 5.69169M368.112 3.30774H403.242M362.862 5.69169H398.576M403.242 3.30774L402.667 3.6012L398.576 5.69169M291.435 5.69169H255.722M184.295 5.69169H220.008M184.295 5.69169H148.582M227.591 3.30774L225.718 3.89647L224.776 4.1922L220.008 5.69169M227.591 3.30774H262.721M220.008 5.69169H255.722M262.721 3.30774L261.858 3.6012L255.722 5.69169M148.582 5.69169H112.869M41.4413 5.69169H77.1554M41.4413 5.69169H5.72805M87.0701 3.30774L77.1554 5.69169M87.0701 3.30774H122.2M77.1554 5.69169H112.869M122.2 3.30774L119.897 3.89647L118.737 4.1922L112.869 5.69169M5.72805 5.69169H-29.9852M-53.4498 3.30774L-65.6985 5.69169M-53.4498 3.30774H-18.3196M-53.4498 3.30774H-78.3292M-65.6985 5.69169H-29.9852M-65.6985 5.69169L-78.3292 8.15033M-65.6985 5.69169H-78.3292M-18.3196 3.30774L-21.2001 3.89647L-29.9852 5.69169M1386.88 3.30774L1389.76 3.89647L1398.55 5.69169M1398.55 5.69169H1434.26M1434.26 5.69169L1446.89 8.15034M1434.26 5.69169H1446.89M1446.89 119.479V116.57M1446.89 119.479V124.3M1446.89 116.57V109.279M1446.89 124.3V125.74V132.509M1446.89 132.509V141.244M1446.89 63.0964V58.4981M1446.89 63.0964V67.5253M1446.89 3.30774V5.69169M1446.89 5.69169V8.15034M1446.89 8.15034L1446.92 8.15636H1446.89M1446.89 8.15034V8.15636M1446.89 8.15636V10.7054M1446.89 10.7054V13.3438M1446.89 13.3438V15.572M1446.89 15.572V16.0761M1446.89 16.0761V18.9072M1446.89 18.9072V21.8427M1446.89 21.8427V23.775M1446.89 23.775V24.8884M1446.89 24.8884V28.0507M1446.89 28.0507V31.3368M1446.89 31.3368V32.8898M1446.89 32.8898V34.7535M1446.89 34.7535V38.309M1446.89 38.309V42.0119M1446.89 42.0119V43.0766M1446.89 43.0766V45.8718M1446.89 45.8718V49.8985M1446.89 49.8985V54.1031M1446.89 54.1031V54.537M1446.89 54.537V58.4981M1446.89 67.9123V72.9619M1446.89 67.9123V67.5253M1446.89 72.9619V78.2627M1446.89 78.2627V82.369M1446.89 82.369V83.8334M1446.89 83.8334V89.6958M1446.89 89.6958V95.8729M1446.89 95.8729V99.4964M1446.89 99.4964V102.392M1446.89 102.392V109.279M1446.89 141.244V143.094M1446.89 143.094V150.557M1446.89 150.557V160.507M1446.89 160.507V171.161M1446.89 171.161V171.432M1446.89 171.432V182.599M1446.89 182.599V194.908M1446.89 194.908V206.067M1446.89 206.067V208.194M1446.89 208.194V222.575M1446.89 222.575V238.195M1446.89 238.195V249.362M1446.89 249.362V255.22M1446.89 255.22V273.849M1446.89 273.849V294.32M1446.89 294.32V305.026M1446.89 305.026V316.919M1446.89 316.919V317H-78.3292V316.919M-78.3292 67.9123V72.9619M-78.3292 67.9123V67.5253M-78.3292 67.5253V63.0964M-78.3292 63.0964V58.4981M-78.3292 58.4981V54.537M-78.3292 54.537V54.1031M-78.3292 54.1031V49.8985M-78.3292 49.8985V45.8718M-78.3292 45.8718V43.0766M-78.3292 43.0766V42.0119M-78.3292 42.0119V38.309M-78.3292 38.309V34.7535M-78.3292 34.7535V32.8898M-78.3292 32.8898V31.3368M-78.3292 31.3368V28.0507M-78.3292 28.0507V24.8884M-78.3292 24.8884V23.775M-78.3292 23.775V21.8427M-78.3292 21.8427V18.9072M-78.3292 18.9072V16.0761M-78.3292 16.0761V15.572M-78.3292 15.572V13.3438M-78.3292 13.3438V10.7054M-78.3292 10.7054V8.15636M-78.3292 8.15636H-78.3602L-78.3292 8.15033M-78.3292 8.15636V8.15033M-78.3292 8.15033V5.69169M-78.3292 5.69169V3.30774M-78.3292 316.919V305.026M-78.3292 305.026V294.32M-78.3292 294.32V273.849M-78.3292 273.849V255.22M-78.3292 255.22V249.362M-78.3292 249.362V238.195M-78.3292 238.195V222.575M-78.3292 222.575V208.194M-78.3292 208.194V206.067M-78.3292 206.067V194.908M-78.3292 194.908V182.599M-78.3292 182.599V171.432M-78.3292 171.432V171.161M-78.3292 171.161V160.507M-78.3292 160.507V150.557M-78.3292 150.557V143.094M-78.3292 143.094V141.244M-78.3292 141.244V132.509M-78.3292 132.509V124.3M-78.3292 124.3V119.479M-78.3292 119.479V116.57M-78.3292 116.57V109.279M-78.3292 109.279V102.392M-78.3292 102.392V99.4964M-78.3292 99.4964V95.8729M-78.3292 95.8729V89.6958M-78.3292 89.6958V83.8334M-78.3292 83.8334V82.369M-78.3292 82.369V78.2627M-78.3292 78.2627V72.9619" stroke="url(#paint0_radial_126_179)" stroke-opacity="0.3" stroke-width="1.8895" stroke-miterlimit="10" stroke-linecap="round" stroke-linejoin="round"/>
<defs>
<radialGradient id="paint0_radial_126_179" cx="0" cy="0" r="1" gradientUnits="userSpaceOnUse" gradientTransform="translate(684.282 305.353) rotate(-90) scale(494.656 2388.82)">
<stop stop-color="#C45037"/>
<stop offset="0.489074" stop-color="#CED2DF" stop-opacity="0"/>
</radialGradient>
</defs>
</svg>
